<?xml version="1.0" encoding="UTF-8" standalone="no"?>
<!-- Created with Inkscape (http://www.inkscape.org/) -->

<svg
   xmlns:dc="http://purl.org/dc/elements/1.1/"
   xmlns:cc="http://creativecommons.org/ns#"
   xmlns:rdf="http://www.w3.org/1999/02/22-rdf-syntax-ns#"
   xmlns:svg="http://www.w3.org/2000/svg"
   xmlns="http://www.w3.org/2000/svg"
   xmlns:sodipodi="http://sodipodi.sourceforge.net/DTD/sodipodi-0.dtd"
   xmlns:inkscape="http://www.inkscape.org/namespaces/inkscape"
   version="1.1"
   id="svg10"
   width="511"
   height="512"
   viewBox="0 0 511 512"
   sodipodi:docname="孟.svg"
   inkscape:version="0.92.4 (5da689c313, 2019-01-14)">
  <metadata
     id="metadata16">
    <rdf:RDF>
      <cc:Work
         rdf:about="">
        <dc:format>image/svg+xml</dc:format>
        <dc:type
           rdf:resource="http://purl.org/dc/dcmitype/StillImage" />
        <dc:title></dc:title>
      </cc:Work>
    </rdf:RDF>
  </metadata>
  <defs
     id="defs14" />
  <sodipodi:namedview
     pagecolor="#ffffff"
     bordercolor="#666666"
     borderopacity="1"
     objecttolerance="10"
     gridtolerance="10"
     guidetolerance="10"
     inkscape:pageopacity="0"
     inkscape:pageshadow="2"
     inkscape:window-width="1920"
     inkscape:window-height="1017"
     id="namedview12"
     showgrid="false"
     inkscape:zoom="1.5429688"
     inkscape:cx="231.60992"
     inkscape:cy="276.20174"
     inkscape:window-x="-8"
     inkscape:window-y="-8"
     inkscape:window-maximized="1"
     inkscape:current-layer="svg10" />
  <path
     style="fill:#000000;stroke:none;stroke-width:1px;stroke-linecap:butt;stroke-linejoin:miter;stroke-opacity:1;fill-opacity:1"
     d="m 137.39747,79.716456 20.73924,7.129114 c 0,0 62.21772,-29.812659 62.21772,-33.053165 0,-3.240506 15.55443,-7.777215 15.55443,-7.777215 0,0 -1.9443,-2.592405 1.2962,-3.240506 3.24051,-0.648102 25.92405,-22.683545 25.92405,-22.683545 h 9.72152 l 8.42532,9.073418 23.33164,20.091139 -0.6481,8.425317 -7.12911,7.777215 -2.59241,9.721519 c 0,0 -7.77721,18.794937 -20.73924,35.645573 -12.96202,16.85063 -23.33164,23.33164 -23.33164,23.33164 l -7.12912,-2.5924 v -7.12912 c 0,0 -13.61012,44.07089 0.64811,-10.36962 14.25822,-54.440504 9.72151,-56.384807 9.72151,-56.384807 0,0 7.77722,-7.777216 -9.72151,5.832911 -17.49874,13.610127 -34.34937,23.979747 -36.29367,29.812658 -1.94431,5.832912 -12.31393,11.665828 -18.14684,16.850638 -5.83291,5.18481 -11.01772,9.07341 -22.68354,11.66582 -11.66583,2.5924 -29.16456,-42.126584 -29.16456,-42.126584 z"
     id="path3724"
     inkscape:connector-curvature="0" />
  <path
     style="fill:#000000;stroke:none;stroke-width:1px;stroke-linecap:butt;stroke-linejoin:miter;stroke-opacity:1;fill-opacity:1"
     d="m 209.98481,110.17722 5.18481,-3.24051 9.72152,5.18481 c 0,0 6.48101,0 9.72152,3.24051 3.2405,3.2405 22.03544,14.25822 22.68354,18.14683 0.6481,3.88861 7.77722,-0.6481 0.6481,20.73924 -7.12911,21.38734 -12.96202,31.75696 -12.96202,31.75696 0,0 -13.61013,28.51646 -20.09114,34.34937 -6.48101,5.83291 -31.10886,25.92405 -33.70127,26.57215 -2.5924,0.6481 -27.22025,10.36962 -27.86835,6.48101 -0.6481,-3.8886 -1.9443,-11.01772 -1.9443,-11.01772 l 5.18481,-4.53671 c 0,0 22.03544,-1.9443 22.03544,-4.5367 0,-2.59241 25.92405,-23.33165 25.92405,-23.33165 0,0 18.79494,-32.40506 20.09114,-32.40506 1.2962,0 3.2405,-17.49874 -0.6481,-18.79494 -3.88861,-1.2962 -6.48102,-19.44304 -11.01772,-23.33165 -4.53671,-3.8886 -11.01773,-15.55443 -11.01773,-15.55443 l -1.2962,-3.2405 z"
     id="path3726"
     inkscape:connector-curvature="0" />
  <path
     style="fill:#000000;stroke:none;stroke-width:1px;stroke-linecap:butt;stroke-linejoin:miter;stroke-opacity:1;fill-opacity:1"
     d="m 116.65823,155.5443 c 10.36962,1.29621 23.97974,-1.2962 23.97974,-1.2962 l 22.68355,-3.24051 12.96202,-4.5367 19.44304,-1.29621 23.33165,-1.9443 47.95949,-9.07342 30.46076,-5.18481 10.36962,-5.83291 16.20253,3.24051 c 0,0 9.07342,1.2962 11.66583,5.18481 2.5924,3.8886 11.01772,13.61012 11.01772,13.61012 0,0 -1.94431,6.48102 -4.53671,6.48102 -2.59241,0 -22.68355,-2.59241 -22.68355,-2.59241 l -57.68101,3.24051 c 0,0 -68.05063,1.9443 -68.69873,8.42531 -0.6481,6.48102 -58.32912,10.36962 -58.32912,18.79494 0,8.42532 -12.96202,5.83291 -15.55443,3.88861 -2.5924,-1.94431 -7.77721,-13.61013 -7.77721,-13.61013 v -11.01772 z"
     id="path3728"
     inkscape:connector-curvature="0" />
  <path
     style="fill:#000000;stroke:none;stroke-width:1px;stroke-linecap:butt;stroke-linejoin:miter;stroke-opacity:1;fill-opacity:1"
     d="m 111.47342,254.0557 19.44304,32.40506 14.90632,25.92405 13.61013,21.38734 2.59241,12.96203 8.42531,2.5924 3.24051,-6.48101 c 0,0 -11.66582,-33.05316 -9.72152,-33.05316 1.9443,0 -20.73924,-41.47849 -23.33165,-41.47849 -2.5924,0 -20.73924,-20.09114 -22.68354,-14.90633 -1.9443,5.18482 -7.77721,-3.8886 -7.77721,-3.8886 z"
     id="path3730"
     inkscape:connector-curvature="0" />
  <path
     style="fill:#000000;stroke:none;stroke-width:1px;stroke-linecap:butt;stroke-linejoin:miter;stroke-opacity:1;fill-opacity:1"
     d="m 234.61266,221.00253 c 79.06835,-17.49873 79.71645,-17.49873 79.71645,-17.49873 0,0 25.92405,5.83291 28.51646,10.36962 2.5924,4.53671 14.25823,7.77721 10.36962,27.22025 -3.88861,19.44304 -47.31139,104.99241 -53.1443,118.60253 -5.83292,13.61013 -7.12912,13.61013 -7.12912,13.61013 l -5.18481,-2.59241 c 0,0 0,-36.29367 3.24051,-34.99746 3.2405,1.2962 15.55443,-46.01519 24.62785,-62.21773 9.07341,-16.20253 12.31392,-42.77468 12.31392,-42.77468 l -7.77721,-7.12911 -58.97722,13.61012 c 0,0 -31.10886,-16.20253 -26.57215,-16.20253 z"
     id="path3732"
     inkscape:connector-curvature="0" />
  <path
     style="fill:#000000;stroke:none;stroke-width:1px;stroke-linecap:butt;stroke-linejoin:miter;stroke-opacity:1;fill-opacity:1"
     d="m 180.82025,268.31392 c 0,0 9.07342,20.73924 3.24051,42.12659 -5.83291,21.38734 25.92405,-9.72152 25.92405,-9.72152 0,0 8.42532,-22.03545 -6.48101,-28.51646 -14.90633,-6.48101 -22.68355,-3.88861 -22.68355,-3.88861 z"
     id="path3734"
     inkscape:connector-curvature="0" />
  <path
     style="fill:#000000;stroke:none;stroke-width:1px;stroke-linecap:butt;stroke-linejoin:miter;stroke-opacity:1;fill-opacity:1"
     d="m 235.26076,260.53671 c 0,0 19.44304,32.40506 18.14683,32.40506 -1.2962,0 22.03545,7.12912 22.68355,3.24051 0.6481,-3.88861 6.48101,-15.55443 0,-15.55443 -6.48101,0 -31.10886,-19.44304 -31.10886,-19.44304 z"
     id="path3736"
     inkscape:connector-curvature="0" />
  <path
     style="fill:#000000;stroke:none;stroke-width:1px;stroke-linecap:butt;stroke-linejoin:miter;stroke-opacity:1;fill-opacity:1"
     d="m 4.5367089,367.47342 c 0,0 14.9063291,32.40506 16.2025321,29.81266 1.296202,-2.59241 13.610126,-14.90633 13.610126,-14.90633 0,0 19.443038,-13.61013 23.979747,-10.36962 4.536709,3.2405 22.035443,-7.12912 45.367086,-8.42532 23.33165,-1.2962 134.80507,-14.25823 138.69367,-10.36962 3.88861,3.88861 34.99747,-7.77722 39.53418,-6.48101 4.53671,1.2962 17.49873,-2.59241 23.33165,1.2962 5.83291,3.88861 1.9443,1.2962 16.20253,7.77721 14.25823,6.48102 100.45569,29.16456 100.45569,29.16456 0,0 45.36709,7.12912 42.77469,-1.9443 -2.59241,-9.07342 -36.94177,-26.57215 -39.53418,-25.92405 -2.5924,0.6481 -84.25316,-25.27595 -92.67848,-17.49874 -8.42532,7.77722 -10.36962,-5.83291 -13.61013,-4.53671 -3.2405,1.29621 -135.45316,5.83292 -135.45316,5.83292 0,0 -144.526584,12.31392 -144.526584,19.44303 0,7.12912 -34.3493671,7.12912 -34.3493671,7.12912 z"
     id="path3738"
     inkscape:connector-curvature="0" />
</svg>
