<?xml version="1.0" encoding="UTF-8" standalone="no"?>
<!-- Created with Inkscape (http://www.inkscape.org/) -->

<svg
   xmlns:dc="http://purl.org/dc/elements/1.1/"
   xmlns:cc="http://creativecommons.org/ns#"
   xmlns:rdf="http://www.w3.org/1999/02/22-rdf-syntax-ns#"
   xmlns:svg="http://www.w3.org/2000/svg"
   xmlns="http://www.w3.org/2000/svg"
   xmlns:sodipodi="http://sodipodi.sourceforge.net/DTD/sodipodi-0.dtd"
   xmlns:inkscape="http://www.inkscape.org/namespaces/inkscape"
   version="1.1"
   id="svg10"
   width="515"
   height="516"
   viewBox="0 0 515 516"
   sodipodi:docname="新.svg"
   inkscape:version="0.92.4 (5da689c313, 2019-01-14)">
  <metadata
     id="metadata16">
    <rdf:RDF>
      <cc:Work
         rdf:about="">
        <dc:format>image/svg+xml</dc:format>
        <dc:type
           rdf:resource="http://purl.org/dc/dcmitype/StillImage" />
        <dc:title></dc:title>
      </cc:Work>
    </rdf:RDF>
  </metadata>
  <defs
     id="defs14" />
  <sodipodi:namedview
     pagecolor="#ffffff"
     bordercolor="#666666"
     borderopacity="1"
     objecttolerance="10"
     gridtolerance="10"
     guidetolerance="10"
     inkscape:pageopacity="0"
     inkscape:pageshadow="2"
     inkscape:window-width="1920"
     inkscape:window-height="1017"
     id="namedview12"
     showgrid="false"
     inkscape:zoom="1.5310078"
     inkscape:cx="151.36076"
     inkscape:cy="258"
     inkscape:window-x="-8"
     inkscape:window-y="-8"
     inkscape:window-maximized="1"
     inkscape:current-layer="svg10" />
  <path
     style="fill:#000000;stroke:none;stroke-width:1px;stroke-linecap:butt;stroke-linejoin:miter;stroke-opacity:1;fill-opacity:1"
     d="m 122.14177,14.36962 c 0,0 20.2481,14.369621 22.2076,22.86076 1.95949,8.491139 3.91898,7.18481 3.91898,7.18481 0,0 -1.95949,7.18481 3.91899,8.491139 5.87848,1.306329 9.79747,-3.265823 10.45063,-6.531645 0.65317,-3.265823 7.18481,-18.941773 -11.10379,-25.473418 -18.28861,-6.531646 -31.3519,-9.797469 -29.39241,-6.531646 z"
     id="path20"
     inkscape:connector-curvature="0" />
  <path
     style="fill:#000000;stroke:none;stroke-width:1px;stroke-linecap:butt;stroke-linejoin:miter;stroke-opacity:1;fill-opacity:1"
     d="m 37.23038,88.83038 c 0,0 11.756962,-1.959494 25.473417,1.306329 13.716456,3.265823 24.820254,-7.837975 60.091143,-15.022785 35.27088,-7.18481 99.28101,-24.820253 103.2,-23.513924 3.91898,1.306329 20.2481,2.612658 21.55443,7.18481 1.30633,4.572152 0.65316,7.18481 0.65316,10.450633 0,3.265823 -60.7443,-1.306329 -61.39747,1.306329 C 186.1519,73.15443 90.789873,91.443038 94.055696,94.055696 97.321519,96.668354 58.131646,109.73165 60.091139,111.69114 62.050633,113.65063 32.005063,89.483544 37.23038,88.83038 Z"
     id="path22"
     inkscape:connector-curvature="0" />
  <path
     style="fill:#000000;stroke:none;stroke-width:1px;stroke-linecap:butt;stroke-linejoin:miter;stroke-opacity:1;fill-opacity:1"
     d="m 90.136709,126.71392 c 0,0 0,6.53165 3.265823,9.79747 3.265822,3.26583 15.675948,15.67595 15.675948,15.67595 0,0 9.79747,6.53165 9.79747,10.45063 0,3.91899 -5.22532,18.28861 1.95949,18.28861 7.18481,0 7.18481,7.18481 9.79747,-3.91899 2.61266,-11.10379 1.9595,-15.02278 -0.65316,-18.2886 -2.61266,-3.26583 -37.883547,-41.14937 -39.843041,-32.00507 z"
     id="path24"
     inkscape:connector-curvature="0" />
  <path
     style="fill:#000000;stroke:none;stroke-width:1px;stroke-linecap:butt;stroke-linejoin:miter;stroke-opacity:1;fill-opacity:1"
     d="m 173.08861,94.708861 c 0,0 -1.9595,7.184809 -0.65317,11.103799 1.30633,3.91899 -3.26582,25.47342 -4.57215,27.43291 -1.30633,1.95949 -6.53164,32.65823 -6.53164,32.65823 0,0 9.1443,5.22531 10.45063,-1.30633 1.30633,-6.53165 20.2481,-30.69874 20.2481,-35.27089 0,-4.57215 6.53165,-18.94177 3.26582,-20.2481 -3.26582,-1.30633 -22.86076,-20.2481 -22.20759,-14.369619 z"
     id="path26"
     inkscape:connector-curvature="0" />
  <path
     style="fill:#000000;stroke:none;stroke-width:1px;stroke-linecap:butt;stroke-linejoin:miter;stroke-opacity:1;fill-opacity:1"
     d="m 62.703797,189.41772 c 0,0 112.997473,-30.69873 119.529113,-28.08607 6.53165,2.61265 17.63544,3.91898 14.36962,7.83797 -3.26582,3.91899 -25.47342,4.57215 -25.47342,4.57215 0,0 -86.870882,27.43291 -82.951895,30.69874 3.918988,3.26582 -19.594937,13.06329 -25.473418,-15.02279 z"
     id="path28"
     inkscape:connector-curvature="0" />
  <path
     style="fill:#000000;stroke:none;stroke-width:1px;stroke-linecap:butt;stroke-linejoin:miter;stroke-opacity:1;fill-opacity:1"
     d="m 6.5316456,256.69367 c 0,0 167.8632944,-42.4557 176.3544344,-41.14937 8.49114,1.30633 13.71645,-8.49114 24.82025,-3.91898 11.1038,4.57215 17.63544,3.26582 15.67595,9.79746 -1.9595,6.53165 2.61266,7.18481 -15.02279,5.22532 -17.63544,-1.95949 -64.66329,4.57215 -96.66835,13.71646 -32.005064,9.1443 -74.46076,22.20759 -79.686077,26.12658 -5.225316,3.91899 -28.7392402,-2.61266 -25.4734174,-9.79747 z"
     id="path30"
     inkscape:connector-curvature="0" />
  <path
     style="fill:#000000;stroke:none;stroke-width:1px;stroke-linecap:butt;stroke-linejoin:miter;stroke-opacity:1;fill-opacity:1"
     d="m 67.275949,278.2481 c 0,0 -9.144303,26.12658 -9.144303,30.04557 0,3.91899 -5.225317,16.98228 -0.653165,20.2481 4.572152,3.26582 10.450633,13.71646 15.675949,0.65317 5.225317,-13.06329 0.653165,-56.17216 -5.878481,-50.94684 z"
     id="path32"
     inkscape:connector-curvature="0" />
  <path
     style="fill:#000000;stroke:none;stroke-width:1px;stroke-linecap:butt;stroke-linejoin:miter;stroke-opacity:1;fill-opacity:1"
     d="m 185.49873,273.67595 c 4.57216,19.59494 12.41013,41.14937 12.41013,41.14937 0,0 7.18481,11.75696 9.79747,9.79746 2.61266,-1.95949 14.36962,6.53165 11.1038,-5.22531 -3.26583,-11.75696 -30.69874,-53.5595 -33.3114,-45.72152 z"
     id="path34"
     inkscape:connector-curvature="0" />
  <path
     style="fill:#000000;stroke:none;stroke-width:1px;stroke-linecap:butt;stroke-linejoin:miter;stroke-opacity:1;fill-opacity:1"
     d="m 122.14177,193.33671 c 0,0 34.61772,16.98228 32.00507,18.28861 -2.61266,1.30633 -5.87849,47.68101 -4.57216,55.51898 1.30633,7.83798 -1.95949,80.99241 -1.95949,80.99241 0,0 -6.53165,38.53671 -13.71646,37.88354 -7.18481,-0.65316 -24.16708,-45.72152 -24.16708,-45.72152 l 14.36962,-0.65316 c 0,0 5.22531,-0.65316 8.49114,-14.36962 3.26582,-13.71646 7.83797,-88.17722 5.22531,-88.83038 -2.61266,-0.65316 -6.53164,-47.02785 -15.67595,-43.10886 z"
     id="path36"
     inkscape:connector-curvature="0" />
  <path
     style="fill:#000000;stroke:none;stroke-width:1px;stroke-linecap:butt;stroke-linejoin:miter;stroke-opacity:1;fill-opacity:1"
     d="m 327.88861,36.577215 c 0,0 0,15.67595 2.61266,18.288608 2.61265,2.612658 -30.04557,64.010127 -38.53671,58.784807 -8.49114,-5.22531 -0.65317,9.79747 2.61266,9.14431 3.26582,-0.65317 44.41519,-30.045573 44.41519,-30.045573 l 24.16708,-13.063291 c 0,0 -10.45063,-35.270886 -16.32911,-35.270886 -5.87848,0 -19.59494,-15.675949 -18.94177,-7.837975 z"
     id="path38"
     inkscape:connector-curvature="0" />
  <path
     style="fill:#000000;stroke:none;stroke-width:1px;stroke-linecap:butt;stroke-linejoin:miter;stroke-opacity:1;fill-opacity:1"
     d="m 237.7519,109.73165 c 0,0 22.86076,1.30632 26.12658,3.91898 3.26582,2.61266 13.06329,16.32912 14.36962,20.90127 1.30633,4.57215 -1.30633,57.47848 -5.22532,97.32152 -3.91898,39.84304 -10.45063,91.44304 -14.36962,92.74936 -3.91898,1.30633 -22.20759,30.69874 -22.20759,30.69874 l -27.43291,8.49114 16.98228,-19.59494 c 0,0 17.63544,-8.49114 27.43291,-60.7443 9.79747,-52.25317 13.71645,-114.95696 9.79747,-126.71393 -3.91899,-11.75696 -1.30633,-24.82025 -11.1038,-28.73924 -9.79747,-3.91898 -22.86076,-11.10379 -19.59494,-11.10379 3.26583,0 -1.30633,-10.45064 5.22532,-7.18481 z"
     id="path40"
     inkscape:connector-curvature="0" />
  <path
     style="fill:#000000;stroke:none;stroke-width:1px;stroke-linecap:butt;stroke-linejoin:miter;stroke-opacity:1;fill-opacity:1"
     d="m 255.38734,182.23291 c 0,0 26.77975,-3.26582 35.92405,-4.57215 9.14431,-1.30633 98.62785,-24.82025 98.62785,-24.82025 0,0 16.32911,-7.83798 23.51392,-9.79747 7.18481,-1.9595 38.53671,21.55443 38.53671,21.55443 l -5.22531,5.22531 c 0,0 -65.31646,-9.79746 -71.19494,-1.30632 -5.87848,8.49113 -44.41519,0 -68.58228,18.2886 -24.16709,18.28861 -24.82025,20.90127 -24.82025,20.90127 0,0 -31.3519,-15.67595 -26.77975,-25.47342 z"
     id="path42"
     inkscape:connector-curvature="0" />
  <path
     style="fill:#000000;stroke:none;stroke-width:1px;stroke-linecap:butt;stroke-linejoin:miter;stroke-opacity:1;fill-opacity:1"
     d="m 338.99241,195.94937 c 0,0 27.43291,12.41012 25.47341,20.2481 -1.95949,7.83797 15.67595,-2.61266 3.26583,19.59494 C 355.32152,258 360.54684,259.30633 361.2,271.06329 c 0.65316,11.75696 -3.91899,180.92658 0.65316,180.92658 4.57216,0 5.87849,39.18988 5.87849,39.18988 0,0 -7.18481,18.2886 -9.79747,18.2886 -2.61266,0 -39.18988,-40.4962 -31.3519,-46.37468 7.83797,-5.87848 15.67595,0.65317 15.67595,0.65317 0,0 9.79747,-69.88861 7.83797,-124.75443 -1.95949,-54.86583 -7.18481,-73.8076 -7.83797,-81.64557 -0.65317,-7.83798 6.53164,-30.69874 5.87848,-39.18988 -0.65317,-8.49114 -9.1443,-22.20759 -9.1443,-22.20759 z"
     id="path44"
     inkscape:connector-curvature="0" />
</svg>
