<?xml version="1.0" encoding="UTF-8" standalone="no"?>
<!-- Created with Inkscape (http://www.inkscape.org/) -->

<svg
   xmlns:dc="http://purl.org/dc/elements/1.1/"
   xmlns:cc="http://creativecommons.org/ns#"
   xmlns:rdf="http://www.w3.org/1999/02/22-rdf-syntax-ns#"
   xmlns:svg="http://www.w3.org/2000/svg"
   xmlns="http://www.w3.org/2000/svg"
   xmlns:sodipodi="http://sodipodi.sourceforge.net/DTD/sodipodi-0.dtd"
   xmlns:inkscape="http://www.inkscape.org/namespaces/inkscape"
   version="1.1"
   id="svg10"
   width="512"
   height="512"
   viewBox="0 0 512 512"
   sodipodi:docname="敦.svg"
   inkscape:version="0.92.4 (5da689c313, 2019-01-14)">
  <metadata
     id="metadata16">
    <rdf:RDF>
      <cc:Work
         rdf:about="">
        <dc:format>image/svg+xml</dc:format>
        <dc:type
           rdf:resource="http://purl.org/dc/dcmitype/StillImage" />
        <dc:title></dc:title>
      </cc:Work>
    </rdf:RDF>
  </metadata>
  <defs
     id="defs14" />
  <sodipodi:namedview
     pagecolor="#ffffff"
     bordercolor="#666666"
     borderopacity="1"
     objecttolerance="10"
     gridtolerance="10"
     guidetolerance="10"
     inkscape:pageopacity="0"
     inkscape:pageshadow="2"
     inkscape:window-width="1920"
     inkscape:window-height="1017"
     id="namedview12"
     showgrid="false"
     inkscape:zoom="1.5429688"
     inkscape:cx="150.68355"
     inkscape:cy="256"
     inkscape:window-x="-8"
     inkscape:window-y="-8"
     inkscape:window-maximized="1"
     inkscape:current-layer="svg10" />
  <path
     style="fill:#000000;stroke:none;stroke-width:1px;stroke-linecap:butt;stroke-linejoin:miter;stroke-opacity:1;fill-opacity:1"
     d="m 119.89873,67.402532 c 0,0 2.59241,8.425316 6.48102,9.073417 3.8886,0.648102 15.55443,10.369621 15.55443,10.369621 0,0 12.96202,16.20253 12.96202,19.44304 0,3.2405 0.6481,12.31392 3.24051,11.66582 2.5924,-0.6481 10.36962,-4.53671 11.01772,-12.31392 0.6481,-7.777219 4.53671,-18.146839 1.9443,-18.79494 -2.5924,-0.648102 -17.49873,-16.850633 -20.09114,-16.850633 -2.5924,0 -31.75696,-7.129114 -31.10886,-2.592405 z"
     id="path20"
     inkscape:connector-curvature="0" />
  <path
     style="fill:#000000;stroke:none;stroke-width:1px;stroke-linecap:butt;stroke-linejoin:miter;stroke-opacity:1;fill-opacity:1"
     d="m 58.977215,125.73165 -1.944304,6.48101 c 0,0 3.888608,3.2405 5.832912,8.42531 1.944304,5.18481 2.592405,14.25823 2.592405,14.25823 0,0 6.481013,0 16.202531,-3.2405 9.721519,-3.24051 67.402531,-20.09114 80.364561,-19.44304 12.96202,0.6481 44.71898,-7.77722 47.31139,-9.07342 2.5924,-1.2962 33.70126,0.6481 33.70126,0.6481 0,0 23.97975,1.94431 24.62785,-1.9443 0.6481,-3.88861 4.53671,-9.72152 0,-11.01772 -4.53671,-1.29621 -25.92405,-9.72152 -25.92405,-9.72152 0,0 -25.27595,6.48101 -30.46076,7.77721 -5.18481,1.29621 -136.749364,18.14684 -135.453162,22.03545 1.296203,3.8886 -16.850633,-5.18481 -16.850633,-5.18481 z"
     id="path22"
     inkscape:connector-curvature="0" />
  <path
     style="fill:#000000;stroke:none;stroke-width:1px;stroke-linecap:butt;stroke-linejoin:miter;stroke-opacity:1;fill-opacity:1"
     d="m 93.974684,163.96962 c 0,0 12.313926,27.86835 15.554426,27.22025 3.24051,-0.6481 5.83292,27.86836 5.83292,27.86836 0,0 -6.48102,24.62785 -7.77722,30.46076 -1.2962,5.83291 3.24051,27.22025 3.24051,27.22025 l 6.48101,13.61013 c 0,0 5.83291,-10.36962 5.83291,-12.96203 0,-2.5924 1.9443,-50.5519 5.83291,-49.9038 3.88861,0.64811 2.59241,-27.86835 1.94431,-31.75696 -0.64811,-3.88861 -12.96203,-20.09114 -15.55443,-20.73924 -2.59241,-0.6481 -21.387346,-11.01772 -21.387346,-11.01772 z"
     id="path24"
     inkscape:connector-curvature="0" />
  <path
     style="fill:#000000;stroke:none;stroke-width:1px;stroke-linecap:butt;stroke-linejoin:miter;stroke-opacity:1;fill-opacity:1"
     d="m 177.57975,122.49114 11.01772,18.79494 -16.20253,145.17468 1.2962,16.20253 7.77721,8.42532 5.83292,-20.09114 23.33164,-12.96203 20.73924,-7.77721 c 0,0 -2.5924,-16.20253 -5.83291,-18.14684 -3.24051,-1.9443 -13.61013,-9.72152 -13.61013,-9.72152 0,0 -15.55443,-1.2962 -14.25822,5.18481 1.2962,6.48102 4.5367,11.01773 1.9443,11.01773 -2.59241,0 -1.9443,1.9443 -6.48101,0.6481 -4.53671,-1.29621 -8.42532,-6.48102 -9.07342,-12.31393 -0.6481,-5.83291 7.77721,-41.47848 7.77721,-46.66329 0,-5.18481 0.64811,-21.38734 3.88861,-27.22025 3.24051,-5.83291 11.01772,-31.10886 11.01772,-31.10886 0,0 -11.01772,-24.62785 -15.55443,-23.33165 -4.53671,1.2962 -13.61012,3.88861 -13.61012,3.88861 z"
     id="path26"
     inkscape:connector-curvature="0" />
  <path
     style="fill:#000000;stroke:none;stroke-width:1px;stroke-linecap:butt;stroke-linejoin:miter;stroke-opacity:1;fill-opacity:1"
     d="m 40.182278,298.12658 -0.648101,10.36962 c 0,0 9.073418,10.36962 13.610127,14.25823 4.536709,3.88861 12.962025,13.61013 15.55443,12.96203 2.592405,-0.64811 36.941776,-20.09114 36.941776,-20.09114 l 74.53164,-54.44051 -0.6481,-7.12911 c 0,0 -42.12658,31.75696 -46.01519,31.75696 -3.88861,0 -73.883544,33.05316 -77.12405,25.92405 -3.240506,-7.12912 -14.258228,-17.49874 -16.202532,-13.61013 z"
     id="path28"
     inkscape:connector-curvature="0" />
  <path
     style="fill:#000000;stroke:none;stroke-width:1px;stroke-linecap:butt;stroke-linejoin:miter;stroke-opacity:1;fill-opacity:1"
     d="m 134.15696,313.03291 c 0,0 11.66582,18.14684 14.25823,18.14684 2.5924,0 18.79494,14.90633 18.79494,14.90633 0,0 4.53671,14.25822 3.8886,20.09114 -0.6481,5.83291 -6.48101,51.8481 -11.01772,53.1443 -4.53671,1.2962 -17.49873,20.09114 -22.03544,20.09114 -4.53671,0 -23.33165,3.88861 -20.73924,3.88861 2.5924,0 7.12911,18.79493 11.01772,18.79493 3.88861,0 13.61013,11.01772 16.85063,5.18481 3.24051,-5.83291 19.44304,-27.86835 22.03545,-35.64557 2.5924,-7.77721 24.62784,-55.0886 22.68354,-57.68101 -1.9443,-2.5924 -0.6481,-27.22025 -3.24051,-29.16456 -2.5924,-1.9443 -19.44303,-33.05316 -30.46075,-30.46076 -11.01773,2.59241 -15.55444,-8.42531 -19.44304,-1.9443 -3.88861,6.48101 -2.59241,0.6481 -2.59241,0.6481 z"
     id="path30"
     inkscape:connector-curvature="0" />
  <path
     style="fill:#000000;stroke:none;stroke-width:1px;stroke-linecap:butt;stroke-linejoin:miter;stroke-opacity:1;fill-opacity:1"
     d="m 28.516456,382.37975 h 9.073417 l 93.974687,-28.51646 40.18228,-12.96202 1.9443,7.77721 -23.97975,12.31393 -93.32658,51.2 c 0,0 -40.83038,-18.79494 -27.868354,-29.81266 z"
     id="path32"
     inkscape:connector-curvature="0" />
  <path
     style="fill:#000000;stroke:none;stroke-width:1px;stroke-linecap:butt;stroke-linejoin:miter;stroke-opacity:1;fill-opacity:1"
     d="m 300.71899,132.21266 12.96202,16.20253 3.24051,24.62785 c 0,0 -20.09114,58.32911 -23.97975,58.97721 -3.88861,0.6481 -29.81266,20.73924 -32.40506,16.85064 -2.59241,-3.88861 11.66582,7.77721 11.66582,7.77721 l 22.68355,-7.12911 c 0,0 13.61012,-12.96203 19.44303,-27.86836 5.83292,-14.90633 22.68355,-57.68101 22.68355,-57.68101 0,0 7.77721,0 5.18481,-7.12911 -2.59241,-7.12912 -16.20253,-25.27595 -24.62785,-24.62785 -8.42532,0.6481 -16.20253,-7.12912 -16.85063,0 z"
     id="path34"
     inkscape:connector-curvature="0" />
  <path
     style="fill:#000000;stroke:none;stroke-width:1px;stroke-linecap:butt;stroke-linejoin:miter;stroke-opacity:1;fill-opacity:1"
     d="m 315.62532,240.44557 c 29.16455,-9.72152 41.47848,-14.25823 41.47848,-14.25823 0,0 5.18481,-7.77721 8.42531,-7.77721 3.24051,0 59.62532,-2.59241 59.62532,-2.59241 0,0 6.48101,-1.9443 6.48101,1.94431 0,3.8886 5.18481,6.48101 0,8.42531 -5.18481,1.94431 -38.88607,8.42532 -42.77468,9.07342 -3.88861,0.6481 -42.12658,14.90633 -42.12658,14.90633 0,0 -25.92405,6.48101 -31.10886,-9.72152 z"
     id="path36"
     inkscape:connector-curvature="0" />
  <path
     style="fill:#000000;stroke:none;stroke-width:1px;stroke-linecap:butt;stroke-linejoin:miter;stroke-opacity:1;fill-opacity:1"
     d="m 243.03797,279.97975 c 3.24051,0 20.73925,8.42531 20.73925,8.42531 0,0 96.56708,83.60507 98.51139,83.60507 1.9443,0 134.15696,66.75443 137.39747,55.73671 3.2405,-11.01773 7.77721,4.5367 7.77721,4.5367 0,0 -82.95696,8.42532 -87.49367,9.07342 -4.53671,0.6481 -26.57215,1.94431 -29.16456,-6.48101 -2.5924,-8.42532 -120.54683,-124.43544 -120.54683,-124.43544 l -33.70127,-22.03545 c 0,0 -1.9443,-12.31392 6.48101,-8.42531 z"
     id="path38"
     inkscape:connector-curvature="0" />
  <path
     style="fill:#000000;stroke:none;stroke-width:1px;stroke-linecap:butt;stroke-linejoin:miter;stroke-opacity:1;fill-opacity:1"
     d="m 345.43797,268.96203 -18.14683,59.62531 -13.61013,34.99747 c 0,0 -29.16455,37.58987 -34.34936,39.53418 -5.18481,1.9443 -73.23545,32.40506 -82.95697,24.62785 -9.72152,-7.77722 -40.83038,0 -45.36709,-3.88861 -4.5367,-3.88861 66.75444,23.97974 77.77216,18.79493 11.01772,-5.18481 66.75443,-18.79493 70.64303,-29.16455 3.88861,-10.36962 47.9595,-75.82785 47.9595,-82.95696 0,-7.12912 19.44304,-34.99747 19.44304,-34.99747 l 7.12911,-5.18481 z"
     id="path42"
     inkscape:connector-curvature="0" />
  <path
     style="fill:#000000;stroke:none;stroke-width:1px;stroke-linecap:butt;stroke-linejoin:miter;stroke-opacity:1;fill-opacity:1"
     d="m 117.95443,187.30128 31.10886,-12.31393 13.61012,5.83291 -3.2405,5.83292 -38.23798,7.77721 z"
     id="path10258"
     inkscape:connector-curvature="0" />
  <path
     style="fill:#000000;stroke:none;stroke-width:1px;stroke-linecap:butt;stroke-linejoin:miter;stroke-opacity:1;fill-opacity:1"
     d="m 121.19493,230.07596 31.75696,-9.07342 7.77722,3.24051 c 0,0 3.2405,3.8886 -1.94431,9.07341 -5.1848,5.18481 -9.72151,9.07342 -13.61012,7.77722 -3.88861,-1.2962 -22.68354,-7.12911 -23.97975,-11.01772 z"
     id="path10260"
     inkscape:connector-curvature="0" />
</svg>
