<?xml version="1.0" encoding="UTF-8" standalone="no"?>
<!-- Created with Inkscape (http://www.inkscape.org/) -->

<svg
   xmlns:dc="http://purl.org/dc/elements/1.1/"
   xmlns:cc="http://creativecommons.org/ns#"
   xmlns:rdf="http://www.w3.org/1999/02/22-rdf-syntax-ns#"
   xmlns:svg="http://www.w3.org/2000/svg"
   xmlns="http://www.w3.org/2000/svg"
   xmlns:sodipodi="http://sodipodi.sourceforge.net/DTD/sodipodi-0.dtd"
   xmlns:inkscape="http://www.inkscape.org/namespaces/inkscape"
   version="1.1"
   id="svg10"
   width="512"
   height="512"
   viewBox="0 0 512 512"
   sodipodi:docname="稅.svg"
   inkscape:version="0.92.4 (5da689c313, 2019-01-14)">
  <metadata
     id="metadata16">
    <rdf:RDF>
      <cc:Work
         rdf:about="">
        <dc:format>image/svg+xml</dc:format>
        <dc:type
           rdf:resource="http://purl.org/dc/dcmitype/StillImage" />
        <dc:title></dc:title>
      </cc:Work>
    </rdf:RDF>
  </metadata>
  <defs
     id="defs14" />
  <sodipodi:namedview
     pagecolor="#ffffff"
     bordercolor="#666666"
     borderopacity="1"
     objecttolerance="10"
     gridtolerance="10"
     guidetolerance="10"
     inkscape:pageopacity="0"
     inkscape:pageshadow="2"
     inkscape:window-width="1920"
     inkscape:window-height="1017"
     id="namedview12"
     showgrid="false"
     inkscape:zoom="1.5429688"
     inkscape:cx="150.68355"
     inkscape:cy="256"
     inkscape:window-x="-8"
     inkscape:window-y="-8"
     inkscape:window-maximized="1"
     inkscape:current-layer="svg10" />
  <path
     style="fill:#000000;stroke:none;stroke-width:1px;stroke-linecap:butt;stroke-linejoin:miter;stroke-opacity:1;fill-opacity:1"
     d="m 143.23038,20.739241 2.5924,16.202531 c 0,0 -44.71898,35.64557 -52.496198,34.349367 -7.777215,-1.296202 26.572148,-0.648101 42.126578,-7.129114 15.55443,-6.481012 35.64557,-8.425316 33.70127,-12.962025 -1.9443,-4.536709 -1.9443,-12.962025 -7.77721,-18.146835 -5.83292,-5.184811 -14.90633,-14.258228 -18.14684,-12.313924 z"
     id="path20"
     inkscape:connector-curvature="0" />
  <path
     style="fill:#000000;stroke:none;stroke-width:1px;stroke-linecap:butt;stroke-linejoin:miter;stroke-opacity:1;fill-opacity:1"
     d="m 1.9443038,167.21013 163.3215162,-57.03291 25.27595,-8.42532 5.83291,12.31392 -97.215186,26.57215 c 0,0 -40.83038,17.49874 -49.903798,23.33165 -9.073418,5.83291 -36.941772,21.38734 -36.941772,21.38734 0,0 -24.627848,-12.96202 -10.3696202,-18.14683 z"
     id="path22"
     inkscape:connector-curvature="0" />
  <path
     style="fill:#000000;stroke:none;stroke-width:1px;stroke-linecap:butt;stroke-linejoin:miter;stroke-opacity:1;fill-opacity:1"
     d="m 111.47342,95.918987 7.77721,20.091143 c 0,0 2.59241,-6.48102 3.24051,22.03544 0.6481,28.51646 3.24051,72.58734 1.9443,77.77215 -1.2962,5.18481 -15.55443,90.08608 -15.55443,90.08608 0,0 -11.017719,12.96202 -14.906326,6.48101 -3.888608,-6.48101 14.906326,49.9038 14.906326,49.9038 0,0 5.83291,-2.59241 11.01772,-5.18481 5.18481,-2.59241 9.72152,-184.70886 12.96203,-184.70886 3.24051,0 10.36962,-58.97722 17.49873,-63.51393 7.12912,-4.53671 -42.77468,-20.739238 -38.88607,-12.962023 z"
     id="path24"
     inkscape:connector-curvature="0" />
  <path
     style="fill:#000000;stroke:none;stroke-width:1px;stroke-linecap:butt;stroke-linejoin:miter;stroke-opacity:1;fill-opacity:1"
     d="m 119.89873,147.76709 c 0,0 -54.440502,74.53164 -56.384806,75.82785 -1.944304,1.2962 -25.275949,16.20253 -27.868354,14.90633 -2.592405,-1.29621 -4.536709,29.81265 -4.536709,29.81265 0,0 5.18481,7.12912 12.313924,1.29621 7.129114,-5.83291 100.455695,-89.43798 101.751895,-92.03038 1.29621,-2.59241 -0.6481,-8.42532 -0.6481,-8.42532 L 95.918987,203.5038 Z"
     id="path26"
     inkscape:connector-curvature="0" />
  <path
     style="fill:#000000;stroke:none;stroke-width:1px;stroke-linecap:butt;stroke-linejoin:miter;stroke-opacity:1;fill-opacity:1"
     d="m 258.59241,55.736709 1.2962,18.794937 0.6481,9.721519 -38.88608,48.607595 -26.57215,26.57215 v 8.42532 l 66.75443,-59.62532 14.25823,-9.721518 z"
     id="path28"
     inkscape:connector-curvature="0" />
  <path
     style="fill:#000000;stroke:none;stroke-width:1px;stroke-linecap:butt;stroke-linejoin:miter;stroke-opacity:1;fill-opacity:1"
     d="m 356.4557,39.534177 c 3.2405,2.592405 47.31139,46.01519 47.31139,46.01519 0,0 24.62785,31.756963 27.86835,25.275953 3.24051,-6.48102 6.48102,-19.443042 1.29621,-25.275953 -5.18481,-5.832911 -72.58735,-55.736709 -72.58735,-51.2 0,4.536709 -3.8886,5.18481 -3.8886,5.18481 z"
     id="path30"
     inkscape:connector-curvature="0" />
  <path
     style="fill:#000000;stroke:none;stroke-width:1px;stroke-linecap:butt;stroke-linejoin:miter;stroke-opacity:1;fill-opacity:1"
     d="m 298.12658,123.78734 c 3.88861,0 3.88861,13.61013 3.88861,13.61013 0,0 -49.2557,61.56962 -53.1443,62.21772 -3.88861,0.6481 -33.05317,11.01772 -31.75697,5.83291 1.29621,-5.18481 3.88861,27.22025 7.12912,28.51646 3.2405,1.2962 28.51645,-2.59241 29.81266,-10.36962 1.2962,-7.77722 68.05063,-30.46076 71.93924,-33.70127 3.8886,-3.24051 25.92405,-17.49873 25.92405,-17.49873 l -72.58734,20.73924 38.88607,-47.9595 7.12912,-9.07341 -24.62785,-16.85064 -3.24051,8.42532 z"
     id="path32"
     inkscape:connector-curvature="0" />
  <path
     style="fill:#000000;stroke:none;stroke-width:1px;stroke-linecap:butt;stroke-linejoin:miter;stroke-opacity:1;fill-opacity:1"
     d="m 364.88101,128.97215 -13.61012,3.88861 c 0,0 -7.12912,13.61013 -7.77722,16.20253 -0.6481,2.59241 -26.57215,48.6076 -31.75696,57.68101 -5.18481,9.07342 -81.66076,105.64051 -81.66076,105.64051 L 216.46582,307.2 196.37468,341.54937 c 0,0 -16.20253,28.51645 -14.25822,31.10886 1.9443,2.5924 7.12911,3.88861 7.12911,3.88861 0,0 18.14684,-11.01773 21.38734,-18.14684 3.24051,-7.12911 23.97975,-32.40506 23.97975,-32.40506 0,0 68.05063,-86.19747 69.34683,-88.78988 1.29621,-2.5924 18.14684,-36.29367 18.14684,-36.29367 l 32.40506,-55.08861 c 0,0 3.24051,-5.18481 6.48102,-1.9443 3.2405,3.24051 4.5367,-14.90633 3.8886,-14.90633 z"
     id="path34"
     inkscape:connector-curvature="0" />
  <path
     style="fill:#000000;stroke:none;stroke-width:1px;stroke-linecap:butt;stroke-linejoin:miter;stroke-opacity:1;fill-opacity:1"
     d="m 349.32658,211.92911 -23.97974,75.82785 c 0,0 -3.88861,25.92405 -0.64811,31.10886 3.24051,5.18481 6.48102,18.79494 35.64557,34.99747 29.16456,16.20253 148.41519,1.9443 148.41519,1.9443 0,0 7.12912,-31.75696 4.53671,-36.29367 -2.5924,-4.5367 -18.14683,-35.64557 -22.03544,-34.34936 -3.88861,1.2962 -8.42532,3.8886 -6.48101,15.55443 1.9443,11.66582 -7.12912,36.94177 -7.12912,36.94177 l -7.12911,7.77721 -76.47595,1.94431 c 0,0 -46.66329,-3.24051 -46.01519,-12.96203 0.6481,-9.72152 -15.55443,-0.6481 -12.96203,-25.92405 2.59241,-25.27595 22.68355,-57.68101 22.68355,-57.68101 l 9.72152,-7.77722 c 0,0 -10.36962,-35.64556 -18.14684,-31.10886 z"
     id="path36"
     inkscape:connector-curvature="0" />
</svg>
