<?xml version="1.0" encoding="UTF-8" standalone="no"?>
<!-- Created with Inkscape (http://www.inkscape.org/) -->

<svg
   xmlns:dc="http://purl.org/dc/elements/1.1/"
   xmlns:cc="http://creativecommons.org/ns#"
   xmlns:rdf="http://www.w3.org/1999/02/22-rdf-syntax-ns#"
   xmlns:svg="http://www.w3.org/2000/svg"
   xmlns="http://www.w3.org/2000/svg"
   xmlns:sodipodi="http://sodipodi.sourceforge.net/DTD/sodipodi-0.dtd"
   xmlns:inkscape="http://www.inkscape.org/namespaces/inkscape"
   version="1.1"
   id="svg10"
   width="512"
   height="512"
   viewBox="0 0 512 512"
   sodipodi:docname="素.svg"
   inkscape:version="0.92.4 (5da689c313, 2019-01-14)">
  <metadata
     id="metadata16">
    <rdf:RDF>
      <cc:Work
         rdf:about="">
        <dc:format>image/svg+xml</dc:format>
        <dc:type
           rdf:resource="http://purl.org/dc/dcmitype/StillImage" />
        <dc:title></dc:title>
      </cc:Work>
    </rdf:RDF>
  </metadata>
  <defs
     id="defs14" />
  <sodipodi:namedview
     pagecolor="#ffffff"
     bordercolor="#666666"
     borderopacity="1"
     objecttolerance="10"
     gridtolerance="10"
     guidetolerance="10"
     inkscape:pageopacity="0"
     inkscape:pageshadow="2"
     inkscape:window-width="1920"
     inkscape:window-height="1017"
     id="namedview12"
     showgrid="false"
     inkscape:zoom="1.5429688"
     inkscape:cx="150.68355"
     inkscape:cy="256"
     inkscape:window-x="-8"
     inkscape:window-y="-8"
     inkscape:window-maximized="1"
     inkscape:current-layer="svg10" />
  <path
     style="fill:#000000;stroke:none;stroke-width:1px;stroke-linecap:butt;stroke-linejoin:miter;stroke-opacity:1;fill-opacity:1"
     d="m 77.124051,74.531646 c 0,0 11.017721,18.146835 14.258227,20.091139 3.240507,1.944304 26.572152,-5.18481 26.572152,-5.18481 l 20.09114,-12.962026 28.51646,-1.296202 37.58987,-10.36962 66.75443,-6.481013 9.07342,-9.073418 c 0,0 -3.24051,-8.425316 -9.72152,-9.721519 -6.48101,-1.296202 -30.46076,-5.18481 -30.46076,-5.18481 l -21.38734,10.36962 -55.08861,16.850633 -76.47595,9.721519 z"
     id="path20"
     inkscape:connector-curvature="0" />
  <path
     style="fill:#000000;stroke:none;stroke-width:1px;stroke-linecap:butt;stroke-linejoin:miter;stroke-opacity:1;fill-opacity:1"
     d="m 82.308861,135.45316 -1.296203,13.61013 c 0,0 7.777215,7.12912 13.610127,9.72152 5.832915,2.59241 9.721515,10.36962 13.610125,5.18481 3.88861,-5.18481 25.92405,-15.55443 25.92405,-15.55443 l 32.40507,-9.72152 52.4962,-12.31392 c 0,0 14.25823,-6.48102 10.36962,-8.42532 -3.88861,-1.9443 -10.36962,-3.88861 -10.36962,-3.88861 l -32.40507,5.18481 -35.64557,7.77722 -7.12911,-2.59241 -9.72152,7.12912 -36.94177,7.12911 -13.610127,-0.6481 z"
     id="path22"
     inkscape:connector-curvature="0" />
  <path
     style="fill:#000000;stroke:none;stroke-width:1px;stroke-linecap:butt;stroke-linejoin:miter;stroke-opacity:1;fill-opacity:1"
     d="m -2.5924051,209.33671 27.8683541,19.44304 c 0,0 40.182279,-15.55443 47.311393,-19.44304 7.129114,-3.88861 66.754428,-25.27595 71.939238,-23.33165 5.18481,1.94431 64.81013,-16.20253 71.93924,-9.72152 7.12912,6.48102 77.77215,-9.72151 110.82532,0.64811 33.05316,10.36962 50.5519,14.90632 50.5519,14.90632 0,0 5.83291,5.18481 4.53671,-1.2962 -1.29621,-6.48101 2.5924,-9.72152 -1.94431,-11.66582 -4.53671,-1.9443 -43.42278,-24.62785 -46.66329,-24.62785 -3.2405,0 -29.16456,4.53671 -31.75696,4.53671 -2.59241,0 -107.58481,4.53671 -109.52911,9.72152 -1.94431,5.18481 -110.177219,17.49873 -112.121523,20.73924 -1.944304,3.24051 -58.977215,14.25823 -58.977215,14.25823 z"
     id="path24"
     inkscape:connector-curvature="0" />
  <path
     style="fill:#000000;stroke:none;stroke-width:1px;stroke-linecap:butt;stroke-linejoin:miter;stroke-opacity:1;fill-opacity:1"
     d="m 145.82278,11.017722 c 0,0 10.36963,14.258227 14.25823,15.55443 3.88861,1.296202 11.01772,1.944304 11.01772,7.777215 0,5.832911 2.59241,18.146836 2.59241,18.146836 l 0.6481,40.830379 -8.42532,23.331648 -4.5367,39.53418 -7.77722,40.83037 -2.59241,14.90633 c 0,0 11.66583,1.94431 12.31393,-1.2962 0.6481,-3.2405 5.18481,-15.55443 5.18481,-15.55443 l 9.72152,-52.4962 c 0,0 10.36962,-40.18228 11.66582,-44.070888 1.2962,-3.888607 3.88861,-23.331645 3.88861,-23.331645 0,0 9.72152,-41.478481 6.48101,-42.126582 -3.24051,-0.648102 -15.55443,-20.09114 -15.55443,-20.09114 l -26.57215,-1.296202 z"
     id="path28"
     inkscape:connector-curvature="0" />
  <path
     style="fill:#000000;stroke:none;stroke-width:1px;stroke-linecap:butt;stroke-linejoin:miter;stroke-opacity:1;fill-opacity:1"
     d="m 138.04557,211.92911 c -40.182279,55.73671 -38.237975,55.73671 -38.237975,55.73671 l -33.701266,-2.5924 c 0,0 -3.240506,3.2405 -3.240506,6.48101 0,3.24051 5.832911,29.81266 5.832911,29.81266 l 24.627848,-11.66582 49.903798,-4.53671 20.73924,-11.01772 -1.2962,-5.83292 -16.85064,-0.6481 -32.40506,3.24051 L 153.6,226.83544 141.28608,211.92911 Z"
     id="path30"
     inkscape:connector-curvature="0" />
  <path
     style="fill:#000000;stroke:none;stroke-width:1px;stroke-linecap:butt;stroke-linejoin:miter;stroke-opacity:1;fill-opacity:1"
     d="m 203.5038,211.92911 c 0,0 0,11.66583 -8.42532,22.03545 -8.42532,10.36962 -93.32658,90.08607 -96.567088,89.43797 -3.240506,-0.6481 -16.850633,0 -16.850633,0 0,0 -3.888607,3.24051 -6.481012,5.18481 -2.592405,1.94431 -6.481013,5.83291 -3.888608,9.07342 2.592405,3.24051 6.481013,21.38734 11.017722,20.09114 4.536709,-1.2962 9.721519,5.83291 19.443039,-2.59241 9.72152,-8.42531 55.73671,-16.20253 55.73671,-16.20253 l 54.4405,-18.79493 c 0,0 24.62785,-18.79494 21.38735,-20.73925 -3.24051,-1.9443 -13.61013,-5.83291 -13.61013,-5.83291 0,0 -78.42025,26.57216 -90.73418,27.22026 -12.31392,0.6481 -14.90633,2.5924 -14.90633,2.5924 l 92.67848,-78.42025 14.90633,-3.24051 2.59241,-17.49873 c 0,0 -10.36962,-12.96203 -14.90633,-12.96203 -4.53671,0 -5.83291,0.6481 -5.83291,0.6481 z"
     id="path32"
     inkscape:connector-curvature="0" />
  <path
     style="fill:#000000;stroke:none;stroke-width:1px;stroke-linecap:butt;stroke-linejoin:miter;stroke-opacity:1;fill-opacity:1"
     d="m 214.52152,268.96203 10.36962,13.61012 c 0,0 5.18481,16.20253 10.36962,18.79494 5.18481,2.5924 17.49873,18.14683 17.49873,18.14683 0,0 7.12912,5.18481 7.77722,1.29621 0.6481,-3.88861 11.66582,-12.31393 7.12911,-15.55443 -4.53671,-3.24051 -27.86835,-34.34937 -33.05316,-32.40507 -5.18481,1.94431 -20.09114,-3.8886 -20.09114,-3.8886 z"
     id="path34"
     inkscape:connector-curvature="0" />
  <path
     style="fill:#000000;stroke:none;stroke-width:1px;stroke-linecap:butt;stroke-linejoin:miter;stroke-opacity:1;fill-opacity:1"
     d="m 157.48861,338.95696 c 0,0 6.48101,1.2962 6.48101,9.07342 0,7.77721 -0.6481,85.54937 -5.83291,87.49367 -5.18481,1.9443 -43.42279,-3.24051 -43.42279,-3.24051 l 35.64557,58.32912 c 0,0 0.6481,7.77721 9.72152,-1.94431 9.07342,-9.72151 16.20253,-31.10886 16.20253,-31.10886 l 3.88861,-93.97468 3.88861,-19.44304 c 0,0 -3.24051,-11.01772 -7.77722,-9.07342 -4.5367,1.94431 -18.79493,3.88861 -18.79493,3.88861 z"
     id="path36"
     inkscape:connector-curvature="0" />
  <path
     style="fill:#000000;stroke:none;stroke-width:1px;stroke-linecap:butt;stroke-linejoin:miter;stroke-opacity:1;fill-opacity:1"
     d="m 38.237975,381.73165 c 0,0 -18.146836,14.90632 -18.146836,18.79493 0,3.88861 -5.18481,31.75696 2.592405,40.18228 7.777215,8.42532 18.794937,-1.2962 18.794937,-1.2962 0,0 11.017722,-22.03544 7.129114,-24.62785 -3.888608,-2.5924 -9.073418,-0.6481 -9.073418,-0.6481 z"
     id="path38"
     inkscape:connector-curvature="0" />
  <path
     style="fill:#000000;stroke:none;stroke-width:1px;stroke-linecap:butt;stroke-linejoin:miter;stroke-opacity:1;fill-opacity:1"
     d="m 240.44557,375.25063 c 34.34937,81.66076 26.57215,57.68102 26.57215,57.68102 l 9.72152,22.68354 c 0,0 11.01772,2.5924 11.66582,-3.24051 0.6481,-5.83291 8.42532,-20.09114 5.83291,-23.97974 -2.5924,-3.88861 -20.73924,-32.40507 -20.73924,-32.40507 0,0 -31.10886,-25.27595 -33.05316,-20.73924 z"
     id="path40"
     inkscape:connector-curvature="0" />
</svg>
