<?xml version="1.0" encoding="UTF-8" standalone="no"?>
<!-- Created with Inkscape (http://www.inkscape.org/) -->

<svg
   xmlns:dc="http://purl.org/dc/elements/1.1/"
   xmlns:cc="http://creativecommons.org/ns#"
   xmlns:rdf="http://www.w3.org/1999/02/22-rdf-syntax-ns#"
   xmlns:svg="http://www.w3.org/2000/svg"
   xmlns="http://www.w3.org/2000/svg"
   xmlns:sodipodi="http://sodipodi.sourceforge.net/DTD/sodipodi-0.dtd"
   xmlns:inkscape="http://www.inkscape.org/namespaces/inkscape"
   version="1.1"
   id="svg10"
   width="511"
   height="512"
   viewBox="0 0 511 512"
   sodipodi:docname="貢.svg"
   inkscape:version="0.92.4 (5da689c313, 2019-01-14)">
  <metadata
     id="metadata16">
    <rdf:RDF>
      <cc:Work
         rdf:about="">
        <dc:format>image/svg+xml</dc:format>
        <dc:type
           rdf:resource="http://purl.org/dc/dcmitype/StillImage" />
        <dc:title></dc:title>
      </cc:Work>
    </rdf:RDF>
  </metadata>
  <defs
     id="defs14" />
  <sodipodi:namedview
     pagecolor="#ffffff"
     bordercolor="#666666"
     borderopacity="1"
     objecttolerance="10"
     gridtolerance="10"
     guidetolerance="10"
     inkscape:pageopacity="0"
     inkscape:pageshadow="2"
     inkscape:window-width="1920"
     inkscape:window-height="1017"
     id="namedview12"
     showgrid="false"
     inkscape:zoom="1.5429688"
     inkscape:cx="150.18355"
     inkscape:cy="256"
     inkscape:window-x="-8"
     inkscape:window-y="-8"
     inkscape:window-maximized="1"
     inkscape:current-layer="svg10" />
  <path
     style="fill:#000000;stroke:none;stroke-width:1px;stroke-linecap:butt;stroke-linejoin:miter;stroke-opacity:1;fill-opacity:1"
     d="m 137.39747,55.088608 c 0,0 8.42531,18.146835 11.66582,16.850633 3.24051,-1.296203 17.49874,9.721518 18.14684,6.481012 0.6481,-3.240506 29.16455,-16.850633 29.16455,-16.850633 L 227.48354,51.2 c 0,0 -1.2962,7.129114 -5.18481,17.498734 -3.8886,10.36962 -10.36962,23.979747 -11.66582,26.572152 -1.2962,2.592405 -1.9443,9.721524 1.2962,8.425314 3.24051,-1.2962 27.22026,-7.777213 31.75697,-11.017719 4.5367,-3.240506 11.01772,-38.237975 21.38734,-41.478481 10.36962,-3.240506 12.96202,-7.777215 12.96202,-7.777215 0,0 3.88861,-10.36962 0,-12.962026 C 274.14684,27.868354 270.90633,7.1291139 263.12911,8.4253165 255.3519,9.721519 236.55696,20.091139 221.00253,27.868354 205.4481,35.64557 167.21013,50.551899 152.3038,51.848101 c -14.90633,1.296203 -7.77722,-3.240506 -14.90633,3.240507 z"
     id="path20"
     inkscape:connector-curvature="0" />
  <path
     style="fill:#000000;stroke:none;stroke-width:1px;stroke-linecap:butt;stroke-linejoin:miter;stroke-opacity:1;fill-opacity:1"
     d="m 28.516456,130.91646 c 0,0 25.92405,-9.07342 30.460759,-7.77722 4.536709,1.2962 61.569625,-19.44304 66.754435,-17.49873 5.18481,1.9443 108.23291,-22.683548 168.50632,-20.739244 60.27342,1.944304 -3.8886,-14.906329 73.88355,-5.832912 77.77215,9.073418 58.97721,9.073418 62.86582,9.721519 3.88861,0.648102 23.97975,6.481013 23.33165,14.258227 -0.6481,7.77722 -0.6481,7.77722 -0.6481,7.77722 0,0 -3.88861,11.66582 -7.77722,9.72152 -3.88861,-1.94431 -72.58734,-29.164562 -77.12405,-23.33165 -4.53671,5.83291 11.01772,-6.481013 -73.23544,-4.536709 -84.25317,1.944304 -141.28608,14.258229 -141.28608,14.258229 0,0 -89.437973,32.40506 -90.734176,36.29367 -1.296202,3.88861 -14.906329,11.01772 -14.906329,11.01772 0,0 -9.721519,0 -9.721519,-2.5924 0,-2.59241 -10.36962,-20.73924 -10.36962,-20.73924 z"
     id="path22"
     inkscape:connector-curvature="0" />
  <path
     style="fill:#000000;stroke:none;stroke-width:1px;stroke-linecap:butt;stroke-linejoin:miter;stroke-opacity:1;fill-opacity:1"
     d="m 149.06329,146.47089 c 0,0 -3.24051,1.9443 -4.53671,7.77721 -1.2962,5.83291 5.18481,27.22025 5.18481,27.22025 0,0 7.12912,-1.9443 5.83291,22.03545 -1.2962,23.97974 -6.48101,87.49367 -11.01772,88.78987 -4.53671,1.2962 -5.18481,7.77722 -3.2405,10.36962 1.9443,2.59241 1.9443,12.31393 1.2962,17.49874 -0.6481,5.18481 7.77721,14.25822 7.77721,14.25822 0,0 7.77722,2.59241 10.36962,-9.72152 2.59241,-12.31392 5.18481,-27.86835 1.94431,-29.16455 -3.24051,-1.29621 6.48101,-111.47342 11.66582,-108.88102 5.18481,2.59241 3.88861,-12.31392 3.88861,-12.31392 z"
     id="path24"
     inkscape:connector-curvature="0" />
  <path
     style="fill:#000000;stroke:none;stroke-width:1px;stroke-linecap:butt;stroke-linejoin:miter;stroke-opacity:1;fill-opacity:1"
     d="m 184.70886,146.47089 c 0,0 4.53671,15.55443 9.72152,15.55443 5.18481,0 44.07089,-19.44304 51.8481,-16.85064 7.77722,2.59241 7.12911,-3.2405 12.31393,0 5.18481,3.24051 7.12911,2.59241 7.77721,17.49874 0.6481,14.90633 -1.9443,143.23038 0,145.17468 1.9443,1.94431 -6.48101,9.07342 -2.5924,14.25823 3.8886,5.18481 5.83291,23.33164 8.42531,27.86835 2.59241,4.53671 6.48101,7.12912 7.77722,5.83291 1.2962,-1.2962 11.01772,-167.85822 5.18481,-165.91392 -5.83291,1.9443 9.72152,-39.53418 8.42531,-38.88608 -1.2962,0.64811 -26.57215,-24.62784 -33.05316,-22.68354 -6.48101,1.9443 -71.93924,17.49873 -75.82785,18.14684 z"
     id="path26"
     inkscape:connector-curvature="0" />
  <path
     style="fill:#000000;stroke:none;stroke-width:1px;stroke-linecap:butt;stroke-linejoin:miter;stroke-opacity:1;fill-opacity:1"
     d="m 187.94937,201.55949 c 36.29367,-13.61012 32.40506,-14.90633 32.40506,-14.90633 0,0 13.61013,-1.2962 11.66582,3.24051 -1.9443,4.53671 -1.9443,8.42532 -9.72152,14.90633 -7.77721,6.48101 -15.55443,12.31392 -15.55443,12.31392 0,0 -11.66582,0.64811 -18.79493,-15.55443 z"
     id="path28"
     inkscape:connector-curvature="0" />
  <path
     style="fill:#000000;stroke:none;stroke-width:1px;stroke-linecap:butt;stroke-linejoin:miter;stroke-opacity:1;fill-opacity:1"
     d="m 180.17215,268.96203 c 0,0 18.79494,-14.25823 34.34937,-14.25823 15.55443,0 16.20253,9.72152 16.20253,9.72152 0,0 2.59241,-1.29621 -4.53671,5.18481 -7.12911,6.48101 -25.92405,12.96202 -29.16456,11.66582 -3.2405,-1.2962 -29.16455,-9.72152 -16.85063,-12.31392 z"
     id="path30"
     inkscape:connector-curvature="0" />
  <path
     style="fill:#000000;stroke:none;stroke-width:1px;stroke-linecap:butt;stroke-linejoin:miter;stroke-opacity:1;fill-opacity:1"
     d="m 99.807595,337.66076 73.883545,-18.14684 80.36456,-16.20253 c 0,0 16.20253,6.48102 14.25822,9.72152 -1.9443,3.24051 -117.95443,21.38734 -117.95443,21.38734 l -25.27595,17.49874 c 0,0 -9.72151,9.07342 -19.44303,-4.53671 -9.721523,-13.61013 -5.832915,-9.72152 -5.832915,-9.72152 z"
     id="path32"
     inkscape:connector-curvature="0" />
  <path
     style="fill:#000000;stroke:none;stroke-width:1px;stroke-linecap:butt;stroke-linejoin:miter;stroke-opacity:1;fill-opacity:1"
     d="M 69.994937,379.78734 58.977215,408.3038 c 0,0 -1.944304,11.01772 8.425317,16.85063 10.36962,5.83291 16.850633,11.01772 16.850633,7.12911 0,-3.8886 7.129113,-29.16455 7.129113,-29.16455 0,0 -14.258227,-25.92405 -21.387341,-23.33165 z"
     id="path34"
     inkscape:connector-curvature="0" />
  <path
     style="fill:#000000;stroke:none;stroke-width:1px;stroke-linecap:butt;stroke-linejoin:miter;stroke-opacity:1;fill-opacity:1"
     d="m 335.71646,374.60253 c 0,0 4.5367,50.5519 7.12911,49.9038 2.5924,-0.6481 7.12911,19.44304 11.66582,12.31392 4.53671,-7.12911 -0.6481,11.01772 14.25823,-23.33164 14.90633,-34.34937 -47.95949,-42.12658 -33.05316,-38.88608 z"
     id="path36"
     inkscape:connector-curvature="0" />
</svg>
