<?xml version="1.0" encoding="UTF-8" standalone="no"?>
<!-- Created with Inkscape (http://www.inkscape.org/) -->

<svg
   xmlns:dc="http://purl.org/dc/elements/1.1/"
   xmlns:cc="http://creativecommons.org/ns#"
   xmlns:rdf="http://www.w3.org/1999/02/22-rdf-syntax-ns#"
   xmlns:svg="http://www.w3.org/2000/svg"
   xmlns="http://www.w3.org/2000/svg"
   xmlns:sodipodi="http://sodipodi.sourceforge.net/DTD/sodipodi-0.dtd"
   xmlns:inkscape="http://www.inkscape.org/namespaces/inkscape"
   version="1.1"
   id="svg10"
   width="545"
   height="519"
   viewBox="0 0 545 519"
   sodipodi:docname="軻.svg"
   inkscape:version="0.92.4 (5da689c313, 2019-01-14)">
  <metadata
     id="metadata16">
    <rdf:RDF>
      <cc:Work
         rdf:about="">
        <dc:format>image/svg+xml</dc:format>
        <dc:type
           rdf:resource="http://purl.org/dc/dcmitype/StillImage" />
        <dc:title></dc:title>
      </cc:Work>
    </rdf:RDF>
  </metadata>
  <defs
     id="defs14" />
  <sodipodi:namedview
     pagecolor="#ffffff"
     bordercolor="#666666"
     borderopacity="1"
     objecttolerance="10"
     gridtolerance="10"
     guidetolerance="10"
     inkscape:pageopacity="0"
     inkscape:pageshadow="2"
     inkscape:window-width="1920"
     inkscape:window-height="1017"
     id="namedview12"
     showgrid="false"
     inkscape:zoom="1.522158"
     inkscape:cx="165.74367"
     inkscape:cy="259.5"
     inkscape:window-x="-8"
     inkscape:window-y="-8"
     inkscape:window-maximized="1"
     inkscape:current-layer="svg10" />
  <path
     style="fill:#000000;stroke:none;stroke-width:1px;stroke-linecap:butt;stroke-linejoin:miter;stroke-opacity:1;fill-opacity:1"
     d="m 145.84557,150.4443 c 0,0 68.98101,-13.7962 71.60886,-15.76708 2.62785,-1.97089 12.48228,-1.31393 14.45316,0.65696 1.97089,1.97088 10.5114,7.22658 6.56963,9.19747 -3.94178,1.97088 -26.93545,7.88354 -33.50507,7.22658 -6.56962,-0.65696 -41.38861,13.13924 -41.38861,13.13924 0,0 -24.96455,-9.19747 -17.73797,-14.45317 z"
     id="path20"
     inkscape:connector-curvature="0" />
  <path
     style="fill:#000000;stroke:none;stroke-width:1px;stroke-linecap:butt;stroke-linejoin:miter;stroke-opacity:1;fill-opacity:1"
     d="m 143.87468,197.08861 c 0,0 4.59874,15.76709 9.85443,15.11012 5.2557,-0.65696 20.36583,0.65697 23.65064,-3.28481 3.28481,-3.94177 38.76076,-12.48227 42.70253,-12.48227 3.94177,0 11.16835,1.31392 9.85443,5.25569 -1.31393,3.94177 -23.65063,80.80633 -19.70886,84.7481 3.94177,3.94178 -4.59874,13.13924 1.31392,13.79621 5.91266,0.65696 -5.25569,7.88354 0.65696,7.22658 5.91266,-0.65696 10.5114,-5.2557 11.82532,-16.42405 1.31392,-11.16836 21.67975,-70.29494 21.67975,-70.29494 l 7.22658,-13.7962 1.97089,-9.19747 -30.87722,-19.70886 c 0,0 -6.56962,4.59873 -15.11013,9.85443 -8.5405,5.2557 -63.06835,11.82532 -65.03924,9.19747 z"
     id="path22"
     inkscape:connector-curvature="0" />
  <path
     style="fill:#000000;stroke:none;stroke-width:1px;stroke-linecap:butt;stroke-linejoin:miter;stroke-opacity:1;fill-opacity:1"
     d="m 150.4443,252.27342 c 0,0 44.67342,-9.85443 50.58608,-13.13924 5.91266,-3.28481 14.45316,3.28481 10.51139,4.59873 -3.94177,1.31393 -41.38861,21.67975 -44.67342,20.36582 -3.28481,-1.31392 -18.39493,-11.16835 -16.42405,-11.82531 z"
     id="path24"
     inkscape:connector-curvature="0" />
  <path
     style="fill:#000000;stroke:none;stroke-width:1px;stroke-linecap:butt;stroke-linejoin:miter;stroke-opacity:1;fill-opacity:1"
     d="m 86.718987,208.25696 c 0,0 11.825317,21.67975 18.394933,31.53418 6.56962,9.85443 19.0519,47.95823 19.0519,47.95823 l 5.2557,32.8481 c 0,0 5.2557,9.85443 6.56962,5.91266 1.31392,-3.94178 6.56962,-22.33671 4.59873,-28.24937 -1.97088,-5.91266 -1.97088,-49.92911 -5.91265,-52.55696 -3.94178,-2.62785 -22.99368,-36.78988 -28.90633,-35.47595 -5.912662,1.31392 -21.022789,-6.56962 -19.051903,-1.97089 z"
     id="path26"
     inkscape:connector-curvature="0" />
  <path
     style="fill:#000000;stroke:none;stroke-width:1px;stroke-linecap:butt;stroke-linejoin:miter;stroke-opacity:1;fill-opacity:1"
     d="m 133.36329,294.31899 c 42.70253,0.65696 68.98101,-3.94177 68.98101,-3.94177 l 14.45317,3.28481 -1.31393,5.91265 c 0,0 -24.30759,3.28481 -40.07468,5.91266 -15.76709,2.62785 -41.38861,5.2557 -41.38861,5.2557 z"
     id="path28"
     inkscape:connector-curvature="0" />
  <path
     style="fill:#000000;stroke:none;stroke-width:1px;stroke-linecap:butt;stroke-linejoin:miter;stroke-opacity:1;fill-opacity:1"
     d="m 15.767089,377.75316 c 0,0 76.207595,-20.36582 82.120253,-21.02278 5.912658,-0.65696 55.841768,-12.48228 61.097468,-13.13924 5.2557,-0.65696 68.98101,-15.76709 71.60886,-15.76709 2.62785,0 40.07468,13.13924 41.38861,16.42405 1.31392,3.28481 3.28481,15.11013 -2.62785,12.48228 -5.91266,-2.62785 -15.11013,-9.85443 -21.02278,-9.85443 -5.91266,0 -99.85823,0 -102.48608,4.59873 -2.62785,4.59874 -71.608861,26.93545 -80.149367,30.22026 -8.540507,3.28481 -18.394937,14.45316 -20.365823,14.45316 -1.970886,0 -24.307595,0 -29.563291,-18.39494 z"
     id="path30"
     inkscape:connector-curvature="0" />
  <path
     style="fill:#000000;stroke:none;stroke-width:1px;stroke-linecap:butt;stroke-linejoin:miter;stroke-opacity:1;fill-opacity:1"
     d="m 163.58354,30.877215 c 0,0 20.36583,7.226582 21.67975,10.511393 1.31393,3.28481 15.11013,3.941772 15.11013,11.168354 0,7.226582 1.31392,32.848101 1.31392,32.848101 0,0 -0.65696,25.621517 -0.65696,32.848097 0,7.22659 -3.28481,44.67342 -3.94177,49.27216 -0.65696,4.59873 -5.91266,45.98734 -5.91266,45.98734 l -5.91266,55.18481 -3.94177,44.67342 c 0,0 -5.91266,44.67341 -6.56962,47.95822 -0.65696,3.28481 -3.28481,33.50507 -3.28481,33.50507 l -1.97089,25.62152 v 28.24936 l -5.25569,8.54051 -5.2557,-9.19747 -1.31392,-7.22658 -3.94178,-13.13924 4.59874,-13.13924 8.5405,-27.59241 3.28481,-19.70886 1.97089,-30.87721 5.91266,-47.30127 1.31392,-23.65063 -1.31392,-23.65063 4.59873,-28.90633 0.65697,-22.99367 0.65696,-30.87722 V 141.9038 c 0,0 1.31392,-51.243041 1.31392,-53.870889 0,-2.627848 -1.97088,-22.99367 -1.97088,-22.99367 L 176.06582,48.61519 c 0,0 -9.85443,-3.941772 -11.16835,-9.854431 -1.31393,-5.912658 -1.31393,-7.883544 -1.31393,-7.883544 z"
     id="path34"
     inkscape:connector-curvature="0" />
  <path
     style="fill:#000000;stroke:none;stroke-width:1px;stroke-linecap:butt;stroke-linejoin:miter;stroke-opacity:1;fill-opacity:1"
     d="m 248.98861,229.93671 c 0,0 66.35316,-5.91266 70.29493,-13.7962 3.94178,-7.88355 145.84557,-22.33671 145.84557,-22.33671 0,0 6.56962,-9.19747 9.85443,-10.51139 3.28481,-1.31393 58.46962,24.96455 58.46962,24.96455 0,0 4.59874,9.85443 -1.97088,12.48228 -6.56962,2.62785 -63.72532,-18.39494 -71.60886,-15.11013 -7.88355,3.28481 -142.56076,17.73798 -153.72912,36.78988 -11.16835,19.0519 -44.67341,17.73797 -34.81898,14.45316 9.85443,-3.28481 -26.93545,-27.5924 -22.33671,-26.93544 z"
     id="path36"
     inkscape:connector-curvature="0" />
  <path
     style="fill:#000000;stroke:none;stroke-width:1px;stroke-linecap:butt;stroke-linejoin:miter;stroke-opacity:1;fill-opacity:1"
     d="m 264.09873,280.52278 c 0,0 17.08102,46.64431 16.42405,55.18481 -0.65696,8.54051 0,37.44684 5.91266,37.44684 5.91266,0 15.11013,5.2557 15.11013,5.2557 0,0 5.2557,-8.54051 1.31392,-14.45317 -3.94177,-5.91266 -1.31392,-56.49873 -1.31392,-56.49873 0,0 -38.76076,-32.19114 -37.44684,-26.93545 z"
     id="path38"
     inkscape:connector-curvature="0" />
  <path
     style="fill:#000000;stroke:none;stroke-width:1px;stroke-linecap:butt;stroke-linejoin:miter;stroke-opacity:1;fill-opacity:1"
     d="m 283.80759,271.32532 57.1557,-13.79621 c 0,0 17.73798,0.65697 20.36582,5.2557 2.62785,4.59873 12.48228,13.7962 7.22659,21.02278 -5.2557,7.22659 -9.19747,31.53418 -12.48228,36.13292 -3.28481,4.59873 -10.51139,11.82531 -13.7962,11.82531 -3.28481,0 -4.59874,-7.88354 -4.59874,-14.45316 0,-6.56962 9.19747,-28.24937 5.91266,-29.56329 -3.28481,-1.31393 -10.51139,-5.91266 -10.51139,-5.91266 l -17.08102,7.88354 c 0,0 -33.50506,-8.5405 -30.87721,-15.76709 2.62785,-7.22658 -1.31393,-2.62784 -1.31393,-2.62784 z"
     id="path40"
     inkscape:connector-curvature="0" />
  <path
     style="fill:#000000;stroke:none;stroke-width:1px;stroke-linecap:butt;stroke-linejoin:miter;stroke-opacity:1;fill-opacity:1"
     d="m 270.66835,331.76582 c 5.2557,-0.65696 59.12659,-9.19747 59.12659,-9.19747 0,0 26.93544,-1.31392 31.53417,3.94178 4.59874,5.25569 17.08102,9.85443 -9.85443,11.16835 -26.93544,1.31393 -44.01645,9.19747 -44.01645,9.19747 0,0 -40.07469,-5.91266 -36.78988,-15.11013 z"
     id="path42"
     inkscape:connector-curvature="0" />
  <path
     style="fill:#000000;stroke:none;stroke-width:1px;stroke-linecap:butt;stroke-linejoin:miter;stroke-opacity:1;fill-opacity:1"
     d="m 384.32278,210.88481 11.16836,15.76709 c 0,0 0,24.96456 0,32.8481 0,7.88354 -1.97089,114.31139 -3.28481,116.93924 -1.31392,2.62785 2.62785,56.49873 -0.65696,57.1557 -3.28481,0.65696 0,9.85443 -3.28481,9.85443 -3.28481,0 -14.45317,-2.62785 -14.45317,-2.62785 0,0 3.94177,3.94177 7.22658,11.82532 3.28481,7.88354 6.56962,18.39493 6.56962,18.39493 l 4.59874,7.88355 6.56962,-0.65697 7.88354,-26.27848 -2.62784,-18.39493 0.65696,-112.99747 c 0,0 5.91266,-57.1557 7.22658,-61.75443 1.31392,-4.59874 7.22658,-22.33671 7.22658,-22.33671 0,0 9.85443,-7.88355 3.94177,-7.88355 -5.91265,0 -36.13291,-23.65063 -38.76076,-17.73797 z"
     id="path44"
     inkscape:connector-curvature="0" />
</svg>
