<?xml version="1.0" encoding="UTF-8" standalone="no"?>
<!-- Created with Inkscape (http://www.inkscape.org/) -->

<svg
   xmlns:dc="http://purl.org/dc/elements/1.1/"
   xmlns:cc="http://creativecommons.org/ns#"
   xmlns:rdf="http://www.w3.org/1999/02/22-rdf-syntax-ns#"
   xmlns:svg="http://www.w3.org/2000/svg"
   xmlns="http://www.w3.org/2000/svg"
   xmlns:sodipodi="http://sodipodi.sourceforge.net/DTD/sodipodi-0.dtd"
   xmlns:inkscape="http://www.inkscape.org/namespaces/inkscape"
   version="1.1"
   id="svg10"
   width="512"
   height="512"
   viewBox="0 0 512 512"
   sodipodi:docname="陟.svg"
   inkscape:version="0.92.4 (5da689c313, 2019-01-14)">
  <metadata
     id="metadata16">
    <rdf:RDF>
      <cc:Work
         rdf:about="">
        <dc:format>image/svg+xml</dc:format>
        <dc:type
           rdf:resource="http://purl.org/dc/dcmitype/StillImage" />
        <dc:title></dc:title>
      </cc:Work>
    </rdf:RDF>
  </metadata>
  <defs
     id="defs14" />
  <sodipodi:namedview
     pagecolor="#ffffff"
     bordercolor="#666666"
     borderopacity="1"
     objecttolerance="10"
     gridtolerance="10"
     guidetolerance="10"
     inkscape:pageopacity="0"
     inkscape:pageshadow="2"
     inkscape:window-width="1920"
     inkscape:window-height="1017"
     id="namedview12"
     showgrid="false"
     inkscape:zoom="1.5429688"
     inkscape:cx="150.68355"
     inkscape:cy="256"
     inkscape:window-x="-8"
     inkscape:window-y="-8"
     inkscape:window-maximized="1"
     inkscape:current-layer="svg10" />
  <path
     style="fill:#000000;stroke:none;stroke-width:1px;stroke-linecap:butt;stroke-linejoin:miter;stroke-opacity:1;fill-opacity:1"
     d="m 37.589873,96.567089 c 0,0 29.164557,47.311391 31.756962,46.663291 2.592406,-0.6481 12.313924,-4.53671 16.850633,-14.25823 4.536709,-9.72152 47.311392,-14.25823 48.607592,-18.14683 1.29621,-3.88861 -14.90633,47.95949 -20.09114,44.07088 -5.18481,-3.88861 -9.72151,6.48102 -6.48101,11.01772 3.24051,4.53671 3.88861,20.09114 18.14684,22.68355 14.25822,2.5924 6.48101,20.73924 4.53671,21.38734 -1.94431,0.6481 -31.108865,7.12911 -23.97975,5.18481 7.12911,-1.9443 11.01772,22.03544 15.55443,17.49873 4.53671,-4.5367 12.31392,10.36962 27.22025,-2.5924 14.90633,-12.96203 -5.18481,-46.66329 -9.72152,-45.36709 -4.53671,1.2962 -15.55443,-9.72152 -15.55443,-9.72152 0,0 3.24051,-23.33164 27.22026,-45.36709 23.97974,-22.03544 26.57215,-38.237972 26.57215,-38.237972 0,0 -33.05317,-21.387341 -33.70127,-18.794936 -0.6481,2.592405 -5.18481,3.888607 -7.77721,5.18481 -2.59241,1.296202 0,13.610126 -4.53671,11.017721 C 127.67595,86.197468 69.994937,106.28861 68.050633,102.4 66.106329,98.511392 35.64557,95.270886 40.182278,90.734177 c 4.536709,-4.536709 -2.592405,5.832912 -2.592405,5.832912 z"
     id="path20"
     inkscape:connector-curvature="0" />
  <path
     style="fill:#000000;stroke:none;stroke-width:1px;stroke-linecap:butt;stroke-linejoin:miter;stroke-opacity:1;fill-opacity:1"
     d="m 54.440506,155.5443 c 0,0 8.425317,20.09114 9.073418,20.73924 0.648101,0.64811 16.202532,6.48102 16.850633,26.57216 0.648101,20.09114 -16.850633,208.0405 -23.331646,209.98481 -6.481012,1.9443 15.554431,29.16455 15.554431,29.16455 0,0 15.55443,-250.81519 17.498734,-250.16709 1.944304,0.64811 -21.387342,-40.83038 -35.64557,-36.29367 z"
     id="path22"
     inkscape:connector-curvature="0" />
  <path
     style="fill:#000000;stroke:none;stroke-width:1px;stroke-linecap:butt;stroke-linejoin:miter;stroke-opacity:1;fill-opacity:1"
     d="m 243.03797,56.38481 c -3.2405,14.906329 -4.5367,23.979747 4.53671,32.405063 9.07342,8.425317 20.73924,6.481013 23.33165,24.627847 2.5924,18.14684 1.9443,42.77469 1.2962,51.2 -0.6481,8.42532 1.94431,14.90633 5.83291,14.25823 3.88861,-0.6481 11.66583,-4.53671 12.31393,-10.36962 0.6481,-5.83291 2.5924,1.2962 3.2405,-18.79494 0.6481,-20.09114 7.12912,-11.01772 -0.6481,-38.23797 C 285.16456,84.253165 309.79241,103.0481 276.73924,79.068354 243.68608,55.088608 243.03797,56.38481 243.03797,56.38481 Z"
     id="path24"
     inkscape:connector-curvature="0" />
  <path
     style="fill:#000000;stroke:none;stroke-width:1px;stroke-linecap:butt;stroke-linejoin:miter;stroke-opacity:1;fill-opacity:1"
     d="m 300.71899,82.308861 c 0,0 14.25823,18.146839 18.14683,17.498734 3.88861,-0.648101 25.27595,3.888605 25.27595,0.648105 0,-3.24051 15.55443,2.5924 5.83291,-5.184814 -9.72152,-7.777215 -29.81265,-17.498734 -29.81265,-17.498734 0,0 -18.79494,3.240506 -19.44304,4.536709 z"
     id="path26"
     inkscape:connector-curvature="0" />
  <path
     style="fill:#000000;stroke:none;stroke-width:1px;stroke-linecap:butt;stroke-linejoin:miter;stroke-opacity:1;fill-opacity:1"
     d="m 197.67089,121.19494 c 0,0 11.01772,14.90633 13.61012,34.34936 2.59241,19.44304 1.29621,28.51646 1.94431,31.10886 0.6481,2.59241 -1.29621,13.61013 2.5924,11.66583 3.88861,-1.94431 12.31393,-8.42532 12.31393,-12.96203 0,-4.53671 0,-32.40506 6.48101,-41.47848 6.48101,-9.07342 -27.86836,-24.62785 -30.46076,-24.62785 -2.59241,0 -5.18481,-1.9443 -6.48101,1.94431 z"
     id="path28"
     inkscape:connector-curvature="0" />
  <path
     style="fill:#000000;stroke:none;stroke-width:1px;stroke-linecap:butt;stroke-linejoin:miter;stroke-opacity:1;fill-opacity:1"
     d="m 163.32152,187.94937 c 0,0 2.5924,20.09114 5.83291,19.44304 3.24051,-0.64811 25.92405,16.85063 36.29367,11.01772 10.36962,-5.83291 85.54937,-42.77469 88.14177,-38.88608 2.59241,3.88861 49.2557,-11.66582 90.73418,-10.36962 41.47848,1.2962 16.85063,12.96203 27.86836,7.12911 11.01772,-5.83291 11.01772,-11.66582 11.01772,-11.66582 0,0 -47.9595,-29.81266 -51.2,-24.62785 -3.24051,5.18481 -16.85064,6.48102 -17.49874,9.07342 -0.6481,2.59241 -156.1924,36.94177 -156.1924,45.36709 0,8.42532 -34.99747,-6.48101 -34.99747,-6.48101 z"
     id="path30"
     inkscape:connector-curvature="0" />
  <path
     style="fill:#000000;stroke:none;stroke-width:1px;stroke-linecap:butt;stroke-linejoin:miter;stroke-opacity:1;fill-opacity:1"
     d="m 194.43038,260.53671 c 0,0 -9.07342,31.10886 1.2962,36.29367 10.36962,5.18481 7.12912,16.20253 11.01772,11.66582 3.88861,-4.53671 12.96203,-6.48101 10.36962,-15.55443 -2.5924,-9.07342 -9.07341,-7.12911 -12.31392,-13.61012 -3.24051,-6.48102 -4.53671,-23.97975 -10.36962,-18.79494 z"
     id="path32"
     inkscape:connector-curvature="0" />
  <path
     style="fill:#000000;stroke:none;stroke-width:1px;stroke-linecap:butt;stroke-linejoin:miter;stroke-opacity:1;fill-opacity:1"
     d="m 248.87089,208.68861 c 0,0 16.20253,7.77721 18.14683,11.66582 1.94431,3.88861 7.12912,46.66329 2.59241,64.81013 -4.53671,18.14683 -8.42532,6.48101 -8.42532,6.48101 0,0 0,12.96202 8.42532,12.31392 8.42531,-0.6481 11.01772,32.40507 14.25822,-10.36962 3.24051,-42.77468 7.77722,-68.05063 7.77722,-68.05063 0,0 -17.49873,-29.81266 -27.86835,-26.57215 -10.36963,3.2405 -16.85064,4.53671 -14.90633,9.72152 z"
     id="path34"
     inkscape:connector-curvature="0" />
  <path
     style="fill:#000000;stroke:none;stroke-width:1px;stroke-linecap:butt;stroke-linejoin:miter;stroke-opacity:1;fill-opacity:1"
     d="m 314.32911,208.68861 c 0,0 10.36962,23.33164 13.61013,23.33164 3.24051,0 -61.56962,120.54684 -147.76709,191.18988 -86.197466,70.64303 -88.14177,72.58734 -88.14177,72.58734 l -7.129114,14.90633 c 0,0 134.805064,-104.99241 158.784814,-125.08355 23.97974,-20.09114 90.73417,-132.21266 96.56708,-128.97215 5.83292,3.24051 7.12912,-9.72152 11.01773,-9.72152 3.8886,0 -18.14684,-44.07088 -21.38735,-39.53417 -3.2405,4.5367 -17.49873,-5.18482 -15.55443,1.2962 z"
     id="path36"
     inkscape:connector-curvature="0" />
  <path
     style="fill:#000000;stroke:none;stroke-width:1px;stroke-linecap:butt;stroke-linejoin:miter;stroke-opacity:1;fill-opacity:1"
     d="m 368.76962,268.31392 c 0,0 17.49873,51.2 17.49873,55.08861 0,3.88861 10.36962,7.77722 9.72152,6.48101 -0.6481,-1.2962 16.20254,-46.01519 11.66583,-45.36708 -4.53671,0.6481 -36.29367,-20.09114 -38.88608,-16.20254 z"
     id="path38"
     inkscape:connector-curvature="0" />
</svg>
