<?xml version="1.0" encoding="UTF-8" standalone="no"?>
<!-- Created with Inkscape (http://www.inkscape.org/) -->

<svg
   xmlns:dc="http://purl.org/dc/elements/1.1/"
   xmlns:cc="http://creativecommons.org/ns#"
   xmlns:rdf="http://www.w3.org/1999/02/22-rdf-syntax-ns#"
   xmlns:svg="http://www.w3.org/2000/svg"
   xmlns="http://www.w3.org/2000/svg"
   xmlns:sodipodi="http://sodipodi.sourceforge.net/DTD/sodipodi-0.dtd"
   xmlns:inkscape="http://www.inkscape.org/namespaces/inkscape"
   version="1.1"
   id="svg10"
   width="512"
   height="512"
   viewBox="0 0 512 512"
   sodipodi:docname="黜.svg"
   inkscape:version="0.92.4 (5da689c313, 2019-01-14)">
  <metadata
     id="metadata16">
    <rdf:RDF>
      <cc:Work
         rdf:about="">
        <dc:format>image/svg+xml</dc:format>
        <dc:type
           rdf:resource="http://purl.org/dc/dcmitype/StillImage" />
        <dc:title></dc:title>
      </cc:Work>
    </rdf:RDF>
  </metadata>
  <defs
     id="defs14" />
  <sodipodi:namedview
     pagecolor="#ffffff"
     bordercolor="#666666"
     borderopacity="1"
     objecttolerance="10"
     gridtolerance="10"
     guidetolerance="10"
     inkscape:pageopacity="0"
     inkscape:pageshadow="2"
     inkscape:window-width="1920"
     inkscape:window-height="1017"
     id="namedview12"
     showgrid="false"
     inkscape:zoom="1.5429688"
     inkscape:cx="150.68355"
     inkscape:cy="256"
     inkscape:window-x="-8"
     inkscape:window-y="-8"
     inkscape:window-maximized="1"
     inkscape:current-layer="svg10" />
  <path
     style="fill:#000000;stroke:none;stroke-width:1px;stroke-linecap:butt;stroke-linejoin:miter;stroke-opacity:1;fill-opacity:1"
     d="m 86.84557,100.4557 c 0,0 9.073417,27.86835 10.36962,46.66329 1.296202,18.79493 -6.481013,51.2 -3.240506,55.0886 3.240506,3.88861 7.129116,5.83292 7.129116,5.83292 0,0 8.42531,-31.10886 7.12911,-35.64557 -1.2962,-4.53671 5.83291,-46.01519 3.88861,-50.5519 -1.9443,-4.53671 -22.683545,-24.62785 -25.27595,-21.38734 z"
     id="path20"
     inkscape:connector-curvature="0" />
  <path
     style="fill:#000000;stroke:none;stroke-width:1px;stroke-linecap:butt;stroke-linejoin:miter;stroke-opacity:1;fill-opacity:1"
     d="m 118.60253,95.270886 c 0,0 58.32912,-14.258228 67.40253,-16.202532 9.07342,-1.944303 27.86836,0.648102 29.16456,-1.944303 1.2962,-2.592405 23.97975,14.906329 22.03544,17.498734 -1.9443,2.592405 -27.86835,97.215185 -25.92405,102.399995 1.94431,5.18481 -4.53671,15.55444 -7.12911,12.96203 -2.59241,-2.5924 -10.36962,-32.40506 -7.77722,-32.40506 2.59241,0 4.53671,0.6481 11.01773,-21.38734 6.48101,-22.03545 7.12911,-54.44051 7.12911,-54.44051 L 204.1519,90.734177 c 0,0 -27.86836,1.944304 -31.10886,3.888608 -3.24051,1.944304 -26.57215,11.665825 -27.86836,8.425315 -1.2962,-3.240505 -22.68354,11.01772 -26.57215,-7.777214 z"
     id="path22"
     inkscape:connector-curvature="0" />
  <path
     style="fill:#000000;stroke:none;stroke-width:1px;stroke-linecap:butt;stroke-linejoin:miter;stroke-opacity:1;fill-opacity:1"
     d="m 139.34177,78.420253 c 0,0 -3.2405,25.275947 1.94431,28.516457 5.18481,3.24051 10.36962,20.09114 10.36962,20.09114 0,0 -2.59241,32.40506 -0.64811,34.34937 1.94431,1.9443 5.18482,14.25822 7.77722,8.42531 2.59241,-5.83291 2.59241,-47.31139 5.18481,-45.36709 2.59241,1.94431 4.53671,-25.924048 4.53671,-25.924048 0,0 -25.27595,-24.627848 -26.57215,-20.091139 -1.29621,4.536709 -2.59241,0 -2.59241,0 z"
     id="path24"
     inkscape:connector-curvature="0" />
  <path
     style="fill:#000000;stroke:none;stroke-width:1px;stroke-linecap:butt;stroke-linejoin:miter;stroke-opacity:1;fill-opacity:1"
     d="m 131.56456,148.41519 c 0,0 33.70126,-14.25823 38.88607,-11.66582 5.18481,2.5924 14.90633,-1.29621 12.31393,3.8886 -2.59241,5.18481 -38.23798,16.20254 -37.58988,17.49874 0.6481,1.2962 -17.49873,-5.18481 -13.61012,-9.72152 z"
     id="path26"
     inkscape:connector-curvature="0" />
  <path
     style="fill:#000000;stroke:none;stroke-width:1px;stroke-linecap:butt;stroke-linejoin:miter;stroke-opacity:1;fill-opacity:1"
     d="m 97.21519,193.78228 c 0,0 4.53671,18.79494 9.07342,18.79494 4.53671,0 84.90126,-20.73925 85.54936,-16.20254 0.64811,4.53671 11.66583,-0.6481 11.66583,-0.6481 0,0 7.77721,-11.01772 -15.55443,-9.07342 -23.33165,1.94431 -90.086079,11.01773 -90.73418,7.12912 z"
     id="path28"
     inkscape:connector-curvature="0" />
  <path
     style="fill:#000000;stroke:none;stroke-width:1px;stroke-linecap:butt;stroke-linejoin:miter;stroke-opacity:1;fill-opacity:1"
     d="m 77.124051,255.3519 c 0,0 90.086079,-23.97975 100.455699,-18.14684 10.36962,5.83291 19.44303,5.83291 8.42531,9.72152 C 174.98734,250.81519 123.78734,256 100.4557,268.96203 77.124051,281.92405 69.994937,237.20506 77.124051,255.3519 Z"
     id="path30"
     inkscape:connector-curvature="0" />
  <path
     style="fill:#000000;stroke:none;stroke-width:1px;stroke-linecap:butt;stroke-linejoin:miter;stroke-opacity:1;fill-opacity:1"
     d="m 67.402532,306.5519 c 0,0 10.36962,15.55443 12.962025,15.55443 2.592405,0 29.812663,-11.66582 35.645573,-11.66582 5.83291,0 44.71898,-12.96203 58.97721,-9.72152 14.25823,3.2405 22.03544,6.48101 20.73924,1.2962 -1.2962,-5.18481 -16.20253,-13.61013 -26.57215,-12.31392 -10.36962,1.2962 -101.751898,16.85063 -101.751898,16.85063 z"
     id="path32"
     inkscape:connector-curvature="0" />
  <path
     style="fill:#000000;stroke:none;stroke-width:1px;stroke-linecap:butt;stroke-linejoin:miter;stroke-opacity:1;fill-opacity:1"
     d="m 154.8962,186.00506 c 0,0 -6.48101,16.20253 -6.48101,29.81266 0,13.61013 -5.83291,47.9595 -4.53671,51.2 1.2962,3.24051 -2.5924,21.38734 -4.53671,23.33165 -1.9443,1.9443 -1.9443,11.66582 0.6481,9.07341 2.59241,-2.5924 15.55443,9.72152 17.49874,-14.90632 1.9443,-24.62785 3.2405,-51.84811 1.9443,-61.56962 -1.2962,-9.72152 -1.2962,-40.18228 -4.53671,-36.94178 z"
     id="path34"
     inkscape:connector-curvature="0" />
  <path
     style="fill:#000000;stroke:none;stroke-width:1px;stroke-linecap:butt;stroke-linejoin:miter;stroke-opacity:1;fill-opacity:1"
     d="m 244.98228,155.5443 c 0,0 -0.6481,44.71899 -7.12912,45.36709 -6.48101,0.6481 -22.68354,7.77722 -24.62784,3.24051 -1.94431,-4.53671 12.96202,22.03544 16.85063,22.68354 3.88861,0.6481 20.09114,0.6481 20.09114,-6.48101 0,-7.12911 119.25063,-36.94177 121.19494,-33.70127 1.9443,3.24051 17.49873,0.64811 16.20253,-3.2405 -1.29621,-3.88861 -9.07342,-9.72152 -25.92405,-7.12912 -16.85064,2.59241 -93.97469,16.20254 -95.91899,20.73924 -1.9443,4.53671 7.77721,-18.14683 4.53671,-22.68354 -3.24051,-4.53671 -16.20253,-23.97975 -19.44304,-23.33165 -3.24051,0.64811 -5.83291,4.53671 -5.83291,4.53671 z"
     id="path36"
     inkscape:connector-curvature="0" />
  <path
     style="fill:#000000;stroke:none;stroke-width:1px;stroke-linecap:butt;stroke-linejoin:miter;stroke-opacity:1;fill-opacity:1"
     d="m 246.92658,244.33418 c 0,0 -9.72152,20.09114 -6.48101,30.46076 3.24051,10.36962 -13.61013,3.2405 -10.36962,9.72152 3.24051,6.48101 1.9443,10.36962 9.72152,10.36962 7.77721,0 29.81266,-6.48102 45.36709,-14.90633 15.55443,-8.42532 39.53417,-5.83291 43.42278,-5.18481 3.88861,0.6481 13.61013,-0.6481 13.61013,-0.6481 0,0 -6.48101,-9.72152 -11.66582,-9.72152 -5.18481,0 -75.17975,8.42531 -73.23545,14.90633 1.94431,6.48101 9.07342,-21.38735 -10.36962,-34.99747 z"
     id="path38"
     inkscape:connector-curvature="0" />
  <path
     style="fill:#000000;stroke:none;stroke-width:1px;stroke-linecap:butt;stroke-linejoin:miter;stroke-opacity:1;fill-opacity:1"
     d="m 281.27595,45.367089 c 0,0 3.24051,17.498734 11.66582,26.572152 8.42532,9.073417 14.25823,31.756959 11.01772,62.865819 -3.2405,31.10886 -5.18481,96.56709 -5.18481,96.56709 0,0 -6.48101,9.72152 -6.48101,18.79494 0,9.07342 5.18481,24.62785 5.18481,24.62785 0,0 15.55443,-5.83291 16.85063,-19.44304 1.29621,-13.61013 9.07342,-154.2481 13.61013,-150.35949 4.53671,3.8886 9.07342,-16.850638 5.18481,-19.443043 -3.88861,-2.592405 -44.71899,-47.311392 -51.8481,-40.182278 z"
     id="path40"
     inkscape:connector-curvature="0" />
  <path
     style="fill:#000000;stroke:none;stroke-width:1px;stroke-linecap:butt;stroke-linejoin:miter;stroke-opacity:1;fill-opacity:1"
     d="m 373.30633,129.62025 c 0,0 1.2962,62.86583 0,62.21772 -1.2962,-0.6481 15.55443,7.77722 19.44304,2.59241 3.8886,-5.18481 11.66582,-44.07089 10.36962,-44.07089 -1.29621,0 -27.86836,-26.57215 -29.81266,-20.73924 z"
     id="path42"
     inkscape:connector-curvature="0" />
  <path
     style="fill:#000000;stroke:none;stroke-width:1px;stroke-linecap:butt;stroke-linejoin:miter;stroke-opacity:1;fill-opacity:1"
     d="m 354.51139,252.11139 c 0,0 8.42532,41.47848 11.01772,41.47848 2.59241,0 6.48102,12.31393 7.77722,9.72152 1.2962,-2.5924 12.31392,-34.99747 7.77721,-38.23797 -4.5367,-3.24051 -25.27595,-18.14684 -26.57215,-12.96203 z"
     id="path44"
     inkscape:connector-curvature="0" />
  <path
     style="fill:#000000;stroke:none;stroke-width:1px;stroke-linecap:butt;stroke-linejoin:miter;stroke-opacity:1;fill-opacity:1"
     d="m 64.810127,355.80759 c 0,0 -9.721519,22.03545 -7.129114,27.86836 2.592405,5.83291 -1.296203,16.85063 6.481012,20.73924 7.777216,3.88861 9.073418,11.01772 14.258228,7.12911 5.18481,-3.8886 14.258228,-10.36962 9.721519,-19.44303 -4.536709,-9.07342 -21.387342,-37.58988 -23.331645,-36.29368 z"
     id="path46"
     inkscape:connector-curvature="0" />
  <path
     style="fill:#000000;stroke:none;stroke-width:1px;stroke-linecap:butt;stroke-linejoin:miter;stroke-opacity:1;fill-opacity:1"
     d="m 177.57975,367.47342 9.72152,36.29367 c 0,0 -0.64811,4.53671 5.18481,5.83291 5.83291,1.2962 14.90633,-1.2962 12.31392,-9.07342 -2.59241,-7.77721 -23.97975,-38.88607 -27.22025,-33.05316 z"
     id="path48"
     inkscape:connector-curvature="0" />
  <path
     style="fill:#000000;stroke:none;stroke-width:1px;stroke-linecap:butt;stroke-linejoin:miter;stroke-opacity:1;fill-opacity:1"
     d="m 261.83291,351.91899 23.97975,46.01519 c 0,0 7.12911,4.53671 9.07342,0.6481 1.9443,-3.88861 7.12911,-30.46076 7.12911,-30.46076 0,0 -38.23797,-22.68355 -40.18228,-16.20253 z"
     id="path50"
     inkscape:connector-curvature="0" />
  <path
     style="fill:#000000;stroke:none;stroke-width:1px;stroke-linecap:butt;stroke-linejoin:miter;stroke-opacity:1;fill-opacity:1"
     d="m 375.25063,338.30886 c 0,0 23.97975,33.70127 22.68355,38.88608 -1.29621,5.18481 4.53671,19.44303 4.53671,19.44303 0,0 15.55443,19.44304 17.49873,15.55444 1.9443,-3.88861 9.72152,-1.94431 9.07342,-9.72152 -0.6481,-7.77722 9.07342,-26.57216 -11.01772,-41.47848 -20.09114,-14.90633 -41.47848,-27.22026 -42.77469,-22.68355 z"
     id="path52"
     inkscape:connector-curvature="0" />
</svg>
