<?xml version="1.0" encoding="UTF-8" standalone="no"?>
<!-- Created with Inkscape (http://www.inkscape.org/) -->

<svg
   xmlns:dc="http://purl.org/dc/elements/1.1/"
   xmlns:cc="http://creativecommons.org/ns#"
   xmlns:rdf="http://www.w3.org/1999/02/22-rdf-syntax-ns#"
   xmlns:svg="http://www.w3.org/2000/svg"
   xmlns="http://www.w3.org/2000/svg"
   xmlns:sodipodi="http://sodipodi.sourceforge.net/DTD/sodipodi-0.dtd"
   xmlns:inkscape="http://www.inkscape.org/namespaces/inkscape"
   version="1.1"
   id="svg10"
   width="512"
   height="511"
   viewBox="0 0 512 511"
   sodipodi:docname="勸.svg"
   inkscape:version="0.92.4 (5da689c313, 2019-01-14)">
  <metadata
     id="metadata16">
    <rdf:RDF>
      <cc:Work
         rdf:about="">
        <dc:format>image/svg+xml</dc:format>
        <dc:type
           rdf:resource="http://purl.org/dc/dcmitype/StillImage" />
        <dc:title></dc:title>
      </cc:Work>
    </rdf:RDF>
  </metadata>
  <defs
     id="defs14" />
  <sodipodi:namedview
     pagecolor="#ffffff"
     bordercolor="#666666"
     borderopacity="1"
     objecttolerance="10"
     gridtolerance="10"
     guidetolerance="10"
     inkscape:pageopacity="0"
     inkscape:pageshadow="2"
     inkscape:window-width="1920"
     inkscape:window-height="1017"
     id="namedview12"
     showgrid="false"
     inkscape:zoom="1.5459883"
     inkscape:cx="150.88924"
     inkscape:cy="255.5"
     inkscape:window-x="-8"
     inkscape:window-y="-8"
     inkscape:window-maximized="1"
     inkscape:current-layer="svg10" />
  <path
     style="fill:#000000;stroke:none;stroke-width:1px;stroke-linecap:butt;stroke-linejoin:miter;stroke-opacity:1;fill-opacity:1"
     d="m 88.616456,120.95823 c 0,0 49.806324,3.88101 49.806324,0.64683 0,-3.23417 23.28608,-9.70253 23.28608,-9.70253 0,0 7.76203,12.93671 1.29367,15.52405 -6.46835,2.58734 -20.0519,10.9962 -20.0519,10.9962 0,0 -31.69493,10.34937 -31.0481,12.93671 0.64684,2.58735 -21.992403,-14.87721 -21.992403,-21.9924 0,-7.11519 -1.293671,-8.40886 -1.293671,-8.40886 z"
     id="path20"
     inkscape:connector-curvature="0" />
  <path
     style="fill:#000000;stroke:none;stroke-width:1px;stroke-linecap:butt;stroke-linejoin:miter;stroke-opacity:1;fill-opacity:1"
     d="m 124.19241,73.739241 c 0,0 -2.58735,12.289873 0,13.583544 2.58734,1.293671 13.58354,18.111395 13.58354,18.111395 0,0 18.75823,43.98481 15.52405,44.63164 -3.23418,0.64684 6.46835,21.34557 6.46835,21.34557 l 6.46836,0.64684 c 0,0 4.52785,-60.1557 -0.64684,-68.56456 -5.17468,-8.40886 -39.45696,-36.869619 -41.39746,-29.754429 z"
     id="path22"
     inkscape:connector-curvature="0" />
  <path
     style="fill:#000000;stroke:none;stroke-width:1px;stroke-linecap:butt;stroke-linejoin:miter;stroke-opacity:1;fill-opacity:1"
     d="m 202.45949,18.111392 c 0,0 -4.52784,3.234178 -4.52784,9.702532 0,6.468354 9.05569,20.051899 7.11519,23.932911 -1.94051,3.881013 3.23417,-14.230379 2.58734,15.524051 -0.64684,29.75443 -10.99621,75.679744 -10.99621,75.679744 l -5.82151,19.40507 c 0,0 19.40506,-22.63924 20.05189,-29.1076 0.64684,-6.46835 23.93292,-69.211391 23.93292,-69.211391 0,0 -21.34557,-39.456962 -28.46076,-36.222785 -7.11519,3.234177 -3.88102,-9.702532 -3.88102,-9.702532 z"
     id="path24"
     inkscape:connector-curvature="0" />
  <path
     style="fill:#000000;stroke:none;stroke-width:1px;stroke-linecap:butt;stroke-linejoin:miter;stroke-opacity:1;fill-opacity:1"
     d="m 274.90506,121.60506 c 0,0 -56.92152,5.17469 -60.80253,8.40886 -3.88101,3.23418 -8.40886,0 -7.76202,-3.23417 0.64683,-3.23418 1.9405,-12.93671 3.23417,-12.93671 1.29367,0 33.63545,-14.230382 36.86962,-12.93671 3.23418,1.29367 21.99241,1.94051 21.99241,5.82152 0,3.88101 13.58354,9.05569 6.46835,14.87721 z"
     id="path26"
     inkscape:connector-curvature="0" />
  <path
     style="fill:#000000;stroke:none;stroke-width:1px;stroke-linecap:butt;stroke-linejoin:miter;stroke-opacity:1;fill-opacity:1"
     d="m 63.389873,199.87215 c 0,0 20.051899,38.81013 18.111393,38.81013 -1.940507,0 1.293671,16.81772 3.881012,16.81772 2.587342,0 7.762026,7.76203 9.055697,4.52785 1.293671,-3.23418 1.293671,-36.22279 -2.587342,-40.1038 -3.881013,-3.88101 -14.877215,-23.28608 -21.992405,-19.40506 -7.11519,3.88101 -6.468355,-0.64684 -6.468355,-0.64684 z"
     id="path28"
     inkscape:connector-curvature="0" />
  <path
     style="fill:#000000;stroke:none;stroke-width:1px;stroke-linecap:butt;stroke-linejoin:miter;stroke-opacity:1;fill-opacity:1"
     d="m 109.96203,190.81646 c 0,0 20.05189,-10.34937 24.57974,-6.46836 4.52785,3.88101 7.76203,-0.64683 7.76203,-0.64683 0,0 10.34936,8.40886 9.05569,12.28987 -1.29367,3.88101 10.34937,4.52785 -1.29367,16.81772 -11.64304,12.28987 -9.70253,14.23038 -10.9962,16.17089 -1.29367,1.9405 -14.23038,8.40886 -10.9962,1.9405 3.23417,-6.46835 7.11519,-28.46076 7.11519,-28.46076 0,0 4.52785,-7.11519 -2.58734,-6.46835 -7.11519,0.64683 -20.69874,5.17468 -22.63924,-5.17468 z"
     id="path30"
     inkscape:connector-curvature="0" />
  <path
     style="fill:#000000;stroke:none;stroke-width:1px;stroke-linecap:butt;stroke-linejoin:miter;stroke-opacity:1;fill-opacity:1"
     d="m 86.029114,234.15443 34.929116,-7.76202 c 0,0 18.11139,-0.64684 18.75823,1.9405 0.64683,2.58734 17.46455,3.88101 -10.34937,10.34937 -27.81393,6.46835 -36.222786,7.11519 -36.222786,7.11519 0,0 -8.408861,-12.28988 -7.11519,-11.64304 z"
     id="path32"
     inkscape:connector-curvature="0" />
  <path
     style="fill:#000000;stroke:none;stroke-width:1px;stroke-linecap:butt;stroke-linejoin:miter;stroke-opacity:1;fill-opacity:1"
     d="m 182.40759,180.46709 10.34937,21.34557 -0.64683,31.0481 9.05569,5.17468 c 0,0 4.52785,-32.34177 3.88102,-35.57595 -0.64684,-3.23417 0,-11.64303 -3.88102,-12.28987 -3.88101,-0.64684 -18.11139,-13.58354 -18.75823,-9.70253 z"
     id="path34"
     inkscape:connector-curvature="0" />
  <path
     style="fill:#000000;stroke:none;stroke-width:1px;stroke-linecap:butt;stroke-linejoin:miter;stroke-opacity:1;fill-opacity:1"
     d="m 212.16203,177.23291 c 0,0 0.64683,11.64304 8.40886,11.64304 7.76202,0 20.05189,1.94051 20.05189,1.94051 0,0 7.76203,-1.94051 3.23418,7.11519 -4.52785,9.05569 -7.76202,13.58354 -7.76202,20.69873 0,7.11519 0,7.11519 0,7.11519 0,0 3.23417,8.40886 8.40886,2.58734 5.17468,-5.82152 18.11139,-32.34177 20.69873,-30.40126 2.58734,1.9405 5.17469,-12.28988 8.40886,-7.11519 3.23418,5.17468 -20.69873,-31.04811 -27.16709,-23.93292 -6.46835,7.11519 -7.76202,9.0557 -15.52405,8.40887 -7.76202,-0.64684 -18.75822,1.9405 -18.75822,1.9405 z"
     id="path38"
     inkscape:connector-curvature="0" />
  <path
     style="fill:#000000;stroke:none;stroke-width:1px;stroke-linecap:butt;stroke-linejoin:miter;stroke-opacity:1;fill-opacity:1"
     d="m 241.91646,218.63038 c -1.29368,20.69873 -34.92912,9.70253 -34.92912,9.70253 l -10.34937,-6.46835 c 0,0 36.86962,-5.82152 45.27849,-3.23418 z"
     id="path42"
     inkscape:connector-curvature="0" />
  <path
     style="fill:#000000;stroke:none;stroke-width:1px;stroke-linecap:butt;stroke-linejoin:miter;stroke-opacity:1;fill-opacity:1"
     d="m 161.06203,221.86456 c 0,0 -65.330384,115.78354 -118.370891,152.00633 -53.040506,36.22278 33.635443,-18.75823 33.635443,-18.75823 0,0 56.274688,-58.86203 67.270888,-73.09241 10.9962,-14.23038 17.46456,-30.40126 21.9924,-32.34177 4.52785,-1.94051 10.34937,0.64684 10.34937,-5.17468 0,-5.82152 -8.40886,-24.57975 -14.87721,-22.63924 z"
     id="path44"
     inkscape:connector-curvature="0" />
  <path
     style="fill:#000000;stroke:none;stroke-width:1px;stroke-linecap:butt;stroke-linejoin:miter;stroke-opacity:1;fill-opacity:1"
     d="m 185.64177,256.79367 c 0,0 14.23038,12.93671 14.87722,18.75823 0.64683,5.82152 4.52785,27.81392 -0.64684,28.46076 -5.17468,0.64683 9.0557,1.29367 12.93671,-5.17469 3.88101,-6.46835 19.40506,-18.11139 7.76203,-27.81392 -11.64304,-9.70253 -26.52026,-14.23038 -31.69494,-13.58354 -5.17468,0.64683 -3.23418,-0.64684 -3.23418,-0.64684 z"
     id="path46"
     inkscape:connector-curvature="0" />
  <path
     style="fill:#000000;stroke:none;stroke-width:1px;stroke-linecap:butt;stroke-linejoin:miter;stroke-opacity:1;fill-opacity:1"
     d="m 130.01392,326.00506 c 0,0 -18.11139,157.18102 -20.69873,152.65317 -2.58734,-4.52785 8.40886,23.93291 8.40886,23.93291 0,0 5.82152,7.76202 9.70253,-15.52405 3.88101,-23.28608 13.58355,-152.65317 17.46456,-146.83165 3.88101,5.82152 -11.64304,-24.57974 -14.87722,-14.23038 z"
     id="path48"
     inkscape:connector-curvature="0" />
  <path
     style="fill:#000000;stroke:none;stroke-width:1px;stroke-linecap:butt;stroke-linejoin:miter;stroke-opacity:1;fill-opacity:1"
     d="m 164.2962,310.48101 c 0,0 1.94051,20.0519 7.76203,16.17089 5.82152,-3.88101 24.57974,-14.87722 27.16709,-12.93671 2.58734,1.94051 30.40126,-3.88101 32.9886,-1.94051 2.58735,1.94051 28.46076,-1.29367 28.46076,-1.29367 0,0 6.46836,0 6.46836,-3.88101 0,-3.88101 -19.40507,-12.28987 -21.99241,-10.34937 -2.58734,1.94051 -84.0886,18.1114 -80.85443,14.23038 z"
     id="path50"
     inkscape:connector-curvature="0" />
  <path
     style="fill:#000000;stroke:none;stroke-width:1px;stroke-linecap:butt;stroke-linejoin:miter;stroke-opacity:1;fill-opacity:1"
     d="m 164.94304,361.58101 56.92152,-14.23038 11.64303,3.23418 -0.64683,7.76203 -12.93671,2.58734 -40.75063,9.70253 c 0,0 -19.40507,-3.88101 -14.23038,-9.0557 z"
     id="path52"
     inkscape:connector-curvature="0" />
  <path
     style="fill:#000000;stroke:none;stroke-width:1px;stroke-linecap:butt;stroke-linejoin:miter;stroke-opacity:1;fill-opacity:1"
     d="m 158.47468,399.09747 c 0,0 35.57595,-11.64304 38.16329,-11.64304 2.58735,0 15.52406,-2.58734 15.52406,-2.58734 0,0 15.52405,2.58734 15.52405,6.46835 0,3.88102 -27.16709,15.52405 -28.46076,12.28988 -1.29367,-3.23418 -25.22659,19.40506 -40.75064,-4.52785 z"
     id="path54"
     inkscape:connector-curvature="0" />
  <path
     style="fill:#000000;stroke:none;stroke-width:1px;stroke-linecap:butt;stroke-linejoin:miter;stroke-opacity:1;fill-opacity:1"
     d="m 192.75696,335.70759 c 0,0 -10.34937,36.86963 -5.17468,40.75064 5.17468,3.88101 -1.94051,34.28228 0.64683,40.1038 2.58735,5.82151 -5.17468,19.40506 -5.17468,19.40506 0,0 10.34937,8.40886 9.0557,7.76202 -1.29367,-0.64683 9.70253,5.17469 7.76202,-14.87721 -1.9405,-20.0519 -1.29367,-60.80253 3.23418,-60.80253 4.52785,0 12.28987,-18.75823 10.34937,-20.69874 -1.94051,-1.9405 -17.46456,-20.0519 -20.69874,-11.64304 z"
     id="path56"
     inkscape:connector-curvature="0" />
  <path
     style="fill:#000000;stroke:none;stroke-width:1px;stroke-linecap:butt;stroke-linejoin:miter;stroke-opacity:1;fill-opacity:1"
     d="m 238.03544,439.20127 c 0,0 -91.20379,10.9962 -89.91012,18.11139 1.29367,7.11519 -20.0519,-7.76203 -20.0519,-7.76203 0,0 26.52025,-13.58354 32.98861,-11.64304 6.46835,1.94051 44.63164,-10.34936 52.39367,-8.40886 7.76202,1.94051 36.86962,-2.58734 24.57974,9.70254 z"
     id="path58"
     inkscape:connector-curvature="0" />
  <path
     style="fill:#000000;stroke:none;stroke-width:1px;stroke-linecap:butt;stroke-linejoin:miter;stroke-opacity:1;fill-opacity:1"
     d="m 288.48861,310.48101 c 0,0 7.76202,20.0519 12.93671,18.75823 5.17468,-1.29367 82.79493,-22.63924 104.1405,-24.57975 21.34557,-1.9405 10.34937,6.46836 10.34937,6.46836 0,0 -12.93671,70.50506 -27.81392,114.48987 -14.87722,43.98481 -21.99241,29.1076 -22.63924,30.40127 -0.64684,1.29367 -49.80633,-3.88102 -47.86583,-7.11519 1.94051,-3.23418 32.98861,55.62785 29.1076,56.27468 -3.88102,0.64684 29.10759,-12.93671 39.45696,-24.57975 10.34937,-11.64303 45.92532,-157.82784 53.04051,-148.77215 7.11519,9.0557 5.82151,-23.28607 -5.82152,-37.51645 -11.64304,-14.23038 -51.1,-4.52785 -27.16709,-8.40886 23.93291,-3.88102 -114.48988,29.10759 -117.72405,24.57974 z"
     id="path60"
     inkscape:connector-curvature="0" />
  <path
     style="fill:#000000;stroke:none;stroke-width:1px;stroke-linecap:butt;stroke-linejoin:miter;stroke-opacity:1;fill-opacity:1"
     d="m 342.17595,240.62278 c 0,0 -7.76203,12.93671 -4.52785,16.17089 3.23418,3.23418 16.81772,12.93671 13.58355,17.46456 -3.23418,4.52785 1.29367,32.34177 -10.34937,51.1 -11.64304,18.75823 -50.45317,81.50126 -54.33418,80.85443 -3.88101,-0.64684 -18.75823,31.0481 -27.16709,32.34177 -8.40886,1.29367 -33.63544,24.57975 -33.63544,24.57975 0,0 48.51266,-23.28608 54.33418,-29.1076 5.82152,-5.82152 51.1,-37.51645 47.86582,-40.1038 -3.23418,-2.58734 24.57975,-69.85822 24.57975,-69.85822 l 18.11139,-33.63545 -5.17468,-17.46455 z"
     id="path62"
     inkscape:connector-curvature="0" />
</svg>
