<?xml version="1.0" encoding="UTF-8" standalone="no"?>
<!-- Created with Inkscape (http://www.inkscape.org/) -->

<svg
   xmlns:dc="http://purl.org/dc/elements/1.1/"
   xmlns:cc="http://creativecommons.org/ns#"
   xmlns:rdf="http://www.w3.org/1999/02/22-rdf-syntax-ns#"
   xmlns:svg="http://www.w3.org/2000/svg"
   xmlns="http://www.w3.org/2000/svg"
   xmlns:sodipodi="http://sodipodi.sourceforge.net/DTD/sodipodi-0.dtd"
   xmlns:inkscape="http://www.inkscape.org/namespaces/inkscape"
   version="1.1"
   id="svg3713"
   width="512"
   height="512"
   viewBox="0 0 512 512"
   sodipodi:docname="å².svg"
   inkscape:version="0.92.4 (5da689c313, 2019-01-14)">
  <metadata
     id="metadata3719">
    <rdf:RDF>
      <cc:Work
         rdf:about="">
        <dc:format>image/svg+xml</dc:format>
        <dc:type
           rdf:resource="http://purl.org/dc/dcmitype/StillImage" />
        <dc:title></dc:title>
      </cc:Work>
    </rdf:RDF>
  </metadata>
  <defs
     id="defs3717" />
  <sodipodi:namedview
     pagecolor="#ffffff"
     bordercolor="#666666"
     borderopacity="1"
     objecttolerance="10"
     gridtolerance="10"
     guidetolerance="10"
     inkscape:pageopacity="0"
     inkscape:pageshadow="2"
     inkscape:window-width="1591"
     inkscape:window-height="978"
     id="namedview3715"
     showgrid="false"
     inkscape:zoom="1.5429688"
     inkscape:cx="150.68355"
     inkscape:cy="256"
     inkscape:window-x="217"
     inkscape:window-y="0"
     inkscape:window-maximized="1"
     inkscape:current-layer="svg3713" />
  <path
     style="fill:#000000;stroke:none;stroke-width:1px;stroke-linecap:butt;stroke-linejoin:miter;stroke-opacity:1;fill-opacity:1"
     d="m 116.01013,118.60253 c 3.8886,24.62785 12.31392,42.77469 12.31392,42.77469 l 12.31392,15.55443 c 0,0 12.31393,13.61012 5.18481,2.5924 -7.12911,-11.01772 10.36963,19.44304 10.36963,19.44304 0,0 3.8886,4.53671 3.8886,8.42532 0,3.8886 -0.6481,8.42531 -0.6481,8.42531 0,0 -2.5924,11.01772 -1.9443,11.01772 0.6481,0 1.2962,11.01772 1.2962,11.01772 l 7.12911,0.64811 3.24051,-9.72152 5.83291,-12.31393 -2.5924,-10.36962 -2.59241,-19.44304 -5.83291,-9.72151 -7.77721,-16.85064 -9.72152,-11.66582 -5.83292,-7.77722 -8.42531,-9.07341 -7.77722,-10.36962 -3.8886,-3.24051 z"
     id="path3723"
     inkscape:connector-curvature="0" />
  <path
     style="fill:#000000;stroke:none;stroke-width:1px;stroke-linecap:butt;stroke-linejoin:miter;stroke-opacity:1;fill-opacity:1"
     d="m 168.50633,143.23038 c 49.2557,-14.90633 102.4,-28.51646 105.64051,-23.97975 3.2405,4.53671 20.09113,-4.53671 22.03544,-1.9443 1.9443,2.5924 24.62785,-1.9443 24.62785,-1.9443 l 8.42531,-9.07342 c 0,0 -1.9443,-2.59241 5.83291,-2.59241 7.77722,0 18.79494,22.03545 18.79494,22.03545 0,0 -0.6481,14.25822 -1.2962,18.79493 -0.6481,4.53671 -10.36962,-1.2962 -11.66582,1.2962 -1.29621,2.59241 -6.48102,10.36963 -6.48102,10.36963 l -18.79493,44.07088 -1.94431,3.24051 c 0,0 -5.83291,9.07342 -7.12911,1.9443 -1.2962,-7.12911 -0.6481,-16.20253 -0.6481,-16.20253 0,0 4.53671,-19.44304 4.53671,-22.03544 0,-2.59241 7.77721,-45.36709 10.36962,-42.12659 2.5924,3.24051 -47.9595,0.64811 -47.3114,5.83292 0.64811,5.18481 -75.82784,16.20253 -71.29114,21.38734 4.53671,5.18481 -33.70126,-9.07342 -33.70126,-9.07342 z"
     id="path3731"
     inkscape:connector-curvature="0" />
  <path
     style="fill:#000000;stroke:none;stroke-width:1px;stroke-linecap:butt;stroke-linejoin:miter;stroke-opacity:1;fill-opacity:1"
     d="m 134.80506,238.50127 c 18.79494,-11.01773 54.44051,-20.09114 54.44051,-20.09114 0,0 42.12658,-11.66583 45.36709,-11.01772 3.2405,0.6481 62.86582,-14.25823 62.86582,-14.25823 l 28.51646,7.12911 3.8886,7.12912 -4.5367,4.5367 c 0,0 -55.73671,-1.9443 -55.73671,1.29621 0,3.2405 -63.51393,10.36962 -61.56962,16.85063 1.9443,6.48101 -40.83038,12.96202 -35.64557,16.20253 5.18481,3.24051 -26.57216,0 -27.22026,-3.24051 -0.6481,-3.2405 -10.36962,-4.5367 -10.36962,-4.5367 z"
     id="path3733"
     inkscape:connector-curvature="0" />
  <path
     style="fill:#000000;stroke:none;stroke-width:1px;stroke-linecap:butt;stroke-linejoin:miter;stroke-opacity:1;fill-opacity:1"
     d="m 215.81772,20.739241 c 9.72152,7.777215 0.6481,14.258227 0.6481,14.258227 0,0 11.66583,8.425317 11.66583,12.962026 0,4.536709 7.12911,11.665822 5.18481,17.498734 -1.94431,5.832911 3.8886,44.718992 1.2962,51.848102 -2.59241,7.12911 0,75.82785 0,75.82785 0,0 -2.59241,101.10379 -10.36962,101.10379 -7.77722,0 2.5924,6.48102 -11.01772,40.83038 -13.61013,34.34937 -64.81013,62.21773 -64.81013,62.21773 0,0 -39.53418,26.57215 -64.810127,29.16455 -25.275949,2.59241 -24.627848,5.18481 -24.627848,5.18481 0,0 46.015195,3.24051 47.311395,3.24051 1.2962,0 74.53164,-31.10886 91.38228,-55.08861 16.85063,-23.97975 35.64557,-49.9038 40.83038,-89.43797 5.18481,-39.53418 14.25822,-99.8076 15.55443,-136.10127 1.2962,-36.29367 3.8886,-102.399999 3.8886,-102.399999 0,0 -9.07341,-22.035443 -16.20253,-26.572152 -7.12911,-4.536708 -25.92405,-4.536708 -25.92405,-4.536708 z"
     id="path3735"
     inkscape:connector-curvature="0" />
  <path
     style="fill:#000000;stroke:none;stroke-width:1px;stroke-linecap:butt;stroke-linejoin:miter;stroke-opacity:1;fill-opacity:1"
     d="m 52.496203,208.68861 c 47.311392,8.42531 51.848097,9.07342 51.848097,9.07342 l 24.62785,13.61012 40.18228,33.70127 c 0,0 16.20253,12.96202 49.2557,31.10886 33.05316,18.14683 213.87341,91.38228 213.87341,91.38228 0,0 34.99747,-2.59241 37.58988,1.2962 2.5924,3.88861 -16.85064,10.36962 -16.85064,10.36962 0,0 -51.8481,3.24051 -51.2,8.42532 0.64811,5.18481 -6.48101,-2.59241 -16.20253,11.66582 -9.72152,14.25823 -99.80759,-57.03291 -133.50886,-71.29114 -33.70126,-14.25823 -62.21772,-50.5519 -69.99493,-50.5519 -7.77722,0 -29.16456,-28.51645 -33.05317,-29.16456 -3.88861,-0.6481 -25.92405,-40.18227 -29.81266,-35.64557 -3.8886,4.53671 -13.61012,-12.96202 -16.85063,-5.18481 -3.240506,7.77722 -50.551899,1.94431 -25.924051,1.29621 24.627851,-0.6481 -13.610126,3.2405 -13.610126,3.2405 z"
     id="path3737"
     inkscape:connector-curvature="0" />
</svg>
