<?xml version="1.0" encoding="UTF-8" standalone="no"?>
<!-- Created with Inkscape (http://www.inkscape.org/) -->

<svg
   xmlns:dc="http://purl.org/dc/elements/1.1/"
   xmlns:cc="http://creativecommons.org/ns#"
   xmlns:rdf="http://www.w3.org/1999/02/22-rdf-syntax-ns#"
   xmlns:svg="http://www.w3.org/2000/svg"
   xmlns="http://www.w3.org/2000/svg"
   xmlns:sodipodi="http://sodipodi.sourceforge.net/DTD/sodipodi-0.dtd"
   xmlns:inkscape="http://www.inkscape.org/namespaces/inkscape"
   version="1.1"
   id="svg10"
   width="512"
   height="512"
   viewBox="0 0 512 512"
   sodipodi:docname="熟.svg"
   inkscape:version="0.92.4 (5da689c313, 2019-01-14)">
  <metadata
     id="metadata16">
    <rdf:RDF>
      <cc:Work
         rdf:about="">
        <dc:format>image/svg+xml</dc:format>
        <dc:type
           rdf:resource="http://purl.org/dc/dcmitype/StillImage" />
        <dc:title></dc:title>
      </cc:Work>
    </rdf:RDF>
  </metadata>
  <defs
     id="defs14" />
  <sodipodi:namedview
     pagecolor="#ffffff"
     bordercolor="#666666"
     borderopacity="1"
     objecttolerance="10"
     gridtolerance="10"
     guidetolerance="10"
     inkscape:pageopacity="0"
     inkscape:pageshadow="2"
     inkscape:window-width="1920"
     inkscape:window-height="1017"
     id="namedview12"
     showgrid="false"
     inkscape:zoom="1.5429688"
     inkscape:cx="150.68355"
     inkscape:cy="256"
     inkscape:window-x="-8"
     inkscape:window-y="-8"
     inkscape:window-maximized="1"
     inkscape:current-layer="svg10" />
  <path
     style="fill:#000000;stroke:none;stroke-width:1px;stroke-linecap:butt;stroke-linejoin:miter;stroke-opacity:1;fill-opacity:1"
     d="m 62.217722,16.850633 c 0,0 44.070888,-6.481013 51.199998,-2.592405 7.12912,3.888607 25.27595,2.592405 29.16456,7.129114 3.88861,4.536709 18.79494,22.683544 18.79494,22.683544 0,0 -4.53671,7.777215 -14.25823,7.129114 C 137.39747,50.551899 62.865823,22.035443 62.217722,16.850633 Z"
     id="path20"
     inkscape:connector-curvature="0" />
  <path
     style="fill:#000000;stroke:none;stroke-width:1px;stroke-linecap:butt;stroke-linejoin:miter;stroke-opacity:1;fill-opacity:1"
     d="m 11.665823,81.660759 c 0,0 81.660759,-24.627848 93.974687,-27.220253 12.31392,-2.592405 90.73417,-22.683544 97.86329,-20.091139 7.12911,2.592405 27.22025,3.888608 27.22025,9.721519 0,5.832911 -88.78987,6.481013 -86.84557,12.313924 1.9443,5.832912 -89.437974,20.739241 -84.901265,23.979747 4.536709,3.240506 -47.311392,7.129114 -47.311392,1.296202 z"
     id="path22"
     inkscape:connector-curvature="0" />
  <path
     style="fill:#000000;stroke:none;stroke-width:1px;stroke-linecap:butt;stroke-linejoin:miter;stroke-opacity:1;fill-opacity:1"
     d="m 66.106329,93.326582 c 0,0 12.962025,17.498738 10.36962,18.794938 -2.592405,1.2962 0.648102,71.29114 -2.592405,71.93924 -3.240506,0.6481 -15.55443,26.57215 -12.313924,27.86835 3.240507,1.29621 5.832912,15.55443 9.073418,18.79494 3.240506,3.24051 8.425316,10.36962 11.665823,2.59241 3.240506,-7.77722 3.888607,-3.88861 4.536709,-34.99747 0.648101,-31.10886 -2.592405,-30.46076 2.592405,-53.14431 5.18481,-22.68354 10.36962,-23.33164 3.240506,-34.34936 C 85.549367,99.807595 73.235443,91.382278 68.698734,92.678481 c -4.536709,1.296203 -2.592405,0.648101 -2.592405,0.648101 z"
     id="path24"
     inkscape:connector-curvature="0" />
  <path
     style="fill:#000000;stroke:none;stroke-width:1px;stroke-linecap:butt;stroke-linejoin:miter;stroke-opacity:1;fill-opacity:1"
     d="m 158.13671,54.440506 c 0.6481,8.425317 0,18.146836 0,18.146836 0,0 -6.48101,15.55443 -4.53671,19.443038 1.9443,3.888607 -3.88861,49.9038 -3.88861,53.1443 0,3.24051 0.6481,85.54937 2.59241,88.14178 1.9443,2.5924 7.77721,12.96202 12.96202,7.12911 5.18481,-5.83291 38.23798,-47.31139 38.23798,-47.31139 0,0 9.07342,1.9443 9.72152,-3.88861 0.6481,-5.83291 -3.24051,-15.55443 -14.25823,-18.14684 -11.01772,-2.5924 -19.44304,-8.42531 -18.79494,-0.6481 0.6481,7.77722 5.18481,12.96203 5.18481,12.96203 0,0 -5.18481,25.27595 -12.31392,27.86835 -7.12912,2.59241 -7.12912,9.72152 -8.42532,-12.31392 -1.2962,-22.03544 -11.66582,-29.81266 -1.2962,-69.34684 C 173.69114,90.086076 188.59747,92.678481 178.22785,70.643038 167.85823,48.607595 158.13671,46.01519 158.13671,54.440506 Z"
     id="path26"
     inkscape:connector-curvature="0" />
  <path
     style="fill:#000000;stroke:none;stroke-width:1px;stroke-linecap:butt;stroke-linejoin:miter;stroke-opacity:1;fill-opacity:1"
     d="m 109.52911,108.23291 22.68355,-11.01772 c 0,0 8.42531,0.648101 9.72152,6.48101 1.2962,5.83291 8.42531,11.01772 -3.88861,14.90633 -12.31392,3.88861 -34.34937,-1.9443 -28.51646,-10.36962 z"
     id="path28"
     inkscape:connector-curvature="0" />
  <path
     style="fill:#000000;stroke:none;stroke-width:1px;stroke-linecap:butt;stroke-linejoin:miter;stroke-opacity:1;fill-opacity:1"
     d="m 104.3443,155.5443 c 0,0 25.92405,-15.55443 30.46076,-11.01772 4.53671,4.53671 1.29621,23.97975 -10.36962,23.97975 -11.66582,0 -25.924048,-9.72152 -20.09114,-12.96203 z"
     id="path30"
     inkscape:connector-curvature="0" />
  <path
     style="fill:#000000;stroke:none;stroke-width:1px;stroke-linecap:butt;stroke-linejoin:miter;stroke-opacity:1;fill-opacity:1"
     d="m 23.331646,248.87089 18.794936,3.2405 c 0,0 121.194938,-73.23544 128.324048,-74.53164 7.12912,-1.29621 -87.493668,69.34683 -94.622782,73.23544 -7.129114,3.88861 -9.721519,16.20253 -12.962025,16.85063 -3.240507,0.6481 -35.64557,5.83291 -37.589874,-3.8886 -1.944303,-9.72152 -5.832911,-16.20254 -1.944303,-14.90633 z"
     id="path32"
     inkscape:connector-curvature="0" />
  <path
     style="fill:#000000;stroke:none;stroke-width:1px;stroke-linecap:butt;stroke-linejoin:miter;stroke-opacity:1;fill-opacity:1"
     d="m 112.76962,252.11139 c 34.99747,-4.53671 42.12658,1.2962 42.12658,1.2962 0,0 7.12912,24.62785 5.18481,31.75697 -1.9443,7.12911 -2.5924,66.10633 -7.12911,66.75443 -4.53671,0.6481 -3.24051,16.85063 -21.38734,43.42278 -18.14684,26.57215 -32.405066,7.12912 -33.053168,2.59241 -0.648101,-4.53671 -11.665822,-29.16456 -14.258227,-29.81266 -2.592406,-0.6481 25.924055,1.9443 25.924055,1.9443 0,0 14.25822,0 17.49873,-2.5924 3.24051,-2.59241 22.68354,-40.18228 20.73924,-43.42279 -1.9443,-3.2405 1.2962,-51.2 -3.24051,-52.4962 -4.53671,-1.2962 -29.81265,-18.14684 -32.40506,-19.44304 z"
     id="path34"
     inkscape:connector-curvature="0" />
  <path
     style="fill:#000000;stroke:none;stroke-width:1px;stroke-linecap:butt;stroke-linejoin:miter;stroke-opacity:1;fill-opacity:1"
     d="m 55.088608,361.64051 c 0,0 -36.293671,-19.44304 -33.701266,-21.38735 2.592405,-1.9443 57.681012,-16.20253 57.032911,-22.68354 -0.648101,-6.48101 48.607597,-25.27595 51.199997,-33.05316 2.59241,-7.77722 60.92152,-41.47849 61.56962,-44.71899 0.6481,-3.24051 6.48102,0.6481 6.48102,0.6481 l -4.53671,7.77721 c 0,0 -12.96203,20.09114 -18.14684,21.38735 -5.18481,1.2962 -35.64557,31.75696 -39.53418,31.75696 -3.8886,0 -41.478476,36.94177 -46.015185,37.58987 -4.536709,0.6481 -34.349367,22.68355 -34.349367,22.68355 z"
     id="path38"
     inkscape:connector-curvature="0" />
  <path
     style="fill:#000000;stroke:none;stroke-width:1px;stroke-linecap:butt;stroke-linejoin:miter;stroke-opacity:1;fill-opacity:1"
     d="m 222.29873,173.69114 c 0,0 79.71646,-24.62785 82.95697,-33.05317 3.2405,-8.42531 12.96202,-20.73924 12.96202,-20.73924 0,0 14.90633,-0.6481 17.49874,1.94431 2.5924,2.5924 20.73924,17.49873 16.85063,18.79493 -3.88861,1.29621 -17.49874,13.61013 -20.09114,14.25823 -2.59241,0.6481 -28.51646,80.36456 -23.33165,86.84557 5.18481,6.48101 -9.07341,34.34937 1.29621,61.56962 10.36962,27.22026 58.97721,60.27342 69.99493,58.32912 11.01772,-1.94431 47.3114,5.83291 53.79241,3.8886 6.48101,-1.9443 33.70126,-61.56962 28.51645,-64.81012 -5.18481,-3.24051 14.90633,31.75696 14.90633,31.75696 0,0 4.53671,32.40506 2.59241,33.05316 -1.94431,0.64811 9.72152,1.94431 10.36962,7.12912 0.6481,5.18481 3.88861,11.66582 -1.94431,12.96202 -5.83291,1.29621 7.12912,7.77722 -47.95949,1.29621 -55.08861,-6.48102 -77.12405,-7.12912 -110.17721,-32.40507 -33.05317,-25.27595 -42.12659,-69.34683 -38.23798,-119.25063 3.88861,-49.9038 14.25823,-62.21772 14.25823,-69.34684 0,-7.12911 -2.59241,-11.66582 -7.77722,-9.07341 -5.18481,2.5924 -43.42278,20.09114 -43.42278,20.09114 0,0 -5.83291,9.07341 -7.77722,8.42531 -1.9443,-0.6481 -30.46076,-8.42531 -25.27595,-11.66582 z"
     id="path40"
     inkscape:connector-curvature="0" />
  <path
     style="fill:#000000;stroke:none;stroke-width:1px;stroke-linecap:butt;stroke-linejoin:miter;stroke-opacity:1;fill-opacity:1"
     d="m 204.1519,244.33418 c 0,0 61.56962,-3.88861 64.16202,-2.59241 2.59241,1.2962 24.62785,9.72152 27.22026,11.66582 2.5924,1.94431 7.12911,11.01773 3.8886,11.01773 -3.2405,0 -71.29113,8.42531 -71.29113,8.42531 0,0 -31.10887,-28.51645 -23.97975,-28.51645 z"
     id="path42"
     inkscape:connector-curvature="0" />
  <path
     style="fill:#000000;stroke:none;stroke-width:1px;stroke-linecap:butt;stroke-linejoin:miter;stroke-opacity:1;fill-opacity:1"
     d="m 211.92911,114.06582 c 0,0 14.25823,14.25823 18.14684,16.20253 3.88861,1.94431 10.36962,19.44304 11.01772,23.33165 0.6481,3.88861 15.55443,22.03544 10.36962,46.01519 -5.18481,23.97975 -17.49873,93.97468 -25.27595,95.91899 -7.77721,1.9443 -14.90633,30.46076 -23.33164,27.86835 -8.42532,-2.5924 -36.29367,34.34937 -40.18228,31.75696 -3.88861,-2.5924 -9.07342,12.96203 39.53417,-9.07341 48.6076,-22.03545 60.27342,-146.47089 60.27342,-146.47089 0,0 3.88861,-66.75443 -3.2405,-70.64304 -7.12912,-3.88861 -35.64557,-20.73924 -39.53418,-19.44304 -3.88861,1.29621 -7.77722,4.53671 -7.77722,4.53671 z"
     id="path44"
     inkscape:connector-curvature="0" />
  <path
     style="fill:#000000;stroke:none;stroke-width:1px;stroke-linecap:butt;stroke-linejoin:miter;stroke-opacity:1;fill-opacity:1"
     d="m 22.683544,407.6557 -7.129114,23.97974 c 0,0 2.592405,23.97975 5.832912,27.22026 3.240506,3.2405 12.962025,18.14683 16.850633,14.25822 3.888607,-3.8886 14.906329,7.77722 12.962025,0 -1.944304,-7.77721 -23.331646,-64.16202 -25.924051,-64.16202 -2.592405,0 -2.592405,-1.2962 -2.592405,-1.2962 z"
     id="path46"
     inkscape:connector-curvature="0" />
  <path
     style="fill:#000000;stroke:none;stroke-width:1px;stroke-linecap:butt;stroke-linejoin:miter;stroke-opacity:1;fill-opacity:1"
     d="m 94.622785,423.21013 c 2.592405,-0.6481 24.627845,0 28.516455,2.5924 3.88861,2.59241 13.61013,1.94431 13.61013,7.12912 0,5.18481 -5.83291,13.61012 -5.83291,13.61012 0,0 0.6481,16.20253 -3.88861,14.90633 -4.53671,-1.2962 -27.220255,-12.96202 -27.220255,-18.79494 0,-5.83291 -11.665823,-19.44303 -5.18481,-19.44303 z"
     id="path48"
     inkscape:connector-curvature="0" />
  <path
     style="fill:#000000;stroke:none;stroke-width:1px;stroke-linecap:butt;stroke-linejoin:miter;stroke-opacity:1;fill-opacity:1"
     d="m 184.06076,398.58228 c 0,0 6.48101,37.58987 8.42532,40.83038 1.9443,3.2405 7.77721,16.20253 10.36962,13.61012 2.5924,-2.5924 9.07341,5.18481 11.66582,-2.5924 2.5924,-7.77722 9.72152,-13.61013 4.53671,-20.73924 -5.18481,-7.12911 -34.34937,-39.53418 -34.99747,-31.10886 z"
     id="path50"
     inkscape:connector-curvature="0" />
  <path
     style="fill:#000000;stroke:none;stroke-width:1px;stroke-linecap:butt;stroke-linejoin:miter;stroke-opacity:1;fill-opacity:1"
     d="m 275.44304,390.15696 c 0,0 23.97974,22.03545 27.22025,22.03545 3.24051,0 16.20253,12.31392 16.20253,12.31392 0,0 11.01772,21.38734 14.90633,21.38734 3.88861,0 5.18481,3.88861 9.72152,2.59241 4.53671,-1.29621 12.31392,0.6481 7.12911,-8.42532 -5.18481,-9.07342 -5.18481,-18.79494 -11.66582,-25.27595 -6.48101,-6.48101 -61.56962,-36.94177 -63.51392,-24.62785 z"
     id="path52"
     inkscape:connector-curvature="0" />
</svg>
