<?xml version="1.0" encoding="UTF-8" standalone="no"?>
<!-- Created with Inkscape (http://www.inkscape.org/) -->

<svg
   xmlns:dc="http://purl.org/dc/elements/1.1/"
   xmlns:cc="http://creativecommons.org/ns#"
   xmlns:rdf="http://www.w3.org/1999/02/22-rdf-syntax-ns#"
   xmlns:svg="http://www.w3.org/2000/svg"
   xmlns="http://www.w3.org/2000/svg"
   xmlns:sodipodi="http://sodipodi.sourceforge.net/DTD/sodipodi-0.dtd"
   xmlns:inkscape="http://www.inkscape.org/namespaces/inkscape"
   version="1.1"
   id="svg10"
   width="512"
   height="512"
   viewBox="0 0 512 512"
   sodipodi:docname="秉.svg"
   inkscape:version="0.92.4 (5da689c313, 2019-01-14)">
  <metadata
     id="metadata16">
    <rdf:RDF>
      <cc:Work
         rdf:about="">
        <dc:format>image/svg+xml</dc:format>
        <dc:type
           rdf:resource="http://purl.org/dc/dcmitype/StillImage" />
        <dc:title></dc:title>
      </cc:Work>
    </rdf:RDF>
  </metadata>
  <defs
     id="defs14" />
  <sodipodi:namedview
     pagecolor="#ffffff"
     bordercolor="#666666"
     borderopacity="1"
     objecttolerance="10"
     gridtolerance="10"
     guidetolerance="10"
     inkscape:pageopacity="0"
     inkscape:pageshadow="2"
     inkscape:window-width="1920"
     inkscape:window-height="1017"
     id="namedview12"
     showgrid="false"
     inkscape:zoom="1.5429688"
     inkscape:cx="150.68355"
     inkscape:cy="307.8481"
     inkscape:window-x="-8"
     inkscape:window-y="-8"
     inkscape:window-maximized="1"
     inkscape:current-layer="svg10" />
  <path
     style="fill:#000000;stroke:none;stroke-width:1px;stroke-linecap:butt;stroke-linejoin:miter;stroke-opacity:1;fill-opacity:1"
     d="m 213.87342,2.5924051 c 0.6481,7.1291139 1.2962,11.6658229 1.2962,11.6658229 l -23.33165,26.572152 -33.05316,20.73924 -5.83291,3.240507 -1.94431,7.129114 12.31393,0.648101 c 0,0 49.9038,-27.220253 53.7924,-25.924051 3.88861,1.296203 31.75697,-10.36962 29.16456,-11.665823 -2.5924,-1.296202 11.01772,-1.944303 1.9443,-14.258227 C 239.14937,8.4253165 241.09367,5.1848101 237.20506,3.2405063 233.31646,1.2962025 213.87342,2.5924051 213.87342,2.5924051 Z"
     id="path20"
     inkscape:connector-curvature="0" />
  <path
     style="fill:#000000;stroke:none;stroke-width:1px;stroke-linecap:butt;stroke-linejoin:miter;stroke-opacity:1;fill-opacity:1"
     d="m 100.4557,118.60253 c 18.14683,9.07342 19.44303,11.66582 19.44303,11.66582 0,0 29.16456,-13.61012 36.29368,-12.31392 7.12911,1.2962 29.16455,-12.31392 33.05316,-9.07342 3.88861,3.24051 33.05316,-14.258225 39.53418,-9.073415 6.48101,5.184815 49.25569,-9.073418 49.25569,-9.073418 V 86.84557 l -24.62785,-7.129114 -8.42531,-1.296203 c 0,0 -12.31393,9.073418 -15.55443,9.073418 -3.24051,0 -62.21772,19.443039 -67.40253,16.850629 -5.18481,-2.5924 -48.6076,10.36962 -48.6076,10.36962 z"
     id="path22"
     inkscape:connector-curvature="0" />
  <path
     style="fill:#000000;stroke:none;stroke-width:1px;stroke-linecap:butt;stroke-linejoin:miter;stroke-opacity:1;fill-opacity:1"
     d="m 100.4557,167.85823 c 0,0 17.49873,16.85063 22.03544,15.55443 4.53671,-1.2962 63.51392,-22.68355 63.51392,-22.68355 l 93.97469,-22.03544 8.42531,1.9443 -3.8886,14.90633 c 0,0 -11.66583,44.71899 -9.72152,47.3114 1.9443,2.5924 -4.53671,27.86835 -4.53671,27.86835 l 2.5924,12.96203 8.42532,-2.59241 5.18481,-13.61013 c 0,0 14.25823,-72.58734 18.14683,-69.34683 3.88861,3.24051 16.20254,-18.14684 27.22026,-14.25823 11.01772,3.88861 -3.88861,-23.97975 -3.88861,-23.97975 l -15.55443,-11.01772 c 0,0 -23.33165,0.6481 -22.68354,4.53671 0.6481,3.88861 -2.59241,10.36962 -2.59241,10.36962 z"
     id="path24"
     inkscape:connector-curvature="0" />
  <path
     style="fill:#000000;stroke:none;stroke-width:1px;stroke-linecap:butt;stroke-linejoin:miter;stroke-opacity:1;fill-opacity:1"
     d="m 74.531646,282.57215 9.073417,12.96203 23.979747,4.53671 25.92405,-13.61013 c 0,0 51.2,-23.33165 53.79241,-19.44304 2.5924,3.88861 51.2,-11.66582 51.2,-11.66582 l 46.66329,-0.6481 22.03544,3.2405 c 0,0 8.42532,-0.6481 7.77722,-3.8886 -0.64811,-3.24051 -22.68355,-18.79494 -22.68355,-18.79494 0,0 -31.10886,-5.18481 -34.99747,-0.6481 -3.88861,4.53671 -90.08607,22.68354 -90.08607,22.68354 0,0 -60.27342,17.49874 -59.62532,20.73924 0.6481,3.24051 -33.053164,4.53671 -33.053164,4.53671 z"
     id="path26"
     inkscape:connector-curvature="0" />
  <path
     style="fill:#000000;stroke:none;stroke-width:1px;stroke-linecap:butt;stroke-linejoin:miter;stroke-opacity:1;fill-opacity:1"
     d="m 22.683544,239.79747 c 11.017722,17.49873 14.258228,23.33164 14.258228,23.33164 l 11.665823,9.72152 7.129114,1.29621 1.944304,-12.31393 c 0,0 29.164557,-20.73924 34.349367,-20.09114 5.18481,0.6481 16.20253,-10.36962 16.20253,-10.36962 l 41.47848,-14.25823 49.9038,-9.72151 61.56962,-13.61013 55.08861,-3.88861 76.47595,9.72152 14.90633,-5.18481 -5.18481,-7.77722 -49.2557,-14.25822 -84.90127,10.36962 -139.34177,32.40506 -85.549365,23.97975 z"
     id="path28"
     inkscape:connector-curvature="0" />
  <path
     style="fill:#000000;stroke:none;stroke-width:1px;stroke-linecap:butt;stroke-linejoin:miter;stroke-opacity:1;fill-opacity:1"
     d="m 175.63544,74.531646 7.77722,18.794936 c 0,0 7.77721,19.443038 7.77721,23.331648 0,3.88861 -6.48101,48.60759 -3.2405,53.1443 3.2405,4.53671 3.2405,48.6076 3.2405,51.8481 0,3.24051 5.18481,61.56962 5.18481,61.56962 0,0 6.48102,141.28608 3.24051,141.93418 -3.24051,0.6481 -16.85063,13.61013 -17.49873,7.12911 -0.64811,-6.48101 -27.86836,-5.83291 -27.86836,-5.83291 0,0 3.88861,12.96203 7.77722,16.85064 3.8886,3.8886 22.03544,18.79493 22.03544,18.79493 0,0 22.03544,11.01772 22.68354,3.24051 0.64811,-7.77722 11.66583,-20.73924 9.07342,-25.27595 -2.5924,-4.53671 -10.36962,-165.91392 -10.36962,-165.91392 l -4.53671,-62.86583 -3.2405,-29.81266 2.5924,-22.68354 3.88861,-40.18228 V 92.678481 Z"
     id="path30"
     inkscape:connector-curvature="0" />
  <path
     style="fill:#000000;stroke:none;stroke-width:1px;stroke-linecap:butt;stroke-linejoin:miter;stroke-opacity:1;fill-opacity:1"
     d="M 94.622785,330.53165 C 93.326582,343.49367 99.159494,358.4 99.159494,358.4 l 19.443036,-2.59241 33.05317,-23.97974 c 0,0 -3.24051,-6.48101 -6.48102,-6.48101 -3.2405,0 -11.01772,0.6481 -14.25822,1.9443 -3.24051,1.2962 -9.72152,3.24051 -15.55443,5.18481 -5.83292,1.9443 -5.83292,1.2962 -8.42532,1.9443 -2.59241,0.6481 -14.90633,-1.9443 -14.90633,-1.9443 z"
     id="path32"
     inkscape:connector-curvature="0" />
  <path
     style="fill:#000000;stroke:none;stroke-width:1px;stroke-linecap:butt;stroke-linejoin:miter;stroke-opacity:1;fill-opacity:1"
     d="m 77.124051,403.76709 c 4.536708,18.14683 13.610126,23.33164 13.610126,23.33164 l 12.313923,9.07342 19.44304,-18.79493 34.34937,-31.10887 11.01772,-9.72151 -9.72152,-5.83292 -33.05317,16.20254 -28.516451,16.20253 z"
     id="path34"
     inkscape:connector-curvature="0" />
  <path
     style="fill:#000000;stroke:none;stroke-width:1px;stroke-linecap:butt;stroke-linejoin:miter;stroke-opacity:1;fill-opacity:1"
     d="m 251.46329,300.07089 c 0,0 5.18481,20.09114 9.72152,18.79493 4.53671,-1.2962 23.97975,-7.12911 23.97975,-7.12911 0,0 11.01772,-12.31393 4.53671,-12.31393 -6.48102,0 -22.68355,-1.9443 -22.68355,-1.9443 z"
     id="path36"
     inkscape:connector-curvature="0" />
  <path
     style="fill:#000000;stroke:none;stroke-width:1px;stroke-linecap:butt;stroke-linejoin:miter;stroke-opacity:1;fill-opacity:1"
     d="m 236.55696,368.76962 13.61013,21.38734 12.96202,5.83291 c 0,0 7.12912,-7.77721 14.90633,-6.48101 7.77722,1.2962 32.40507,7.77722 32.40507,7.77722 l 11.01772,0.6481 c 0,0 9.72152,1.9443 6.48101,-3.24051 -3.24051,-5.18481 -6.48101,-9.07342 -9.07342,-9.72152 -2.5924,-0.6481 -10.36962,-4.53671 -10.36962,-4.53671 l -38.23797,-8.42531 z"
     id="path38"
     inkscape:connector-curvature="0" />
</svg>
