<?xml version="1.0" encoding="UTF-8" standalone="no"?>
<!-- Created with Inkscape (http://www.inkscape.org/) -->

<svg
   xmlns:dc="http://purl.org/dc/elements/1.1/"
   xmlns:cc="http://creativecommons.org/ns#"
   xmlns:rdf="http://www.w3.org/1999/02/22-rdf-syntax-ns#"
   xmlns:svg="http://www.w3.org/2000/svg"
   xmlns="http://www.w3.org/2000/svg"
   xmlns:sodipodi="http://sodipodi.sourceforge.net/DTD/sodipodi-0.dtd"
   xmlns:inkscape="http://www.inkscape.org/namespaces/inkscape"
   version="1.1"
   id="svg10"
   width="512"
   height="512"
   viewBox="0 0 512 512"
   sodipodi:docname="稷.svg"
   inkscape:version="0.92.4 (5da689c313, 2019-01-14)">
  <metadata
     id="metadata16">
    <rdf:RDF>
      <cc:Work
         rdf:about="">
        <dc:format>image/svg+xml</dc:format>
        <dc:type
           rdf:resource="http://purl.org/dc/dcmitype/StillImage" />
        <dc:title></dc:title>
      </cc:Work>
    </rdf:RDF>
  </metadata>
  <defs
     id="defs14" />
  <sodipodi:namedview
     pagecolor="#ffffff"
     bordercolor="#666666"
     borderopacity="1"
     objecttolerance="10"
     gridtolerance="10"
     guidetolerance="10"
     inkscape:pageopacity="0"
     inkscape:pageshadow="2"
     inkscape:window-width="1920"
     inkscape:window-height="1017"
     id="namedview12"
     showgrid="false"
     inkscape:zoom="1.5429688"
     inkscape:cx="150.68355"
     inkscape:cy="256"
     inkscape:window-x="-8"
     inkscape:window-y="-8"
     inkscape:window-maximized="1"
     inkscape:current-layer="svg10" />
  <path
     style="fill:#000000;stroke:none;stroke-width:1px;stroke-linecap:butt;stroke-linejoin:miter;stroke-opacity:1;fill-opacity:1"
     d="m 175.63544,38.237975 11.01772,16.850633 c 0,0 5.18481,9.721519 1.94431,9.721519 -3.24051,0 -71.29114,51.200003 -75.17975,51.200003 -3.88861,0 71.93924,-10.36962 74.53165,-15.55443 2.5924,-5.184814 51.2,-7.129118 51.2,-7.129118 0,0 -8.42532,-37.589873 -11.01772,-37.589873 -2.59241,0 -51.84811,-23.331646 -52.49621,-17.498734 z"
     id="path20"
     inkscape:connector-curvature="0" />
  <path
     style="fill:#000000;stroke:none;stroke-width:1px;stroke-linecap:butt;stroke-linejoin:miter;stroke-opacity:1;fill-opacity:1"
     d="m 133.50886,129.62025 c 0,0 19.44304,21.38734 20.73924,17.49874 1.2962,-3.88861 12.96203,1.2962 14.90633,41.47848 1.9443,40.18228 1.2962,78.42025 1.2962,88.14177 0,9.72152 -7.77721,86.84557 -7.77721,86.84557 0,0 -9.72152,-2.5924 -7.77722,-0.6481 1.94431,1.9443 7.12912,33.05316 7.12912,33.05316 0,0 -1.94431,25.27595 3.2405,25.27595 5.18481,0 8.42532,6.48102 8.42532,6.48102 0,0 7.77721,-1.29621 6.48101,-4.53671 -1.2962,-3.24051 -7.77721,-40.18228 -5.83291,-49.9038 1.9443,-9.72152 -0.6481,-117.95443 3.24051,-112.76962 3.8886,5.18481 6.48101,-103.0481 9.07341,-102.4 2.59241,0.6481 7.77722,-25.27595 7.77722,-25.27595 0,0 -10.36962,-12.96203 -25.92405,-14.25823 -15.55443,-1.2962 -32.40506,14.90633 -34.99747,11.01772 z"
     id="path22"
     inkscape:connector-curvature="0" />
  <path
     style="fill:#000000;stroke:none;stroke-width:1px;stroke-linecap:butt;stroke-linejoin:miter;stroke-opacity:1;fill-opacity:1"
     d="m 12.313924,212.57722 c 0,0 93.326586,-26.57216 116.658226,-38.23798 23.33165,-11.66582 75.82785,-35.64557 81.66076,-32.40506 5.83291,3.2405 27.22025,-6.48102 26.57215,1.9443 -0.6481,8.42532 -12.96202,18.79494 -16.85063,16.85063 -3.88861,-1.9443 -79.71646,16.20254 -123.787341,45.36709 -44.070886,29.16456 -49.255697,40.83038 -49.255697,40.83038 0,0 -13.610126,3.88861 -14.906329,0 -1.296202,-3.88861 -31.75696173,-34.34936 -20.091139,-34.34936 z"
     id="path24"
     inkscape:connector-curvature="0" />
  <path
     style="fill:#000000;stroke:none;stroke-width:1px;stroke-linecap:butt;stroke-linejoin:miter;stroke-opacity:1;fill-opacity:1"
     d="m 66.75443,324.69873 c 0,0 68.69873,-39.53417 67.40253,-46.01519 -1.2962,-6.48101 43.42279,-36.29367 43.42279,-36.29367 l -1.94431,-44.71898 -14.25822,25.27595 c 0,0 -29.81266,34.99746 -60.92152,64.16202 -31.108865,29.16456 -15.554434,11.01772 -33.70127,37.58987 z"
     id="path26"
     inkscape:connector-curvature="0" />
  <path
     style="fill:#000000;stroke:none;stroke-width:1px;stroke-linecap:butt;stroke-linejoin:miter;stroke-opacity:1;fill-opacity:1"
     d="m 186.00506,209.98481 c 0,0 8.42532,1.9443 15.55443,5.18481 7.12912,3.24051 21.38735,10.36962 22.03545,14.90633 0.6481,4.53671 12.96202,17.49873 5.83291,17.49873 -7.12912,0 -18.14684,8.42532 -18.14684,2.59241 0,-5.83291 -32.40506,-43.42279 -25.27595,-40.18228 z"
     id="path28"
     inkscape:connector-curvature="0" />
  <path
     style="fill:#000000;stroke:none;stroke-width:1px;stroke-linecap:butt;stroke-linejoin:miter;stroke-opacity:1;fill-opacity:1"
     d="m 261.83291,103.6962 13.61013,25.92405 c 0,0 5.83291,3.88861 9.07342,3.24051 3.2405,-0.6481 12.96202,21.38734 12.96202,21.38734 l 7.77722,36.94177 -1.29621,30.46076 c 0,0 9.72152,14.25823 11.01773,-1.2962 1.2962,-15.55443 -4.53671,-29.81266 -3.24051,-34.34937 1.2962,-4.53671 5.18481,-40.83038 5.18481,-40.83038 0,0 -7.77722,-21.38734 -29.16456,-33.70126 -21.38734,-12.313926 -26.57215,-12.962028 -25.92405,-7.77722 z"
     id="path30"
     inkscape:connector-curvature="0" />
  <path
     style="fill:#000000;stroke:none;stroke-width:1px;stroke-linecap:butt;stroke-linejoin:miter;stroke-opacity:1;fill-opacity:1"
     d="m 314.97722,87.493671 c 0,0 22.03544,-12.962025 76.47594,-20.091139 54.44051,-7.129114 29.16456,-8.425317 29.16456,-8.425317 0,0 25.27595,4.536709 31.10886,13.610127 5.83291,9.073417 12.96203,16.850633 7.77722,17.498734 -5.18481,0.648101 -13.61013,7.129114 -12.31393,14.906334 1.29621,7.77721 -21.38734,60.92151 -16.20253,63.51392 5.18481,2.5924 -14.25823,31.75696 -9.72152,37.58987 4.53671,5.83291 -12.96202,7.12912 -14.90633,-40.83038 -1.9443,-47.95949 5.83292,-5.18481 11.01773,-10.36962 5.18481,-5.18481 14.25822,-68.05063 14.25822,-71.291137 0,-3.240506 -26.57215,-12.313924 -28.51645,-5.832911 -1.94431,6.481013 -45.36709,10.36962 -71.93924,23.979748 -26.57216,13.61013 -16.85064,-18.146837 -16.20253,-14.258229 z"
     id="path32"
     inkscape:connector-curvature="0" />
  <path
     style="fill:#000000;stroke:none;stroke-width:1px;stroke-linecap:butt;stroke-linejoin:miter;stroke-opacity:1;fill-opacity:1"
     d="m 303.31139,160.08101 c 0,0 90.08608,-37.58987 92.67848,-34.99747 2.59241,2.59241 20.73924,1.29621 19.44304,5.83292 -1.2962,4.5367 -9.72152,12.96202 -13.61013,14.25822 -3.8886,1.29621 -77.77215,25.27595 -77.77215,25.27595 0,0 -31.10886,-1.2962 -20.73924,-10.36962 z"
     id="path34"
     inkscape:connector-curvature="0" />
  <path
     style="fill:#000000;stroke:none;stroke-width:1px;stroke-linecap:butt;stroke-linejoin:miter;stroke-opacity:1;fill-opacity:1"
     d="m 340.25316,110.82532 28.51646,9.07341 c 0,0 7.77722,3.24051 0.6481,40.83038 -7.12911,37.58988 -3.2405,40.18228 -20.09114,13.61013 -16.85063,-26.57215 8.42532,-26.57215 5.83291,-40.18228 -2.5924,-13.61012 -25.92405,0.6481 -14.90633,-23.33164 z"
     id="path36"
     inkscape:connector-curvature="0" />
  <path
     style="fill:#000000;stroke:none;stroke-width:1px;stroke-linecap:butt;stroke-linejoin:miter;stroke-opacity:1;fill-opacity:1"
     d="m 443.94937,196.37468 c 0,0 -69.99494,7.12912 -85.54937,13.61013 -15.55443,6.48101 -74.53165,36.29367 -74.53165,36.29367 0,0 -27.22025,-2.5924 -15.55443,-20.09114 11.66583,-17.49873 24.62785,-10.36962 24.62785,-10.36962 l 54.44051,-13.61013 47.95949,-12.31392 36.94177,0.6481 z"
     id="path40"
     inkscape:connector-curvature="0" />
  <path
     style="fill:#000000;stroke:none;stroke-width:1px;stroke-linecap:butt;stroke-linejoin:miter;stroke-opacity:1;fill-opacity:1"
     d="m 247.57468,320.16203 c 0,0 33.70127,-12.31393 38.23798,-18.79494 4.53671,-6.48101 29.16456,-30.46076 29.16456,-36.94177 0,-6.48102 -7.77722,-18.79494 -7.77722,-18.79494 0,0 -53.79241,73.88354 -59.62532,74.53165 z"
     id="path42"
     inkscape:connector-curvature="0" />
  <path
     style="fill:#000000;stroke:none;stroke-width:1px;stroke-linecap:butt;stroke-linejoin:miter;stroke-opacity:1;fill-opacity:1"
     d="m 359.0481,259.24051 3.88861,12.96202 -19.44304,31.75696 -49.9038,53.14431 c 0,0 -76.47595,62.86582 -82.30886,60.27342 -5.83291,-2.59241 0,16.20253 0,16.20253 l 19.44304,-5.18481 c 0,0 62.86582,-49.9038 82.95696,-69.99494 20.09114,-20.09114 46.01519,-62.86582 49.2557,-63.51392 3.24051,-0.64811 14.90633,-14.90633 14.90633,-14.90633 0,0 4.53671,4.53671 6.48101,-0.6481 1.9443,-5.18481 1.2962,-21.38735 -4.53671,-20.73924 -5.83291,0.6481 -23.33164,-8.42532 -21.38734,3.2405 1.9443,11.66582 0.6481,-2.5924 0.6481,-2.5924 z"
     id="path44"
     inkscape:connector-curvature="0" />
  <path
     style="fill:#000000;stroke:none;stroke-width:1px;stroke-linecap:butt;stroke-linejoin:miter;stroke-opacity:1;fill-opacity:1"
     d="m 377.19494,270.25823 42.12658,22.68354 5.18481,16.85064 c 0,0 -16.20253,16.85063 -16.20253,21.38734 0,4.53671 -50.5519,71.93924 -50.5519,71.93924 0,0 -37.58987,28.51645 -43.42279,27.86835 -5.83291,-0.6481 -25.27595,1.94431 -11.01772,-7.12911 14.25823,-9.07342 58.32912,-45.36709 60.27342,-49.9038 1.9443,-4.53671 35.64557,-60.92152 33.70127,-62.86582 -1.94431,-1.94431 -1.94431,-15.55443 -4.53671,-17.49874 -2.59241,-1.9443 -24.62785,-13.61012 -24.62785,-11.01772 0,2.59241 9.07342,-12.31392 9.07342,-12.31392 z"
     id="path46"
     inkscape:connector-curvature="0" />
  <path
     style="fill:#000000;stroke:none;stroke-width:1px;stroke-linecap:butt;stroke-linejoin:miter;stroke-opacity:1;fill-opacity:1"
     d="m 314.97722,304.60759 c 0,0 -11.66583,22.03545 -8.42532,23.33165 3.24051,1.2962 19.44304,12.31392 26.57215,11.01772 7.12911,-1.2962 24.62785,5.18481 25.92405,8.42532 1.2962,3.2405 29.81266,30.46076 34.34937,35.64557 4.53671,5.18481 69.99494,55.73671 73.88354,51.8481 3.88861,-3.88861 3.88861,-3.88861 3.88861,-3.88861 0,0 19.44304,7.12912 24.62785,1.2962 5.18481,-5.83291 9.72152,-5.18481 9.72152,-5.18481 h 14.25823 L 504.22278,407.6557 c 0,0 -203.50379,-95.91899 -189.24556,-103.04811 z"
     id="path48"
     inkscape:connector-curvature="0" />
  <path
     style="fill:#000000;stroke:none;stroke-width:1px;stroke-linecap:butt;stroke-linejoin:miter;stroke-opacity:1;fill-opacity:1"
     d="m 435.52404,222.94684 c 0,0 26.57215,19.44304 27.86835,23.97975 1.2962,4.53671 11.01772,17.49873 13.61013,14.90633 2.5924,-2.59241 12.31392,0.6481 9.72151,-4.53671 -2.5924,-5.18481 -7.12911,-25.92405 -7.12911,-25.92405 0,0 -33.70126,-7.12911 -33.70126,-9.72152 0,-2.5924 -12.31393,-2.5924 -12.31393,-2.5924 z"
     id="path13171"
     inkscape:connector-curvature="0" />
</svg>
