<?xml version="1.0" encoding="UTF-8" standalone="no"?>
<!-- Created with Inkscape (http://www.inkscape.org/) -->

<svg
   xmlns:dc="http://purl.org/dc/elements/1.1/"
   xmlns:cc="http://creativecommons.org/ns#"
   xmlns:rdf="http://www.w3.org/1999/02/22-rdf-syntax-ns#"
   xmlns:svg="http://www.w3.org/2000/svg"
   xmlns="http://www.w3.org/2000/svg"
   xmlns:sodipodi="http://sodipodi.sourceforge.net/DTD/sodipodi-0.dtd"
   xmlns:inkscape="http://www.inkscape.org/namespaces/inkscape"
   version="1.1"
   id="svg10"
   width="512"
   height="512"
   viewBox="0 0 512 512"
   sodipodi:docname="賞.svg"
   inkscape:version="0.92.4 (5da689c313, 2019-01-14)">
  <metadata
     id="metadata16">
    <rdf:RDF>
      <cc:Work
         rdf:about="">
        <dc:format>image/svg+xml</dc:format>
        <dc:type
           rdf:resource="http://purl.org/dc/dcmitype/StillImage" />
        <dc:title></dc:title>
      </cc:Work>
    </rdf:RDF>
  </metadata>
  <defs
     id="defs14" />
  <sodipodi:namedview
     pagecolor="#ffffff"
     bordercolor="#666666"
     borderopacity="1"
     objecttolerance="10"
     gridtolerance="10"
     guidetolerance="10"
     inkscape:pageopacity="0"
     inkscape:pageshadow="2"
     inkscape:window-width="1920"
     inkscape:window-height="1017"
     id="namedview12"
     showgrid="false"
     inkscape:zoom="1.5429688"
     inkscape:cx="150.68355"
     inkscape:cy="256"
     inkscape:window-x="-8"
     inkscape:window-y="-8"
     inkscape:window-maximized="1"
     inkscape:current-layer="svg10" />
  <path
     style="fill:#000000;stroke:none;stroke-width:1px;stroke-linecap:butt;stroke-linejoin:miter;stroke-opacity:1;fill-opacity:1"
     d="m 51.848101,106.93671 c 0,0 1.296203,11.01772 5.18481,13.61013 3.888608,2.5924 1.296203,57.03291 -4.536708,56.38481 -5.832912,-0.64811 -16.850633,0.6481 -16.850633,7.12911 0,6.48101 -0.648102,20.09114 4.536708,20.09114 5.184811,0 8.425317,9.72152 18.794937,2.5924 10.36962,-7.12911 19.443038,-53.7924 18.794937,-57.03291 -0.648101,-3.2405 -9.721519,-58.329112 -25.924051,-42.77468 z"
     id="path20"
     inkscape:connector-curvature="0" />
  <path
     style="fill:#000000;stroke:none;stroke-width:1px;stroke-linecap:butt;stroke-linejoin:miter;stroke-opacity:1;fill-opacity:1"
     d="m 114.71392,68.050633 c 0.64811,3.240506 -3.2405,18.146835 -0.6481,19.443038 2.59241,1.296202 12.31393,9.721519 15.55443,11.665823 3.24051,1.944306 12.31393,6.481016 12.31393,3.240506 0,-3.240506 1.9443,-22.035443 -0.6481,-24.627848 -2.59241,-2.592405 -22.68355,-7.129114 -22.68355,-7.129114 h -2.5924 z"
     id="path22"
     inkscape:connector-curvature="0" />
  <path
     style="fill:#000000;stroke:none;stroke-width:1px;stroke-linecap:butt;stroke-linejoin:miter;stroke-opacity:1;fill-opacity:1"
     d="m 148.41519,19.443038 c 0,0 1.2962,10.36962 5.18481,11.017721 3.88861,0.648102 17.49873,12.313925 19.44304,15.554431 1.9443,3.240506 12.31392,18.794937 9.72152,21.387342 -2.59241,2.592405 -3.88861,22.035443 -3.88861,25.92405 0,3.888608 2.5924,13.610128 8.42532,14.906328 5.83291,1.2962 12.96202,-6.48101 11.66582,-15.554429 -1.2962,-9.073418 7.12911,-33.701266 9.72152,-29.164557 2.5924,4.536709 -1.2962,-27.220253 -18.79494,-33.701266 -17.49873,-6.481012 -42.12658,-15.55443 -41.47848,-10.36962 z"
     id="path24"
     inkscape:connector-curvature="0" />
  <path
     style="fill:#000000;stroke:none;stroke-width:1px;stroke-linecap:butt;stroke-linejoin:miter;stroke-opacity:1;fill-opacity:1"
     d="m 243.68608,24.627848 9.72151,15.55443 c 0,0 5.18482,21.387342 0.64811,22.035444 -4.53671,0.648101 -3.88861,13.610126 -7.77722,18.794936 -3.88861,5.18481 1.2962,5.832912 3.24051,5.832912 1.9443,0 16.85063,-6.481013 16.20253,-10.369621 -0.6481,-3.888607 12.96202,-22.035443 12.96202,-22.035443 l 5.83292,-3.888607 c 0,0 0,-9.073418 -14.90633,-18.794937 -14.90633,-9.721519 -16.20254,-15.55443 -25.92405,-7.129114 z"
     id="path26"
     inkscape:connector-curvature="0" />
  <path
     style="fill:#000000;stroke:none;stroke-width:1px;stroke-linecap:butt;stroke-linejoin:miter;stroke-opacity:1;fill-opacity:1"
     d="m 101.1038,110.82532 c 2.5924,0 173.69114,-35.645573 201.55949,-32.405067 27.86836,3.240506 42.77468,-6.481012 64.16203,-5.18481 21.38734,1.296203 46.01519,27.868357 46.01519,27.868357 0,0 -4.53671,25.27595 -10.36962,29.81266 -5.83292,4.5367 -30.46076,2.5924 -27.86836,-2.59241 2.59241,-5.18481 11.66582,-25.27595 7.77722,-27.22025 -3.88861,-1.944306 5.18481,-10.369623 -4.53671,-11.017724 -9.72152,-0.648101 -130.26836,-7.129114 -130.91646,1.296202 -0.6481,8.425317 -160.729112,27.220252 -130.26835,22.683542 30.46076,-4.53671 -20.091141,3.88861 -15.55443,-3.2405 z"
     id="path28"
     inkscape:connector-curvature="0" />
  <path
     style="fill:#000000;stroke:none;stroke-width:1px;stroke-linecap:butt;stroke-linejoin:miter;stroke-opacity:1;fill-opacity:1"
     d="m 114.71392,153.6 c -3.2405,7.12911 2.59241,17.49873 2.59241,17.49873 0,0 10.36962,0 9.72152,7.12912 -0.6481,7.12911 0.6481,18.14683 1.2962,29.81266 0.6481,11.66582 -8.42532,18.79493 0.6481,18.14683 9.07342,-0.6481 11.66582,-2.5924 13.61013,-1.9443 1.9443,0.6481 3.2405,-41.47848 0.6481,-47.9595 -2.59241,-6.48101 -5.18481,-21.38734 -13.61013,-22.68354 -8.42531,-1.2962 -14.90633,-6.48101 -14.90633,0 z"
     id="path30"
     inkscape:connector-curvature="0" />
  <path
     style="fill:#000000;stroke:none;stroke-width:1px;stroke-linecap:butt;stroke-linejoin:miter;stroke-opacity:1;fill-opacity:1"
     d="m 162.02532,138.04557 c 0,0 66.10633,-13.61013 64.16202,-16.85063 -1.9443,-3.24051 31.10886,3.2405 27.22025,14.25822 -3.8886,11.01773 -20.73924,55.08861 -16.20253,57.03292 4.53671,1.9443 -20.09114,0.6481 -19.44303,-2.59241 0.6481,-3.24051 -3.24051,-6.48101 1.9443,-16.20253 5.18481,-9.72152 6.48101,-24.62785 6.48101,-24.62785 0,0 -34.99747,2.59241 -36.94177,9.72152 -1.9443,7.12911 -22.03544,-2.5924 -22.03544,-2.5924 0,0 -9.07342,-20.73925 -5.18481,-18.14684 z"
     id="path32"
     inkscape:connector-curvature="0" />
  <path
     style="fill:#000000;stroke:none;stroke-width:1px;stroke-linecap:butt;stroke-linejoin:miter;stroke-opacity:1;fill-opacity:1"
     d="m 136.74937,198.96709 c 0,0 20.73924,-7.12912 29.16455,-7.77722 8.42532,-0.6481 37.58988,-7.77721 40.83038,-10.36962 3.24051,-2.5924 20.09114,-7.77721 21.38735,-3.2405 1.2962,4.53671 14.90632,16.85063 -0.64811,18.79493 -15.55443,1.94431 -40.83038,1.94431 -42.12658,5.83291 -1.2962,3.88861 -52.4962,5.83292 -48.60759,-3.2405 z"
     id="path34"
     inkscape:connector-curvature="0" />
  <path
     style="fill:#000000;stroke:none;stroke-width:1px;stroke-linecap:butt;stroke-linejoin:miter;stroke-opacity:1;fill-opacity:1"
     d="m 103.0481,259.88861 c 0,0 18.79494,26.57215 24.62785,27.22025 5.83291,0.6481 5.18481,46.01519 1.2962,47.31139 -3.88861,1.29621 -7.12911,34.99747 -3.2405,37.58988 3.8886,2.5924 2.5924,23.33164 7.77721,18.14683 5.18481,-5.18481 13.61013,-11.01772 12.96203,-17.49873 -0.64811,-6.48101 5.83291,-26.57215 3.2405,-32.40507 -2.5924,-5.83291 -0.6481,-17.49873 -3.88861,-21.38734 -3.2405,-3.8886 -2.5924,-37.58987 -2.5924,-37.58987 0,0 -6.48101,-26.57215 -20.09114,-23.97975 -13.61013,2.59241 -23.331645,-4.53671 -20.09114,2.59241 z"
     id="path36"
     inkscape:connector-curvature="0" />
  <path
     style="fill:#000000;stroke:none;stroke-width:1px;stroke-linecap:butt;stroke-linejoin:miter;stroke-opacity:1;fill-opacity:1"
     d="m 143.87848,236.55696 79.71646,-20.73924 18.79493,-3.2405 27.86836,21.38734 c 0,0 3.2405,5.18481 1.9443,17.49873 -1.2962,12.31393 -7.12911,9.07342 -7.12911,49.2557 0,40.18228 -2.59241,75.82785 -2.59241,75.82785 0,0 5.18481,32.40506 -0.6481,31.75696 -5.83291,-0.6481 -25.27595,-31.75696 -21.38734,-31.75696 3.88861,0 10.36962,-77.77216 10.36962,-77.77216 l -2.59241,-55.0886 c 0,0 -6.48101,-9.72152 -11.01772,-8.42532 -4.53671,1.2962 -56.38481,6.48101 -58.32911,12.31392 -1.9443,5.83291 -18.79494,5.18481 -18.79494,8.42532 0,3.24051 -25.27595,-20.09114 -16.20253,-19.44304 z"
     id="path38"
     inkscape:connector-curvature="0" />
  <path
     style="fill:#000000;stroke:none;stroke-width:1px;stroke-linecap:butt;stroke-linejoin:miter;stroke-opacity:1;fill-opacity:1"
     d="m 169.15443,278.03544 39.53418,-11.66582 c 0,0 10.36962,0 9.07342,5.18481 -1.29621,5.18481 -7.77722,9.07342 -12.31393,9.72152 -4.53671,0.6481 -14.25823,3.88861 -18.79494,4.53671 -4.5367,0.6481 -9.72151,1.2962 -9.72151,1.2962 0,0 -9.72152,-3.24051 -7.77722,-9.07342 z"
     id="path40"
     inkscape:connector-curvature="0" />
  <path
     style="fill:#000000;stroke:none;stroke-width:1px;stroke-linecap:butt;stroke-linejoin:miter;stroke-opacity:1;fill-opacity:1"
     d="m 139.34177,338.95696 c 0,0 57.68101,-12.96202 55.73671,-16.85063 -1.9443,-3.88861 22.68355,-3.88861 22.68355,-3.88861 0,0 12.96202,1.94431 10.36962,7.12912 -2.59241,5.18481 -31.10887,3.8886 -31.10887,7.77721 0,3.88861 -51.8481,12.96203 -51.8481,12.96203 0,0 -10.36962,-7.12912 -5.83291,-7.12912 z"
     id="path42"
     inkscape:connector-curvature="0" />
  <path
     style="fill:#000000;stroke:none;stroke-width:1px;stroke-linecap:butt;stroke-linejoin:miter;stroke-opacity:1;fill-opacity:1"
     d="m 97.863291,397.28608 c 0,0 100.455699,-29.16456 134.156959,-31.75697 33.70127,-2.5924 22.68355,9.72152 22.68355,9.72152 L 204.8,380.43544 c 0,0 -36.29367,5.18481 -66.75443,16.85064 -30.46076,11.66582 -37.58987,12.96202 -40.182279,0 z"
     id="path44"
     inkscape:connector-curvature="0" />
  <path
     style="fill:#000000;stroke:none;stroke-width:1px;stroke-linecap:butt;stroke-linejoin:miter;stroke-opacity:1;fill-opacity:1"
     d="m 33.053165,445.89367 c 0,0 -6.481013,27.22025 -3.240507,27.22025 3.240507,0 7.129114,16.20254 9.721519,14.90633 2.592405,-1.2962 7.777215,3.88861 11.665823,-1.9443 3.888608,-5.83291 3.888608,-13.61013 3.888608,-13.61013 0,0 -18.794937,-27.22025 -22.035443,-26.57215 z"
     id="path46"
     inkscape:connector-curvature="0" />
  <path
     style="fill:#000000;stroke:none;stroke-width:1px;stroke-linecap:butt;stroke-linejoin:miter;stroke-opacity:1;fill-opacity:1"
     d="m 314.97722,425.15443 c 2.5924,3.24051 27.86835,51.8481 27.86835,51.8481 l 14.25823,7.77722 c 0,0 9.07342,3.2405 7.12911,-5.83291 -1.9443,-9.07342 -7.12911,-37.58988 -12.96202,-34.99747 -5.83292,2.5924 -36.29367,-18.79494 -36.29367,-18.79494 z"
     id="path48"
     inkscape:connector-curvature="0" />
</svg>
