<?xml version="1.0" encoding="UTF-8" standalone="no"?>
<!-- Created with Inkscape (http://www.inkscape.org/) -->

<svg
   xmlns:dc="http://purl.org/dc/elements/1.1/"
   xmlns:cc="http://creativecommons.org/ns#"
   xmlns:rdf="http://www.w3.org/1999/02/22-rdf-syntax-ns#"
   xmlns:svg="http://www.w3.org/2000/svg"
   xmlns="http://www.w3.org/2000/svg"
   xmlns:sodipodi="http://sodipodi.sourceforge.net/DTD/sodipodi-0.dtd"
   xmlns:inkscape="http://www.inkscape.org/namespaces/inkscape"
   version="1.1"
   id="svg10"
   width="512"
   height="512"
   viewBox="0 0 512 512"
   sodipodi:docname="魚.svg"
   inkscape:version="0.92.4 (5da689c313, 2019-01-14)">
  <metadata
     id="metadata16">
    <rdf:RDF>
      <cc:Work
         rdf:about="">
        <dc:format>image/svg+xml</dc:format>
        <dc:type
           rdf:resource="http://purl.org/dc/dcmitype/StillImage" />
        <dc:title></dc:title>
      </cc:Work>
    </rdf:RDF>
  </metadata>
  <defs
     id="defs14" />
  <sodipodi:namedview
     pagecolor="#ffffff"
     bordercolor="#666666"
     borderopacity="1"
     objecttolerance="10"
     gridtolerance="10"
     guidetolerance="10"
     inkscape:pageopacity="0"
     inkscape:pageshadow="2"
     inkscape:window-width="1920"
     inkscape:window-height="1017"
     id="namedview12"
     showgrid="false"
     inkscape:zoom="1.5429688"
     inkscape:cx="150.68355"
     inkscape:cy="256"
     inkscape:window-x="-8"
     inkscape:window-y="-8"
     inkscape:window-maximized="1"
     inkscape:current-layer="svg10" />
  <path
     style="fill:#000000;stroke:none;stroke-width:1px;stroke-linecap:butt;stroke-linejoin:miter;stroke-opacity:1;fill-opacity:1"
     d="m 235.90886,69.346835 3.88861,12.313924 c 0,0 -2.59241,25.924051 -9.07342,28.516461 -6.48101,2.5924 -42.77468,63.51392 -106.28861,93.32658 -63.513921,29.81266 -69.346832,32.40506 -69.346832,32.40506 0,0 -11.017722,6.48101 39.534177,-3.88861 50.551895,-10.36962 132.212655,-90.08607 149.063295,-103.6962 16.85063,-13.61013 18.79493,-32.405063 18.79493,-32.405063 0,0 -18.14683,-33.701265 -26.57215,-26.572152 z"
     id="path20"
     inkscape:connector-curvature="0" />
  <path
     style="fill:#000000;stroke:none;stroke-width:1px;stroke-linecap:butt;stroke-linejoin:miter;stroke-opacity:1;fill-opacity:1"
     d="m 284.51646,171.09873 c 0,0 24.62784,-5.83291 31.75696,-13.61012 7.12911,-7.77722 29.16455,-34.99747 31.75696,-31.10886 2.5924,3.8886 9.07342,1.2962 9.07342,-3.24051 0,-4.53671 -18.14684,-48.607594 -13.61013,-47.311392 4.53671,1.296203 -1.9443,-10.36962 -5.18481,-7.129114 -3.24051,3.240507 -11.01772,5.832912 -11.01772,11.017722 0,5.18481 -5.18481,9.721519 -4.53671,18.794936 0.6481,9.073418 14.90633,-7.777215 -7.77721,1.296203 -22.68355,9.073415 -37.58988,14.258225 -37.58988,14.258225 L 252.75949,99.159494 c 0,0 7.12912,27.220256 11.66583,28.516456 4.53671,1.2962 11.66582,8.42532 15.55443,3.88861 3.8886,-4.53671 25.92405,-16.20253 25.92405,-16.20253 l 16.20253,0.6481 c 0,0 -7.12911,16.85063 -11.01772,18.79493 -3.88861,1.94431 -28.51646,25.27595 -27.86836,31.10886 0.6481,5.83292 1.29621,5.18481 1.29621,5.18481 z"
     id="path22"
     inkscape:connector-curvature="0" />
  <path
     style="fill:#000000;stroke:none;stroke-width:1px;stroke-linecap:butt;stroke-linejoin:miter;stroke-opacity:1;fill-opacity:1"
     d="m 162.67342,213.22532 24.62785,23.33164 9.07341,9.72152 c 0,0 13.61013,81.01266 9.07342,81.66076 -4.53671,0.6481 6.48101,11.66582 6.48101,11.66582 0,0 8.42532,-14.90633 7.77722,-18.14683 -0.6481,-3.24051 -6.48101,-77.12405 -6.48101,-77.12405 0,0 -31.10886,-32.40507 -38.88608,-29.81266 -7.77721,2.5924 -11.66582,-1.2962 -11.66582,-1.2962 z"
     id="path24"
     inkscape:connector-curvature="0" />
  <path
     style="fill:#000000;stroke:none;stroke-width:1px;stroke-linecap:butt;stroke-linejoin:miter;stroke-opacity:1;fill-opacity:1"
     d="m 202.20759,198.96709 c 0,0 7.77722,16.85063 11.01773,18.14683 3.2405,1.29621 22.03544,-1.9443 22.03544,-1.9443 0,0 60.27342,-19.44304 64.16202,-18.14684 3.88861,1.29621 44.71899,-3.8886 44.71899,-3.8886 l 6.48101,3.8886 c 0,0 -5.83291,19.44304 -5.83291,24.62785 0,5.18481 -12.31392,74.53165 -12.31392,74.53165 l -3.88861,12.31392 7.12912,18.14684 c 0,0 11.01772,1.9443 11.66582,-3.24051 0.6481,-5.18481 14.25823,-60.92152 14.25823,-60.92152 l 11.01772,-43.42278 c 0,0 18.79493,-1.94431 18.79493,-5.83291 0,-3.88861 9.07342,-13.61013 5.18481,-15.55443 -3.8886,-1.94431 -9.07341,-2.59241 -11.01772,-7.77722 -1.9443,-5.18481 -2.5924,-18.14683 -13.61012,-20.73924 -11.01772,-2.5924 -5.83291,-10.36962 -27.22026,0 -21.38734,10.36962 -141.28607,30.46076 -142.58228,25.92405 -1.2962,-4.53671 -3.2405,3.24051 0,3.88861 z"
     id="path26"
     inkscape:connector-curvature="0" />
  <path
     style="fill:#000000;stroke:none;stroke-width:1px;stroke-linecap:butt;stroke-linejoin:miter;stroke-opacity:1;fill-opacity:1"
     d="m 230.72405,266.36962 c 0,0 11.01772,16.85063 14.25823,16.20253 3.2405,-0.6481 53.7924,-23.33164 60.27342,-20.09114 6.48101,3.24051 12.31392,-11.66582 12.31392,-11.66582 0,0 -8.42532,-5.18481 -14.90633,-4.53671 -6.48101,0.6481 -7.12911,3.24051 -13.61013,7.12911 -6.48101,3.88861 -54.4405,16.20254 -58.32911,12.96203 z"
     id="path28"
     inkscape:connector-curvature="0" />
  <path
     style="fill:#000000;stroke:none;stroke-width:1px;stroke-linecap:butt;stroke-linejoin:miter;stroke-opacity:1;fill-opacity:1"
     d="m 252.11139,221.65063 c 0,0 0.6481,9.07342 3.88861,11.01772 3.24051,1.94431 9.07342,17.49874 9.07342,17.49874 l 1.9443,42.77468 c 0,0 3.24051,19.44304 8.42532,15.55443 5.18481,-3.88861 12.31392,-27.86835 9.72152,-29.81266 -2.59241,-1.9443 1.2962,-47.95949 2.5924,-42.12658 1.2962,5.83291 -7.12911,-25.92405 -14.90633,-19.44304 -7.77721,6.48102 -14.90633,-4.5367 -17.49873,5.83292 -2.59241,10.36962 -2.59241,-0.64811 -3.24051,-1.29621 z"
     id="path30"
     inkscape:connector-curvature="0" />
  <path
     style="fill:#000000;stroke:none;stroke-width:1px;stroke-linecap:butt;stroke-linejoin:miter;stroke-opacity:1;fill-opacity:1"
     d="m 173.69114,341.54937 c 0,0 12.31392,18.79493 14.90633,18.79493 2.5924,0 24.62785,-14.90633 30.46076,-14.90633 5.83291,0 55.73671,-16.85063 59.62531,-13.61012 3.88861,3.2405 64.81013,6.48101 64.81013,6.48101 0,0 26.57215,0.6481 19.44304,-2.5924 -7.12912,-3.24051 -38.23798,-20.73924 -41.47848,-20.73924 -3.24051,0 -150.3595,22.03544 -147.76709,26.57215 z"
     id="path32"
     inkscape:connector-curvature="0" />
  <path
     style="fill:#000000;stroke:none;stroke-width:1px;stroke-linecap:butt;stroke-linejoin:miter;stroke-opacity:1;fill-opacity:1"
     d="m 95.918987,400.52658 c 0,0 -7.777215,29.16456 -7.129114,33.70127 0.648102,4.53671 12.962027,36.29367 14.258227,31.10886 1.2962,-5.18481 10.36962,-18.14684 5.83291,-21.38734 -4.53671,-3.24051 -12.962023,-43.42279 -12.962023,-43.42279 z"
     id="path34"
     inkscape:connector-curvature="0" />
  <path
     style="fill:#000000;stroke:none;stroke-width:1px;stroke-linecap:butt;stroke-linejoin:miter;stroke-opacity:1;fill-opacity:1"
     d="m 183.41266,386.26835 c 0,0 24.62785,47.3114 26.57215,44.71899 1.9443,-2.5924 17.49873,-29.81266 14.25823,-32.40506 -3.24051,-2.59241 -5.18481,-1.2962 -9.07342,-2.59241 -3.88861,-1.2962 -30.46076,-5.18481 -31.75696,-9.72152 z"
     id="path36"
     inkscape:connector-curvature="0" />
  <path
     style="fill:#000000;stroke:none;stroke-width:1px;stroke-linecap:butt;stroke-linejoin:miter;stroke-opacity:1;fill-opacity:1"
     d="m 279.33165,371.36203 2.5924,10.36962 7.77722,9.07341 11.01772,14.90633 12.31392,0.6481 c 0,0 6.48101,1.29621 4.53671,-5.18481 -1.9443,-6.48101 -7.12911,-7.77721 -12.31392,-10.36962 -5.18481,-2.5924 0,-0.6481 -7.77722,-5.83291 -7.77721,-5.18481 -12.31392,-12.31392 -15.55443,-11.66582 -3.24051,0.6481 -2.5924,-1.9443 -2.5924,-1.9443 z"
     id="path38"
     inkscape:connector-curvature="0" />
  <path
     style="fill:#000000;stroke:none;stroke-width:1px;stroke-linecap:butt;stroke-linejoin:miter;stroke-opacity:1;fill-opacity:1"
     d="m 372.01013,361.64051 c 0,0 23.33164,16.20253 25.92405,16.20253 2.5924,0 27.86835,24.62785 27.86835,24.62785 l 20.09114,38.88607 11.66582,11.66582 c 0,0 8.42532,1.29621 6.48102,-5.83291 -1.94431,-7.12911 -1.29621,-20.09114 -5.18481,-23.33164 -3.88861,-3.24051 -22.68355,-22.68355 -25.27595,-26.57215 -2.59241,-3.88861 -8.42532,-19.44304 -8.42532,-19.44304 0,0 -29.81266,-18.79494 -35.64557,-14.25823 -5.83291,4.53671 -18.14683,-8.42532 -17.49873,-1.9443 z"
     id="path40"
     inkscape:connector-curvature="0" />
</svg>
