<?xml version="1.0" standalone="no"?>
<!DOCTYPE svg PUBLIC "-//W3C//DTD SVG 1.1//EN" "http://www.w3.org/Graphics/SVG/1.1/DTD/svg11.dtd" >
<svg xmlns="http://www.w3.org/2000/svg" xmlns:xlink="http://www.w3.org/1999/xlink" version="1.1" viewBox="0 0 256 256">
  <g transform="matrix(1 0 0 -1 0 204)">
   <path fill="currentColor"
d="M81 169q3 -6 0 -7q-7 -2 -11 1q-3 1 -4 0q-3 -2 -4 -1l1 3q1 2 -8 7q-2 0 -2 2q1 1 3 1q7 -1 21 -5q2 -1 4 -1zM46 106q7 2 13 1q3 -1 3 -4q-3 -4 -9 -4l-1 -1q-3 -1 -3 -3q-2 -4 -2 1v2t-2 1q-14 -2 -25 2q-4 1 0 2q12 -2 26 3zM78 69q-10 -36 -12 -48q-3 -15 -2 -29
q-3 -5 -8 2q0 4 -2 7v4q-5 6 -4 14q0 4 2 -1v-2q0 -4 4 -7q1 -4 2 1q5 28 18 60q2 7 2 -1zM169 89v35q1 14 1 41q-13 -2 -32 -7v-39q1 -29 1 -47q21 5 27 6q-1 1 -1 3q-1 1 -1 3q-1 2 0 2h3q1 -2 2 3zM111 62q10 -11 9 -17q0 -15 -1 -24q0 -10 -1 -21q-1 -1 0 -2h5
q23 4 64 8q7 -1 10 2q5 3 10 0q12 -6 21 -8q1 -3 0 -6q-6 -1 -12 2q-16 6 -31 7q-54 -3 -67 -13q-3 -4 -5 -1q-7 11 -3 11q5 0 4 4q3 40 -5 58q-5 -2 -11 -3q-14 -5 -20 -3q-3 0 0 2q2 0 9 2q23 5 45 11q-1 14 1 16q1 1 1 8q-1 24 -2 61q-20 -6 -23 -2q-3 0 -3 1t3 2
q10 1 22 4q-1 11 -5 17q-3 4 1 2q13 -14 11 -13q-2 -2 -1 -5q12 2 33 7q0 20 -1 26q0 7 -2 11q-2 3 2 1q15 -17 12 -16q-3 -9 -4 -20q4 1 6 4q1 2 7 1q1 0 8 -2q3 -1 6 -1q3 -4 1 -5q-16 1 -28 -1q-1 -6 -1 -19q-3 -44 -3 -69q23 4 37 5q2 8 7 7q2 -2 10 -3q7 -2 10 -2
q2 -1 2 -4q-1 -2 -4 -2q-25 3 -62 -4v-7l1 -3q0 -2 -1 -4q-1 -1 -1 1q-1 0 -2 2q-3 5 -3 10q-5 -2 -14 -3q-10 -2 -14 -3q0 -6 -3 -5q-2 -1 -3 4zM151 133q8 5 13 5l2 -2q0 -1 -1 -1q-9 -6 -12 -9q-4 -4 -1 2q1 2 -6 1q-4 -1 -1 1q3 1 6 3zM163 106q1 -1 0 -5q-9 -5 -18 -5
q-3 1 0 2q6 1 18 8zM141 51q1 4 2 -1q0 -20 -19 -29q-6 -3 -1 2q12 10 18 28zM199 30q-9 2 -12 9q-5 5 -18 19q-4 3 1 1q22 -12 32 -22q2 -2 1 -5q-2 -3 -4 -2z" />
  </g>

</svg>
