<?xml version="1.0" standalone="no"?>
<!DOCTYPE svg PUBLIC "-//W3C//DTD SVG 1.1//EN" "http://www.w3.org/Graphics/SVG/1.1/DTD/svg11.dtd" >
<svg xmlns="http://www.w3.org/2000/svg" xmlns:xlink="http://www.w3.org/1999/xlink" version="1.1" viewBox="0 0 256 256">
  <g transform="matrix(1 0 0 -1 0 204)">
   <path fill="currentColor"
d="M153 51q18 1 27 -19q2 -5 -1 -5t-5 -3q-5 -7 -18 -15q4 -1 13 -2h16q5 -2 9 1q5 3 14 -3q6 -5 11 -5q6 0 15 -8q2 -2 -1 -5q-2 -2 -4 -1q-7 3 -13 10q-11 8 -31 8h-21q-11 1 -16 1q-14 -4 -31 -2q-34 -4 -68 -13q-27 -5 -28 2q0 4 4 2q1 -3 19 1q15 3 49 6q2 0 4 1
q0 4 -7 6q-5 -1 -6 8q0 10 -1 11q-2 2 0 7q0 1 1 1l2 -2q-2 -9 4 -12q3 -4 6 -7q9 -8 11 -10h3q-6 7 -5 15q0 11 -4 16q-4 -2 -8 -1q-3 0 -3 1t3 2q33 15 60 14zM71 121q1 -4 1 -8q-1 -3 -2 -7v-6q11 0 29 15q3 3 8 -1q3 -3 -1 -6l-2 -2q-3 -2 -3 -4q-2 -2 -5 -6t-7 -7
q4 1 9 4q2 4 8 1q3 -2 0 -5q-4 -5 -13 -19q-2 -3 -2 -4q14 13 34 35q4 4 1 -2q-27 -40 -49 -48q1 -4 3 -5q1 -3 0 -4q0 -1 -3 0q-9 0 -8 5q-1 2 -3 5v2q-4 1 2 8q0 2 -1 6v5q-5 4 0 6v16q-3 1 -3 2t3 2q0 4 1 16q0 4 1 6q0 3 2 0zM115 8q1 1 5 0q16 -3 31 5q10 8 18 20
q6 11 -10 16q-21 -2 -32 -5q8 -11 5 -19q-2 -8 -9 -14q-2 -2 -3 -1q0 1 1 4q9 16 3 28q-9 -2 -18 -6v-3q4 -15 9 -25zM75 185q-3 4 1 2q11 -11 17 -21q2 0 5 1q27 5 40 9q14 21 14 30q0 2 1 2q1 1 2 0q6 -9 2 -15q-2 -2 -4 -6q-3 -5 -5 -7q0 -1 -1 -2q25 6 29 10q6 4 19 -1
q1 -1 0 -2t-2 -1q-15 -2 -49 -10q-10 -13 -20 -20q-4 -3 -1 2q2 2 4 5q6 7 9 11q-30 -8 -41 -11q1 -3 2 -7q1 -6 -4 -7q-4 1 -6 5l-2 6q-13 -4 -27 2q-3 1 0 2q11 0 22 1q2 0 3 1v2l-2 4q-1 4 -6 15zM75 54q9 2 23 31v3h-3q-12 -5 -25 -14q1 -15 5 -20zM95 107q-5 -2 -9 -4
q-5 -3 -16 -7v-16q9 4 14 6q8 8 14 19q0 1 -1 2h-2zM101 137q6 0 11 -7q2 -4 -3 -5q-6 0 -8 -3q-10 -8 -18 -14q-5 -3 -1 2q9 8 17 19q2 2 -2 2q-5 -2 -11 -5l-4 -2t-3 -1q-1 -1 -2 -1q-3 0 -1 2q12 9 25 13zM199 136q2 3 6 -2q1 -4 -1 -4q-7 0 -17 -5q-3 -2 -4 -1q-1 0 1 3
q1 1 0 1q0 1 -3 1q-30 -7 -52 -14q-1 -1 -2 -1q-9 -3 -13 -2q-5 0 0 1q3 1 7 2t9 3q27 7 58 14q8 1 11 4zM149 158q0 2 2 1q6 -6 0 -12q-15 -21 -26 -28q-4 -2 -1 2q13 11 22 26q5 5 3 11zM163 87q3 0 8 -5q1 -2 0 -4t-2 0q-5 3 -15 5h-2q-7 3 -10 6q-4 1 0 2q7 -2 15 -4
q3 -2 6 0z" />
  </g>

</svg>
