<?xml version="1.0" standalone="no"?>
<!DOCTYPE svg PUBLIC "-//W3C//DTD SVG 1.1//EN" "http://www.w3.org/Graphics/SVG/1.1/DTD/svg11.dtd" >
<svg xmlns="http://www.w3.org/2000/svg" xmlns:xlink="http://www.w3.org/1999/xlink" version="1.1" viewBox="0 0 256 256">
  <g transform="matrix(1 0 0 -1 0 204)">
   <path fill="currentColor"
d="M133 189q3 6 9 3q5 -2 10 -5q2 -2 1 -3q0 -1 -2 -1q-6 0 -17 -4q-3 -1 -6 -1q-13 -5 -29 0q-3 0 -3 1q1 1 4 2q26 1 33 8zM112 169q-3 1 1 2q13 -1 12 -4q-2 -3 -1 -5q56 10 79 1q12 -5 18 -19q1 -3 0 -5q-1 -1 -4 0q-10 3 -20 0q-9 -2 -20 -2q-5 0 -4 1q0 1 5 3
q18 3 30 8q4 2 4 4q-1 2 -6 5q-28 13 -82 1q-2 -17 -2 -36q20 11 31 29q0 2 1 2l4 -2q2 -2 2 -3l-4 -3q-14 -16 -34 -31q-1 -4 0 -14q0 -12 1 -17q1 1 3 2q2 2 4 3q2 3 9 2q4 0 13 -3q3 -4 -3 -6q-9 0 -22 -5q-16 -8 -33 -6q-3 0 -3 1t3 2q13 2 26 8q-3 9 -4 20q-2 6 0 13
q1 4 1 11v31q-5 -2 -9 -3q-16 -4 -22 -7q-8 -3 -16 -2q-3 0 0 2q7 0 18 5q9 3 29 8q0 5 -5 9zM62 135q-4 -16 5 -23q2 -5 -3 -6q-7 0 -12 13q-2 3 2 2q-1 7 5 16q1 1 2 1q1 -1 1 -3zM113 135q1 -2 1 -3t-1 -1q-11 -1 -11 -7q-1 -3 -2 -3t-1 3q2 7 -12 2q-6 -1 0 2
q17 12 26 7zM140 116q2 -1 5 -1q2 -1 5 -1q4 0 8 1q6 2 6 -2q0 -2 2 -3q2 0 7 -4q2 -3 0 -6q-3 -1 -6 1q-18 9 -28 12q-3 0 -3 1q1 1 4 2zM110 105q-11 -17 -16 -18q-2 -1 -4 0q-1 2 1 3q7 6 17 16q4 4 2 -1zM124 46l3 -3q0 -1 2 -2q1 -2 -1 -4q-5 -6 -12 -14q-8 -9 -18 -20
q-2 -2 -2 -3h4q20 0 61 13q-1 0 -3 3q-3 3 -4 5q-3 4 2 2q18 -11 34 -27q3 -4 0 -9q-9 -3 -12 4q-3 5 -9 11q-3.38126 8.90301 -6 8q-27 -8 -52 -11q-1.37778 0.311111 -6 -2q-11 -1 -12 -5q-5 -3 -5 1q-1 8 2 7q1 0 9 8q8 9 20 26q6 8 3 11q-2 3 2 1zM194 71q5 4 10 1
q5 -6 9 -5q6 -3 16 -10q1 -2 0 -3t-3 -1q-3 0 -13 6q-1 0 -1 1q-8 6 -28 3q-60 -4 -139 -30q-10 -3 -19 -1q-3 0 -2 1q0 1 3 2q4 -1 11 1q7 1 19 5q59 17 127 25q6 0 10 5z" />
  </g>

</svg>
